<?xml version="1.0" encoding="utf-8"?>
<!-- Generator: Adobe Illustrator 16.0.0, SVG Export Plug-In . SVG Version: 6.00 Build 0)  -->
<!DOCTYPE svg PUBLIC "-//W3C//DTD SVG 1.1//EN" "http://www.w3.org/Graphics/SVG/1.1/DTD/svg11.dtd">
<svg version="1.1" id="图层_1" xmlns="http://www.w3.org/2000/svg" xmlns:xlink="http://www.w3.org/1999/xlink" x="0px" y="0px"
	 width="100px" height="100px" viewBox="0 0 100 100" enable-background="new 0 0 100 100" xml:space="preserve">
<g>
	<path fill="#FFFFFF" d="M22.474,15.699c-0.866,3.229-1.425,6.49-1.79,9.774c1.921-1,3.827-2.03,5.778-2.98
		C25.262,20.156,24.013,17.841,22.474,15.699z"/>
	<path fill="#FFFFFF" d="M87.019,0.016H13.017c-4.4,0-7.998,3.473-7.998,7.717v84.566c0,4.244,3.598,7.717,7.998,7.717h74.002
		c4.402,0,8-3.473,8-7.717V7.732C95.019,3.488,91.421,0.016,87.019,0.016z M60.343,24.35h22.68v2.297h-22.68V24.35z M83.022,30.613
		v2.299H61.913v-2.299H83.022z M36.461,16.468c1.412-0.669,2.717-1.468,4.129-2.1c-0.105-1.568-0.147-3.143-0.154-4.72
		c-0.01-2.419,4.032-2.418,4.042,0c0.004,1.012,0.022,2.021,0.063,3.027c1.055-0.589,2.08-1.241,3.19-1.726
		c2.344-1.021,4.397,2.21,2.04,3.238c-1.709,0.745-3.229,1.789-4.915,2.562c0.172,1.399,0.418,2.792,0.769,4.178
		c0.595,2.352-3.303,3.351-3.897,0.996c-0.288-1.141-0.51-2.289-0.688-3.442c-0.838,0.404-1.675,0.815-2.537,1.225
		C36.184,20.803,34.139,17.567,36.461,16.468z M14.408,32.421c-2.44,0.862-3.485-2.764-1.074-3.615
		c1.054-0.372,2.076-0.804,3.087-1.255c0.463-5.557,1.393-11.056,3.258-16.449c0.436-1.264,2.32-1.937,3.378-0.828
		c2.763,2.901,4.928,6.122,6.792,9.583c0.165,0.306,0.325,0.625,0.486,0.941c0.165-0.064,0.324-0.138,0.49-0.199
		c2.384-0.886,3.423,2.611,1.175,3.566c1.326,2.697,2.768,5.408,4.8,7.483c1.747,1.785-1.103,4.445-2.859,2.652
		c-2.44-2.492-4.17-5.442-5.769-8.487c-2.665,1.265-5.236,2.693-7.868,4.019c-0.242,3.776-0.289,7.577-0.294,11.393
		c-0.003,2.418-4.045,2.418-4.042,0c0.004-3.17,0.037-6.333,0.183-9.482C15.575,31.978,14.999,32.212,14.408,32.421z M16.969,48.228
		c5.597-3.674,10.625-7.46,16.467-10.861c7.262-4.229,15.538-7.634,22.231-12.593c2.016-1.492,4.896,1.144,2.859,2.652
		c-6.546,4.848-14.396,8.139-21.481,12.265c-3.696,2.152-7.839,3.954-11.119,6.651c-2.225,1.828-4.489,3.53-6.917,5.124
		C16.876,52.866,14.859,49.612,16.969,48.228z M67.842,48.697v2.299H54.93v-2.299H67.842z M62.361,45.037v-2.299h4.683v2.299H62.361
		z M56.166,42.738v2.299h-21.2v-2.299H56.166z M45.161,38.953v-2.297h11.005v2.297H45.161z M49.654,48.697v2.299H23.739v-2.299
		H49.654z M42.142,57.078v-2.297h24.902v2.297H42.142z M62.361,60.656v2.297H45.264v-2.297H62.361z M35.461,54.781v2.297H20.617
		v-2.297H35.461z M39.951,60.656v2.297H20.617v-2.297H39.951z M33.753,66.463v2.297H20.617v-2.297H33.753z M35.64,72.67v2.299
		H20.617V72.67H35.64z M38.785,78.795v2.299H20.617v-2.299H38.785z M38.696,68.76v-2.297h19.535v2.297H38.696z M41.075,72.67h17.156
		v2.299H41.075V72.67z M58.073,78.795h6.221v2.299h-6.221V78.795z M62.768,74.969V72.67h13.384v2.299H62.768z M62.361,68.76v-2.297
		h20.661v2.297H62.361z M67.842,62.953v-2.297h15.181v2.297H67.842z M42.106,87.094h-21.49v-2.299h21.49V87.094z M43.029,78.795
		h11.968v2.299H43.029V78.795z M67.842,87.094h-21.49v-2.299h21.49V87.094z M79.381,92.195h-4.19l-6.957-12.422l3.41-1.234
		l4.385,8.188l1.189,2.422l0.993-2.938l6.158-16.094h3.702L79.381,92.195z M79.381,57.32h-4.19l-6.957-12.422l3.41-1.234
		l4.385,8.188l1.189,2.422l0.993-2.938l4.738-12.383H60.343v-2.297h22.68v2.105l1.347-3.52h3.702L79.381,57.32z M73.905,45.037
		v-2.299h4.682v2.299H73.905z"/>
</g>
</svg>
