<?xml version="1.0" encoding="utf-8"?>
<!-- Generator: Adobe Illustrator 16.0.0, SVG Export Plug-In . SVG Version: 6.00 Build 0)  -->
<!DOCTYPE svg PUBLIC "-//W3C//DTD SVG 1.1//EN" "http://www.w3.org/Graphics/SVG/1.1/DTD/svg11.dtd">
<svg version="1.1" id="图层_1" xmlns="http://www.w3.org/2000/svg" xmlns:xlink="http://www.w3.org/1999/xlink" x="0px" y="0px"
	 width="100.999px" height="101px" viewBox="0 0 100.999 101" enable-background="new 0 0 100.999 101" xml:space="preserve">
<g>
	<g>
		<path fill="#FFFFFF" d="M90.69,59.05v10.743c0,0.058,0.043,0.117,0.092,0.142c0.051,0.017,0.117,0.005,0.168-0.033l8.939-5.369
			c0.068-0.063,0.068-0.155,0-0.214l-8.939-5.373c-0.051-0.042-0.117-0.05-0.168-0.029C90.733,58.937,90.69,58.995,90.69,59.05z"/>
	</g>
	<g>
		<path fill="#FFFFFF" d="M11.422,87.524l-7.584-7.587c-0.041-0.041-0.111-0.05-0.166-0.032c-0.045,0.023-0.084,0.078-0.096,0.142
			L1.059,90.151c-0.006,0.088,0.059,0.154,0.148,0.149l10.107-2.521c0.066-0.005,0.115-0.047,0.137-0.097
			S11.461,87.562,11.422,87.524z"/>
	</g>
	<g>
		<path fill="#FFFFFF" d="M20.581,10.68h11.594c0.061,0,0.125-0.045,0.152-0.099c0.018-0.055,0.004-0.125-0.037-0.181l-5.793-9.647
			c-0.068-0.072-0.168-0.072-0.23,0l-5.799,9.647c-0.045,0.056-0.055,0.126-0.031,0.181C20.459,10.635,20.522,10.68,20.581,10.68z"
			/>
	</g>
	<g>
		<g>
			<rect x="24.379" y="7.31" fill="#FFFFFF" width="4" height="2.5"/>
		</g>
		<g>
			<path fill="#FFFFFF" d="M28.379,57.036h-4v-4.722h4V57.036z M28.379,47.591h-4v-4.723h4V47.591z M28.379,38.146h-4v-4.723h4
				V38.146z M28.379,28.7h-4v-4.722h4V28.7z M28.379,19.255h-4v-4.723h4V19.255z"/>
		</g>
		<g>
			<polygon fill="#FFFFFF" points="28.874,66.265 24.379,66.253 24.379,61.758 28.379,61.758 28.379,62.264 28.885,62.265 			"/>
		</g>
		<g>
			<path fill="#FFFFFF" d="M82.15,66.404l-5.328-0.014l0.01-4l5.328,0.014L82.15,66.404z M71.495,66.376l-5.328-0.014l0.01-4
				l5.328,0.014L71.495,66.376z M60.84,66.348l-5.328-0.014l0.011-4l5.327,0.014L60.84,66.348z M50.184,66.32l-5.328-0.014l0.011-4
				l5.328,0.014L50.184,66.32z M39.529,66.292l-5.328-0.014l0.011-4l5.328,0.014L39.529,66.292z"/>
		</g>
		<g>
			<rect x="87.483" y="62.421" transform="matrix(1 0.0027 -0.0027 1 0.1765 -0.2424)" fill="#FFFFFF" width="2.5" height="4"/>
		</g>
	</g>
	<g>
		<g>
			
				<rect x="4.619" y="83.385" transform="matrix(0.7134 0.7007 -0.7007 0.7134 61.0278 19.5442)" fill="#FFFFFF" width="4" height="2"/>
		</g>
		<g>
			<path fill="#FFFFFF" d="M11.27,82.503l-2.854-2.803l2.522-2.569l2.854,2.803L11.27,82.503z M16.315,77.365l-2.854-2.803
				l2.522-2.569l2.854,2.803L16.315,77.365z M21.36,72.226l-2.854-2.803l2.522-2.569l2.854,2.803L21.36,72.226z"/>
		</g>
		<g>
			
				<rect x="23.679" y="63.972" transform="matrix(0.7134 0.7007 -0.7007 0.7134 52.8865 0.6253)" fill="#FFFFFF" width="4" height="2"/>
		</g>
	</g>
	<g>
		<polygon fill="#FFFFFF" points="66.532,41.356 14.477,41.356 14.477,35.356 63.431,35.356 71.603,23.825 76.497,27.293 		"/>
	</g>
	<g>
		<rect x="61.356" y="38.356" fill="#FFFFFF" width="6" height="36.393"/>
	</g>
	<g>
		<path fill="#FFFFFF" d="M65.803,77.749H12.315V36.679l13.929-14.12H77.05v41.066L65.803,77.749z M18.315,71.749H62.91l8.14-10.221
			V28.559H28.753L18.315,39.14V71.749z"/>
	</g>
</g>
</svg>
