<?xml version="1.0" encoding="utf-8"?>
<!-- Generator: Adobe Illustrator 16.0.0, SVG Export Plug-In . SVG Version: 6.00 Build 0)  -->
<!DOCTYPE svg PUBLIC "-//W3C//DTD SVG 1.1//EN" "http://www.w3.org/Graphics/SVG/1.1/DTD/svg11.dtd">
<svg version="1.1" id="图层_1" xmlns="http://www.w3.org/2000/svg" xmlns:xlink="http://www.w3.org/1999/xlink" x="0px" y="0px"
	 width="101px" height="101px" viewBox="0 0 101 101" enable-background="new 0 0 101 101" xml:space="preserve">
<g>
	<g>
		<path fill="#FFFFFF" d="M83.094,49.292v19.08c0,0.098,0.075,0.195,0.165,0.248c0.097,0.031,0.215,0.008,0.295-0.053l15.88-9.545
			c0.112-0.107,0.112-0.264,0-0.373l-15.88-9.541c-0.08-0.07-0.198-0.09-0.295-0.055C83.169,49.097,83.094,49.194,83.094,49.292z"/>
	</g>
	<g>
		<path fill="#FFFFFF" d="M28.269,19.61h19.082c0.098,0,0.193-0.074,0.246-0.164c0.033-0.098,0.01-0.215-0.053-0.295L38.001,3.271
			c-0.109-0.111-0.266-0.111-0.375,0l-9.539,15.881c-0.07,0.08-0.09,0.197-0.057,0.295C28.075,19.536,28.171,19.61,28.269,19.61z"/>
	</g>
	<g>
		<path fill="#FFFFFF" d="M51.055,74.667c-0.008,0-0.015,0-0.023,0C42.071,74.649,37,64.403,32.525,55.364
			c-2.681-5.417-6-12.141-8.585-11.896c-3.076,0.315-3.803,2.061-5.154,5.979c-1.343,3.894-3.014,8.74-8.779,11.886l-2.396-4.389
			c4.065-2.219,5.223-5.575,6.448-9.127c1.401-4.064,2.99-8.671,9.371-9.323c6.024-0.613,9.521,6.458,13.576,14.651
			c3.83,7.738,8.171,16.509,14.035,16.521c0.004,0,0.008,0,0.012,0c5.278,0,7.609-6.745,10.563-17.034
			C64.38,43,67.535,32.076,76.94,32.61l-0.279,4.992c-5.067-0.278-7.341,6.313-10.239,16.41
			C63.643,63.694,60.493,74.667,51.055,74.667z"/>
	</g>
	<g>
		<path fill="#FFFFFF" d="M68.038,7.607l-3.192,9.169c-1.561,4.345-2.664,6.793-4.248,8.329c-1.2,1.104-2.425,1.56-3.072,1.704
			l-0.721-2.353c2.881-1.032,3.913-3.72,3.913-4.08c0-0.144-0.024-0.312-0.145-0.576L56.037,7.607h3.048l2.4,7.441
			c0.264,0.863,0.528,1.872,0.72,2.64h0.072c0.192-0.768,0.456-1.752,0.696-2.64l2.136-7.441H68.038z"/>
	</g>
	<g>
		<path fill="#FFFFFF" d="M92.729,81.548l-4.152,6.385l4.225,6.84h-3.145l-1.632-2.832c-0.408-0.721-0.792-1.416-1.176-2.207h-0.048
			c-0.385,0.768-0.769,1.463-1.2,2.23l-1.561,2.809h-3.024l4.272-6.721l-4.104-6.504h3.072l1.584,2.664
			c0.433,0.744,0.792,1.416,1.177,2.137h0.048c0.384-0.744,0.768-1.465,1.152-2.16l1.512-2.641H92.729z"/>
	</g>
	<g>
		<rect x="34.813" y="18.833" fill="#FFFFFF" width="6" height="78.98"/>
	</g>
	<g>
		<rect x="1.481" y="55.835" fill="#FFFFFF" width="88.775" height="6"/>
	</g>
</g>
</svg>
