<?xml version="1.0" encoding="utf-8"?>
<!-- Generator: Adobe Illustrator 16.0.0, SVG Export Plug-In . SVG Version: 6.00 Build 0)  -->
<!DOCTYPE svg PUBLIC "-//W3C//DTD SVG 1.1//EN" "http://www.w3.org/Graphics/SVG/1.1/DTD/svg11.dtd">
<svg version="1.1" id="图层_1" xmlns="http://www.w3.org/2000/svg" xmlns:xlink="http://www.w3.org/1999/xlink" x="0px" y="0px"
	 width="100px" height="100px" viewBox="0 0 100 100" enable-background="new 0 0 100 100" xml:space="preserve">
<g>
	<path fill="#FFFFFF" d="M26.838,28.098c-0.756-0.678-4.406-4.796-4.832-5.287c-1.611-1.852,1.584-4.984,3.928-3.021
		c0.533,0.448,3.096,2.415,3.096,2.415s3.229-2.262,6.842-4.602v-0.911c0-0.334-0.279-0.614-0.613-0.614H21.445
		c-0.332,0-0.613,0.28-0.613,0.614v13.812c0,0.336,0.281,0.616,0.613,0.616h13.813c0.334,0,0.613-0.28,0.613-0.616v-7.823
		c-3.235,2.571-5.982,4.755-6.465,5.116C28.199,28.702,27.594,28.779,26.838,28.098z"/>
	<path fill="#FFFFFF" d="M26.838,81.415c-0.756-0.679-4.406-4.796-4.832-5.286c-1.611-1.854,1.584-4.987,3.928-3.021
		c0.533,0.445,3.096,2.416,3.096,2.416s3.229-2.262,6.842-4.602v-0.91c0-0.334-0.279-0.616-0.613-0.616H21.445
		c-0.332,0-0.613,0.282-0.613,0.616v13.811c0,0.333,0.281,0.613,0.613,0.613h13.813c0.334,0,0.613-0.28,0.613-0.613v-7.825
		c-3.235,2.571-5.982,4.755-6.465,5.115C28.199,82.021,27.594,82.094,26.838,81.415z"/>
	<path fill="#FFFFFF" d="M26.838,54.755c-0.756-0.68-4.406-4.795-4.832-5.285c-1.611-1.852,1.584-4.984,3.928-3.022
		c0.533,0.446,3.096,2.417,3.096,2.417s3.229-2.262,6.842-4.602v-0.911c0-0.336-0.279-0.616-0.613-0.616H21.445
		c-0.332,0-0.613,0.28-0.613,0.616v13.811c0,0.333,0.281,0.616,0.613,0.616h13.813c0.334,0,0.613-0.283,0.613-0.616v-7.824
		c-3.235,2.572-5.982,4.755-6.465,5.116C28.199,55.356,27.594,55.436,26.838,54.755z"/>
	<path fill="#FFFFFF" d="M87,0.013H12.998C8.598,0.013,5,3.485,5,7.729v84.565c0,4.244,3.598,7.717,7.998,7.717H87
		c4.402,0,8-3.473,8-7.717V7.729C95,3.485,91.402,0.013,87,0.013z M52.561,17.284h22.236v12.14H52.561V17.284z M47.762,66.611
		c-0.755,0.549-4.369,3.41-8.199,6.452v10.759c0,2.374-1.932,4.302-4.305,4.302H21.445c-2.371,0-4.303-1.928-4.303-4.302V70.012
		c0-2.376,1.932-4.305,4.303-4.305h13.813c1.926,0,3.542,1.279,4.09,3.027c1.686-1.022,3.256-1.91,4.41-2.428
		C48.137,64.345,49.422,65.399,47.762,66.611z M47.762,39.953c-0.755,0.548-4.369,3.409-8.199,6.451v10.758
		c0,2.372-1.932,4.304-4.305,4.304H21.445c-2.371,0-4.303-1.932-4.303-4.304V43.352c0-2.374,1.932-4.306,4.303-4.306h13.813
		c1.926,0,3.542,1.281,4.09,3.03c1.686-1.023,3.256-1.91,4.41-2.429C48.137,37.685,49.422,38.742,47.762,39.953z M47.762,13.293
		c-0.755,0.55-4.369,3.411-8.199,6.454v10.757c0,2.374-1.932,4.303-4.305,4.303H21.445c-2.371,0-4.303-1.929-4.303-4.303V16.692
		c0-2.375,1.932-4.305,4.303-4.305h13.813c1.927,0,3.543,1.28,4.09,3.029c1.686-1.022,3.256-1.909,4.41-2.427
		C48.137,11.025,49.422,12.086,47.762,13.293z M82.857,82.739H52.561V70.601h30.297V82.739z M82.857,56.081H52.561V43.942h30.297
		V56.081z"/>
</g>
</svg>
