<?xml version="1.0" encoding="utf-8"?>
<!-- Generator: Adobe Illustrator 16.0.0, SVG Export Plug-In . SVG Version: 6.00 Build 0)  -->
<!DOCTYPE svg PUBLIC "-//W3C//DTD SVG 1.1//EN" "http://www.w3.org/Graphics/SVG/1.1/DTD/svg11.dtd">
<svg version="1.1" id="图层_1" xmlns="http://www.w3.org/2000/svg" xmlns:xlink="http://www.w3.org/1999/xlink" x="0px" y="0px"
	 width="101px" height="101.002px" viewBox="0 0 101 101.002" enable-background="new 0 0 101 101.002" xml:space="preserve">
<g>
	<g>
		<g>
			<path fill="#FFFFFF" d="M27.609,42.468l2.357-0.435l-2.68,7.864c-1.072,3.13-2.084,6.736-3.037,10.818
				c-0.523,2.218-0.786,3.648-0.786,4.29c0,0.643,0.298,0.964,0.894,0.964c0.381,0,0.988-0.218,1.822-0.652
				c1.477-0.767,2.895-1.721,4.252-2.86l1.144,1.212c-2.716,2.156-4.454,3.462-5.217,3.917c-1.524,0.912-2.978,1.586-4.359,2.021
				c-0.905,0.29-1.786,0.436-2.644,0.436c-0.62,0-1.085-0.124-1.394-0.373c-0.311-0.249-0.465-0.611-0.465-1.088
				c0-0.311,0.095-0.735,0.286-1.274l1.429-4.228c-2.049,2.135-4.49,3.969-7.325,5.502c-1.739,0.953-3.335,1.43-4.788,1.43
				c-1.382,0-2.441-0.425-3.18-1.274c-1.001-1.14-1.501-2.632-1.501-4.477c0-2.196,0.673-4.642,2.019-7.336s3.15-5.14,5.414-7.337
				c2.263-2.196,4.645-3.813,7.146-4.85c1.93-0.787,4.406-1.182,7.432-1.182c0.763,0,1.537,0.042,2.323,0.125L27.609,42.468z
				 M23.179,47.225c-1.287-0.229-2.371-0.342-3.252-0.342c-2.144,0-4.015,0.513-5.61,1.538c-1.596,1.026-3.079,2.871-4.448,5.534
				c-1.37,2.663-2.055,5.32-2.055,7.974c0,1.409,0.273,2.425,0.822,3.046c0.548,0.622,1.262,0.933,2.144,0.933
				c1.644,0,3.406-0.771,5.288-2.315s3.264-3.767,4.146-6.668L23.179,47.225z"/>
			<path fill="#FFFFFF" d="M19.355,71.042c-0.853,0-1.532-0.2-2.021-0.595c-0.381-0.306-0.837-0.879-0.837-1.866
				c0-0.432,0.112-0.958,0.344-1.609l0.193-0.573c-1.426,1.127-2.988,2.151-4.672,3.063c-1.875,1.027-3.648,1.55-5.264,1.55
				c-1.678,0-3.002-0.545-3.935-1.618c-1.157-1.318-1.746-3.046-1.746-5.133c0-2.343,0.714-4.961,2.124-7.783
				c1.39-2.781,3.277-5.341,5.612-7.607c2.344-2.275,4.854-3.977,7.46-5.056c2.048-0.835,4.675-1.258,7.814-1.258
				c0.602,0,1.219,0.025,1.84,0.076l0.759-1.073l4.437-0.818l-3.23,9.479c-1.055,3.079-2.067,6.687-3.01,10.724
				c-0.625,2.648-0.747,3.639-0.759,4.005c0.192-0.039,0.564-0.159,1.253-0.518c1.405-0.729,2.774-1.651,4.07-2.739l0.723-0.607
				l2.539,2.69l-0.854,0.678c-2.777,2.206-4.521,3.512-5.326,3.992c-1.584,0.948-3.123,1.66-4.571,2.116
				C21.303,70.88,20.311,71.042,19.355,71.042z M21.595,59.152l-2.864,8.475c-0.211,0.595-0.233,0.865-0.233,0.954
				c0,0.235,0.063,0.286,0.09,0.308c0.047,0.037,0.231,0.153,0.769,0.153c0.748,0,1.535-0.131,2.338-0.388
				c1.305-0.41,2.7-1.058,4.151-1.927c0.184-0.109,0.433-0.275,0.746-0.497c-0.988,0.511-1.679,0.739-2.233,0.739
				c-1.15,0-1.894-0.771-1.894-1.964c0-0.462,0.084-1.433,0.813-4.52c0.957-4.101,1.988-7.772,3.064-10.913l2.129-6.247
				l-0.279,0.051l-0.961,1.359l-0.583-0.062c-0.751-0.079-1.497-0.119-2.218-0.119c-2.879,0-5.252,0.373-7.055,1.107
				c-0.952,0.395-1.894,0.884-2.819,1.464c1.576-0.826,3.379-1.244,5.372-1.244c0.938,0,2.092,0.12,3.427,0.357l1.111,0.197
				l-3.296,10.778c-0.543,1.785-1.275,3.344-2.191,4.663L21.595,59.152z M12.45,48.624c-0.645,0.515-1.28,1.075-1.903,1.681
				c-2.173,2.108-3.928,4.486-5.216,7.066c-1.27,2.541-1.913,4.859-1.913,6.889c0,1.608,0.409,2.857,1.252,3.816
				c0.548,0.63,1.341,0.935,2.429,0.935c1.275,0,2.726-0.439,4.308-1.307c0.936-0.507,1.831-1.049,2.683-1.626
				c-2.387,1.16-4.785,1.167-6.204-0.442c-0.721-0.816-1.071-2.029-1.071-3.707c0-2.802,0.729-5.639,2.165-8.431
				C10.049,51.417,11.212,49.785,12.45,48.624z M19.927,47.883c-1.939,0-3.646,0.464-5.07,1.379c-1.438,0.926-2.818,2.659-4.1,5.15
				c-1.29,2.508-1.943,5.036-1.943,7.517c0,1.137,0.197,1.961,0.571,2.384c0.357,0.406,0.801,0.595,1.395,0.595
				c1.398,0,2.965-0.703,4.653-2.089c1.718-1.409,3.004-3.49,3.823-6.186l2.63-8.6C21.141,47.934,20.484,47.883,19.927,47.883z"/>
		</g>
	</g>
	<g>
		<g>
			<path fill="#FFFFFF" d="M35.654,59.819l-0.607-0.545c1.526-1.27,2.742-2.113,3.647-2.53c0.906-0.416,1.682-0.625,2.325-0.625
				c0.25,0,0.446,0.047,0.59,0.141c0.143,0.093,0.215,0.202,0.215,0.326c0,0.093-0.03,0.259-0.09,0.497l-0.806,3.128
				c1.213-1.172,2.735-2.266,4.566-3.282c0.975-0.529,1.777-0.794,2.408-0.794c0.464,0,0.826,0.13,1.088,0.389
				c0.262,0.26,0.393,0.633,0.393,1.119c0,0.321-0.054,0.685-0.16,1.088c-0.19,0.674-0.688,2.141-1.496,4.399
				c-0.76,2.113-1.139,3.518-1.139,4.212c0,0.213,0.035,0.372,0.106,0.479c0.072,0.106,0.173,0.159,0.304,0.159
				c0.346,0,0.888-0.29,1.626-0.871c0.524-0.414,1.048-0.798,1.572-1.149l0.447,0.56c-1.097,1.052-2.233,1.897-3.413,2.536
				c-0.75,0.413-1.369,0.619-1.857,0.619c-0.453,0-0.805-0.143-1.055-0.428s-0.375-0.749-0.375-1.392
				c0-0.922,0.661-3.217,1.983-6.886c0.404-1.306,0.607-2.067,0.607-2.284c0-0.321-0.221-0.482-0.661-0.482
				c-0.477,0-1.09,0.219-1.841,0.654c-1.119,0.644-2.054,1.4-2.805,2.272c-0.477,0.561-0.875,1.452-1.197,2.677l-1.446,5.433h-2.662
				c0.5-1.557,0.935-3.046,1.304-4.468l1.59-5.914c0.06-0.238,0.09-0.41,0.09-0.514c0-0.28-0.119-0.42-0.357-0.42
				c-0.19,0-0.465,0.109-0.822,0.329C36.988,58.68,36.298,59.202,35.654,59.819z"/>
			<path fill="#FFFFFF" d="M45.374,70.174c-0.602,0-1.083-0.201-1.431-0.598c-0.336-0.384-0.499-0.946-0.499-1.722
				c0-0.989,0.658-3.297,2.013-7.056c0.474-1.531,0.561-1.969,0.575-2.089c-0.108-0.001-0.655-0.056-1.748,0.579
				c-1.067,0.613-1.968,1.342-2.677,2.166c-0.423,0.497-0.791,1.332-1.093,2.478l-1.546,5.806h-3.731l0.209-0.653
				c0.495-1.54,0.931-3.034,1.296-4.44l1.591-5.918c0.029-0.116,0.047-0.2,0.058-0.259c-0.089,0.035-0.22,0.098-0.402,0.21
				c-0.711,0.412-1.376,0.915-1.988,1.503l-0.335,0.32l-1.383-1.241l0.444-0.37c1.576-1.311,2.806-2.16,3.759-2.6
				c0.983-0.451,1.812-0.671,2.534-0.671c0.347,0,0.638,0.074,0.863,0.222c0.384,0.25,0.441,0.574,0.441,0.745
				c0,0.138-0.032,0.328-0.105,0.618l-0.402,1.563c0.996-0.798,2.146-1.561,3.436-2.276c1.941-1.056,3.3-1.105,4.091-0.323
				c0.359,0.356,0.541,0.853,0.541,1.475c0,0.362-0.06,0.771-0.177,1.216c-0.198,0.7-0.705,2.19-1.509,4.439
				c-0.917,2.551-1.109,3.607-1.109,4.044c0,0.052,0.003,0.091,0.006,0.122c0.16-0.043,0.522-0.198,1.221-0.748
				c0.541-0.427,1.08-0.821,1.604-1.172l0.382-0.256l1.02,1.275l-0.33,0.316c-1.126,1.079-2.311,1.959-3.521,2.614
				C46.641,69.951,45.954,70.174,45.374,70.174z M45.874,57.702c0.855,0,1.161,0.508,1.161,0.982c0,0.207-0.076,0.645-0.63,2.432
				c-1.622,4.503-1.961,6.147-1.961,6.738c0,0.642,0.137,0.932,0.251,1.062c0.097,0.111,0.272,0.258,0.679,0.258
				c0.275,0,0.78-0.097,1.616-0.557c0.104-0.058,0.209-0.116,0.314-0.177c-0.445,0.107-0.804-0.018-1.023-0.339
				c-0.13-0.195-0.192-0.442-0.192-0.76c0-0.762,0.382-2.194,1.168-4.381c0.796-2.228,1.296-3.696,1.485-4.366
				c0.093-0.353,0.142-0.676,0.142-0.952c0-0.351-0.08-0.601-0.245-0.765c-0.439-0.434-1.467-0.29-2.905,0.49
				c-0.348,0.193-0.685,0.39-1.011,0.589C45.152,57.786,45.533,57.702,45.874,57.702z M36.605,68.738H38.2l1.348-5.062
				c0.252-0.959,0.548-1.72,0.896-2.303l-0.441,0.427l1.247-4.843c0.035-0.141,0.054-0.231,0.063-0.289
				c-0.056-0.026-0.142-0.05-0.294-0.05c-0.567,0-1.279,0.195-2.117,0.579c-0.14,0.065-0.289,0.142-0.447,0.229
				c0.571-0.052,0.951,0.324,0.951,0.916c0,0.147-0.033,0.349-0.105,0.635L37.709,64.9C37.393,66.121,37.021,67.41,36.605,68.738z"
				/>
		</g>
	</g>
	<g>
		<g>
			<path fill="#FFFFFF" d="M68.697,55.837l-9.252,10.238l-0.938-0.594l8.825-9.645l-8.825-9.719l0.853-0.594L68.697,55.837z"/>
			<polygon fill="#FFFFFF" points="59.71,68.019 56.191,65.79 65.303,55.833 56.25,45.863 59.586,43.539 70.72,55.836 			"/>
		</g>
	</g>
	<g>
		<g>
			<path fill="#FFFFFF" d="M84.055,31.408c-0.204,1.499-0.409,3.046-0.614,4.64c-0.204,1.593-0.401,3.205-0.59,4.836
				s-0.371,3.271-0.549,4.92c-0.178,1.65-0.34,3.278-0.485,4.886s-0.271,3.183-0.379,4.724c-0.108,1.542-0.194,3.021-0.259,4.436
				l0.178,0.015c0.851-1.818,1.767-3.421,2.747-4.809c0.98-1.387,1.977-2.549,2.989-3.486s2.018-1.646,3.014-2.123
				s1.937-0.717,2.82-0.717c0.743,0,1.4,0.119,1.971,0.358c0.571,0.239,1.067,0.558,1.487,0.956s0.77,0.857,1.05,1.378
				c0.28,0.52,0.507,1.063,0.679,1.631c0.173,0.566,0.294,1.141,0.364,1.722c0.069,0.581,0.104,1.125,0.104,1.631
				c0,1.396-0.159,2.702-0.477,3.915c-0.317,1.214-0.757,2.32-1.317,3.318c-0.56,0.998-1.223,1.886-1.987,2.664
				s-1.595,1.434-2.488,1.968c-0.895,0.534-1.837,0.94-2.828,1.217S87.497,69.9,86.495,69.9c-0.668,0-1.339-0.065-2.012-0.196
				c-0.674-0.132-1.331-0.333-1.972-0.604c-0.642-0.271-1.247-0.621-1.818-1.048c-0.57-0.426-1.082-0.93-1.535-1.511
				c-0.377,0.824-0.759,1.499-1.146,2.024c-0.389,0.524-0.749,0.946-1.083,1.265l-0.841-0.183c0.593-1.434,1.029-3.156,1.31-5.166
				c0.279-2.011,0.495-4.286,0.646-6.826c0.054-1.087,0.121-2.324,0.201-3.711c0.081-1.387,0.165-2.85,0.251-4.387
				s0.178-3.109,0.274-4.717c0.098-1.607,0.194-3.17,0.291-4.688s0.188-2.957,0.274-4.315c0.087-1.359,0.167-2.563,0.243-3.613
				c0.01-0.226,0.091-0.42,0.242-0.584c0.15-0.163,0.339-0.295,0.565-0.394s0.482-0.171,0.768-0.218s0.568-0.07,0.849-0.07
				C82.659,30.958,83.344,31.108,84.055,31.408z M94.64,57.769c0-0.638-0.057-1.294-0.17-1.969s-0.291-1.286-0.533-1.835
				c-0.242-0.548-0.561-0.998-0.953-1.35c-0.394-0.352-0.87-0.527-1.431-0.527c-0.657,0-1.307,0.144-1.947,0.43
				c-0.641,0.285-1.26,0.67-1.858,1.152c-0.598,0.482-1.171,1.04-1.721,1.673s-1.064,1.296-1.543,1.989
				c-0.479,0.694-0.911,1.395-1.293,2.102c-0.383,0.708-0.711,1.381-0.985,2.018c-0.275,0.638-0.488,1.217-0.639,1.736
				c-0.151,0.521-0.227,0.936-0.227,1.244c0.162,0.581,0.412,1.108,0.752,1.582c0.339,0.474,0.748,0.876,1.228,1.209
				s1.013,0.588,1.6,0.767c0.588,0.178,1.21,0.267,1.867,0.267c1.077,0,2.093-0.236,3.046-0.71c0.953-0.473,1.785-1.16,2.496-2.06
				c0.712-0.899,1.274-1.998,1.689-3.297C94.432,60.892,94.64,59.418,94.64,57.769z"/>
			<path fill="#FFFFFF" d="M77.234,70.92l-2.528-0.549l0.457-1.105c0.558-1.349,0.977-3.005,1.244-4.922
				c0.274-1.979,0.489-4.25,0.639-6.748c0.053-1.079,0.12-2.319,0.2-3.709c0.081-1.387,0.165-2.849,0.251-4.385
				c0.086-1.539,0.179-3.112,0.275-4.721c0.098-1.609,0.194-3.173,0.291-4.692l0.274-4.315c0.087-1.363,0.167-2.57,0.243-3.622
				c0.019-0.431,0.193-0.853,0.505-1.189c0.245-0.267,0.549-0.479,0.901-0.633c0.3-0.131,0.638-0.228,1.005-0.287
				c1.132-0.188,2.266-0.055,3.451,0.444l0.705,0.298l-0.104,0.759c-0.203,1.497-0.408,3.041-0.613,4.633
				c-0.203,1.588-0.4,3.196-0.588,4.823c-0.188,1.628-0.37,3.265-0.548,4.912c-0.178,1.645-0.339,3.267-0.483,4.868
				c-0.146,1.601-0.271,3.169-0.378,4.703c-0.007,0.104-0.015,0.209-0.021,0.313c0.286-0.459,0.577-0.898,0.873-1.318
				c1.018-1.438,2.069-2.663,3.127-3.643c1.082-1.002,2.179-1.772,3.261-2.291c2.086-1,4.107-1.011,5.61-0.379
				c0.682,0.285,1.283,0.673,1.789,1.152c0.494,0.47,0.912,1.018,1.241,1.63c0.312,0.576,0.565,1.187,0.756,1.814
				c0.188,0.616,0.322,1.253,0.399,1.892c0.074,0.622,0.112,1.211,0.112,1.751c0,1.475-0.172,2.877-0.51,4.168
				c-0.337,1.29-0.813,2.486-1.412,3.555c-0.599,1.068-1.321,2.036-2.146,2.876c-0.818,0.833-1.723,1.548-2.688,2.125
				c-0.97,0.579-2.003,1.023-3.072,1.321c-1.791,0.502-3.634,0.592-5.461,0.236c-0.741-0.145-1.471-0.368-2.171-0.665
				c-0.71-0.301-1.392-0.693-2.026-1.168c-0.242-0.181-0.477-0.375-0.701-0.582c-0.19,0.329-0.384,0.626-0.577,0.889
				c-0.431,0.581-0.822,1.036-1.198,1.395L77.234,70.92z M78.934,64.627l1.013,1.299c0.397,0.509,0.85,0.955,1.345,1.324
				c0.507,0.379,1.048,0.69,1.61,0.929c0.048,0.021,0.097,0.041,0.146,0.061c-0.102-0.063-0.201-0.128-0.298-0.195
				c-0.573-0.397-1.067-0.885-1.471-1.448c-0.405-0.564-0.709-1.202-0.902-1.896l-0.036-0.269c0-0.409,0.087-0.907,0.266-1.523
				c0.162-0.557,0.391-1.181,0.682-1.854c0.026-0.062,0.054-0.124,0.081-0.187l-1.232-0.103l0.044-0.963
				c0.064-1.423,0.151-2.909,0.26-4.46c0.108-1.547,0.234-3.129,0.381-4.743c0.146-1.613,0.309-3.247,0.487-4.903
				c0.178-1.651,0.36-3.294,0.55-4.928c0.188-1.635,0.387-3.251,0.591-4.848c0.169-1.311,0.337-2.589,0.505-3.835
				c-0.571-0.147-1.096-0.158-1.637-0.071c-0.204,0.034-0.382,0.084-0.531,0.148c-0.098,0.042-0.172,0.093-0.229,0.154
				c-0.057,1.026-0.137,2.228-0.223,3.583l-0.274,4.315c-0.097,1.518-0.193,3.079-0.291,4.686c-0.097,1.605-0.188,3.177-0.274,4.712
				c-0.086,1.538-0.17,3.002-0.251,4.39c-0.08,1.383-0.147,2.617-0.201,3.702c-0.152,2.56-0.372,4.883-0.654,6.914
				c-0.093,0.663-0.202,1.299-0.329,1.907c0.063-0.129,0.127-0.263,0.19-0.401L78.934,64.627z M91.553,51.088
				c0.811,0,1.516,0.263,2.097,0.781c0.499,0.447,0.903,1.016,1.201,1.691c0.275,0.623,0.479,1.32,0.605,2.073
				c0.121,0.727,0.184,1.444,0.184,2.135c0,1.743-0.226,3.333-0.67,4.725c-0.45,1.409-1.075,2.625-1.857,3.614
				c-0.351,0.442-0.729,0.841-1.136,1.195c0.753-0.471,1.463-1.042,2.11-1.702c0.701-0.713,1.316-1.538,1.829-2.452
				c0.517-0.92,0.928-1.957,1.222-3.082c0.295-1.126,0.444-2.358,0.444-3.662c0-0.462-0.033-0.971-0.098-1.513
				c-0.063-0.521-0.174-1.042-0.328-1.548c-0.151-0.502-0.354-0.988-0.602-1.448c-0.229-0.425-0.518-0.804-0.858-1.127
				c-0.329-0.313-0.728-0.567-1.186-0.759c-0.978-0.411-2.401-0.415-3.973,0.337c-0.9,0.433-1.831,1.09-2.767,1.955
				c-0.145,0.135-0.289,0.273-0.434,0.418c0.6-0.458,1.225-0.833,1.86-1.116C89.965,51.262,90.757,51.088,91.553,51.088z
				 M82.346,64.308c0.13,0.41,0.317,0.788,0.559,1.123c0.271,0.378,0.602,0.704,0.985,0.971c0.39,0.271,0.834,0.483,1.32,0.631
				c1.297,0.395,2.879,0.263,4.177-0.382c0.814-0.404,1.54-1.004,2.156-1.784c0.634-0.8,1.146-1.803,1.521-2.981
				c0.382-1.194,0.575-2.58,0.575-4.116c0-0.579-0.053-1.187-0.156-1.803c-0.099-0.59-0.255-1.127-0.462-1.598
				c-0.183-0.413-0.42-0.753-0.705-1.008c-0.208-0.186-0.451-0.272-0.764-0.272c-0.513,0-1.03,0.115-1.54,0.343
				c-0.557,0.248-1.107,0.59-1.639,1.018c-0.547,0.442-1.083,0.964-1.593,1.551c-0.524,0.604-1.021,1.243-1.475,1.901
				c-0.461,0.667-0.877,1.343-1.236,2.009c-0.365,0.675-0.684,1.326-0.947,1.938c-0.258,0.597-0.458,1.141-0.597,1.619
				C82.404,63.885,82.36,64.15,82.346,64.308z"/>
		</g>
	</g>
</g>
</svg>
