<?xml version="1.0" encoding="utf-8"?>
<!-- Generator: Adobe Illustrator 16.0.0, SVG Export Plug-In . SVG Version: 6.00 Build 0)  -->
<!DOCTYPE svg PUBLIC "-//W3C//DTD SVG 1.1//EN" "http://www.w3.org/Graphics/SVG/1.1/DTD/svg11.dtd">
<svg version="1.1" id="图层_1" xmlns="http://www.w3.org/2000/svg" xmlns:xlink="http://www.w3.org/1999/xlink" x="0px" y="0px"
	 width="100px" height="100px" viewBox="0 0 100 100" enable-background="new 0 0 100 100" xml:space="preserve">
<g>
	<g>
		<path fill="#FFFFFF" d="M87.573,71.188v13.561c0,0.074,0.054,0.147,0.114,0.181c0.066,0.022,0.15,0.009,0.216-0.042l11.286-6.776
			c0.08-0.081,0.08-0.196,0-0.272l-11.286-6.781c-0.065-0.055-0.149-0.063-0.216-0.035C87.627,71.046,87.573,71.119,87.573,71.188z"
			/>
	</g>
	<g>
		<path fill="#FFFFFF" d="M23.154,98.381h-1.969l-1.148-4.348h-3.609l-1.148,4.348h-1.969l4.102-14.191h1.641L23.154,98.381z
			 M19.627,92.475l-1.313-5.004H18.15l-1.313,5.004H19.627z"/>
	</g>
	<g>
		<path fill="#FFFFFF" d="M73.577,94.197c0,1.587-0.438,2.68-1.313,3.281c-0.876,0.603-1.997,0.902-3.363,0.902H64.8V84.354h4.266
			c1.366,0,2.392,0.356,3.076,1.066c0.683,0.711,1.025,1.559,1.025,2.543s-0.233,1.71-0.697,2.174
			c-0.466,0.465-0.943,0.779-1.436,0.943c0.656,0.164,1.243,0.506,1.764,1.025C73.316,92.626,73.577,93.323,73.577,94.197z
			 M71.28,87.963c0-0.71-0.205-1.23-0.615-1.559s-0.917-0.492-1.518-0.492h-2.461v4.348h2.379c0.601,0,1.12-0.177,1.559-0.533
			C71.061,89.371,71.28,88.783,71.28,87.963z M71.608,94.197c0-0.874-0.287-1.489-0.861-1.846c-0.574-0.355-1.218-0.533-1.928-0.533
			h-2.133v5.004h1.887c0.984,0,1.735-0.191,2.256-0.574C71.348,95.866,71.608,95.182,71.608,94.197z"/>
	</g>
	<g>
		<path fill="#FFFFFF" d="M94.641,9.984c-0.055,2.08-0.492,3.557-1.313,4.43c-0.82,0.876-1.805,1.313-2.953,1.313
			c-1.313,0-2.434-0.533-3.363-1.6c-0.931-1.066-1.395-2.774-1.395-5.127c0-2.569,0.451-4.482,1.354-5.742
			c0.902-1.257,2.063-1.887,3.486-1.887c1.202,0,2.201,0.451,2.994,1.354c0.792,0.902,1.161,2.174,1.107,3.814h-1.805
			c0-1.201-0.192-2.104-0.574-2.707c-0.383-0.601-0.957-0.902-1.723-0.902c-0.875,0-1.572,0.451-2.092,1.354
			c-0.521,0.902-0.779,2.42-0.779,4.553c0,1.969,0.259,3.352,0.779,4.143c0.52,0.794,1.189,1.189,2.01,1.189
			c0.602,0,1.148-0.287,1.641-0.861s0.738-1.682,0.738-3.322H94.641z"/>
	</g>
	<g>
		<path fill="#FFFFFF" d="M59.931,77.923l-3.987-0.313c0.351-4.568,3.582-13.181,13.287-13.181c0.031,0,0.062,0,0.094,0l-0.023,4
			c-0.021,0-0.045,0-0.066,0C60.817,68.43,59.964,77.534,59.931,77.923z"/>
	</g>
	<g>
		<path fill="#FFFFFF" d="M71.571,36.856c-6.644,0-10.191-5.678-10.351-5.939l3.409-2.093c0.119,0.192,2.984,4.679,8.11,3.946
			l0.57,3.959C72.709,36.816,72.129,36.856,71.571,36.856z"/>
	</g>
	<g>
		<path fill="#FFFFFF" d="M33.303,79.192l-3.289-2.277c1.267-1.828,1.741-3.577,1.412-5.197c-0.546-2.688-3.102-4.371-3.128-4.387
			l2.139-3.381c0.164,0.104,4.018,2.586,4.909,6.971C35.901,73.65,35.213,76.433,33.303,79.192z"/>
	</g>
	<g>
		<rect x="0.75" y="74.973" fill="#FFFFFF" width="91.832" height="6"/>
	</g>
	<g>
		<path fill="#FFFFFF" d="M72.966,80.764H6.742l74.31-75.005L72.966,80.764z M21.133,74.764h46.444l5.672-52.604L21.133,74.764z"/>
	</g>
</g>
</svg>
