<?xml version="1.0" encoding="utf-8"?>
<!-- Generator: Adobe Illustrator 16.0.0, SVG Export Plug-In . SVG Version: 6.00 Build 0)  -->
<!DOCTYPE svg PUBLIC "-//W3C//DTD SVG 1.1//EN" "http://www.w3.org/Graphics/SVG/1.1/DTD/svg11.dtd">
<svg version="1.1" id="图层_1" xmlns="http://www.w3.org/2000/svg" xmlns:xlink="http://www.w3.org/1999/xlink" x="0px" y="0px"
	 width="100px" height="100px" viewBox="0 0 100 100" enable-background="new 0 0 100 100" xml:space="preserve">
<g>
	<g>
		<path fill="#FFFFFF" d="M36.985,16.314h17.912c0.102,0,0.182-0.069,0.235-0.154c0.032-0.091,0-0.203-0.054-0.275L46.116,0.976
			c-0.096-0.102-0.248-0.102-0.348,0l-8.949,14.909c-0.067,0.072-0.081,0.185-0.054,0.275
			C36.806,16.245,36.904,16.314,36.985,16.314z"/>
	</g>
	<g>
		<path fill="#FFFFFF" d="M83.742,45.562v17.912c0,0.102,0.069,0.182,0.154,0.235c0.091,0.032,0.203,0,0.275-0.054l14.909-8.963
			c0.102-0.096,0.102-0.248,0-0.348l-14.909-8.949c-0.072-0.067-0.185-0.081-0.275-0.054C83.812,45.382,83.742,45.48,83.742,45.562z
			"/>
	</g>
	<g>
		<path fill="#FFFFFF" d="M17.254,86.833h-2.25l-1.313-4.969H9.566l-1.313,4.969h-2.25l4.688-16.219h1.875L17.254,86.833z
			 M13.223,80.083l-1.5-5.719h-0.188l-1.5,5.719H13.223z"/>
	</g>
	<g>
		<path fill="#FFFFFF" d="M92.441,14.868c-0.063,2.376-0.563,4.063-1.5,5.063c-0.938,1-2.063,1.5-3.375,1.5
			c-1.5,0-2.781-0.609-3.844-1.828s-1.594-3.172-1.594-5.859c0-2.938,0.516-5.124,1.547-6.563c1.031-1.438,2.359-2.156,3.984-2.156
			c1.375,0,2.516,0.516,3.422,1.547s1.328,2.484,1.266,4.359h-2.063c0-1.374-0.219-2.405-0.656-3.094
			c-0.438-0.688-1.094-1.031-1.969-1.031c-1,0-1.797,0.516-2.391,1.547s-0.891,2.766-0.891,5.203c0,2.25,0.297,3.829,0.891,4.734
			c0.594,0.906,1.359,1.359,2.297,1.359c0.688,0,1.313-0.328,1.875-0.984s0.844-1.922,0.844-3.797H92.441z"/>
	</g>
	<g>
		<path fill="#FFFFFF" d="M53.132,79.735c-13.462,0-24.414-10.951-24.414-24.411S39.67,30.913,53.132,30.913
			c13.459,0,24.409,10.951,24.409,24.411S66.591,79.735,53.132,79.735z M53.132,34.913c-11.257,0-20.414,9.156-20.414,20.411
			s9.157,20.411,20.414,20.411c11.254,0,20.409-9.156,20.409-20.411S64.386,34.913,53.132,34.913z"/>
	</g>
	<g>
		<path fill="#FFFFFF" d="M78.348,56.165H4.262L78.348,11.83V56.165z M18.736,52.165h55.611v-33.28L18.736,52.165z"/>
	</g>
	<g>
		<path fill="#FFFFFF" d="M87.41,82.051c0,1.814-0.5,3.064-1.5,3.75c-1,0.689-2.281,1.031-3.844,1.031h-4.688V70.801h4.875
			c1.563,0,2.734,0.408,3.516,1.219c0.781,0.814,1.172,1.781,1.172,2.906s-0.266,1.955-0.797,2.484
			c-0.531,0.533-1.078,0.891-1.641,1.078c0.75,0.188,1.422,0.58,2.016,1.172C87.113,80.256,87.41,81.053,87.41,82.051z
			 M84.785,74.926c0-0.811-0.234-1.406-0.703-1.781s-1.047-0.563-1.734-0.563h-2.813v4.969h2.719c0.688,0,1.281-0.201,1.781-0.609
			C84.535,76.537,84.785,75.863,84.785,74.926z M85.16,82.051c0-0.998-0.328-1.701-0.984-2.109
			c-0.656-0.404-1.391-0.609-2.203-0.609h-2.438v5.719h2.156c1.125,0,1.984-0.217,2.578-0.656
			C84.863,83.959,85.16,83.176,85.16,82.051z"/>
	</g>
	<g>
		<rect x="42.946" y="14.433" fill="#FFFFFF" width="6" height="84.667"/>
	</g>
	<g>
		<rect x="0.823" y="51.524" fill="#FFFFFF" width="91.389" height="6"/>
	</g>
</g>
</svg>
