<?xml version="1.0" encoding="utf-8"?>
<!-- Generator: Adobe Illustrator 16.0.0, SVG Export Plug-In . SVG Version: 6.00 Build 0)  -->
<!DOCTYPE svg PUBLIC "-//W3C//DTD SVG 1.1//EN" "http://www.w3.org/Graphics/SVG/1.1/DTD/svg11.dtd">
<svg version="1.1" id="图层_1" xmlns="http://www.w3.org/2000/svg" xmlns:xlink="http://www.w3.org/1999/xlink" x="0px" y="0px"
	 width="101px" height="101px" viewBox="0 0 101 101" enable-background="new 0 0 101 101" xml:space="preserve">
<g>
	<g>
		<g>
			<path fill="#FFFFFF" d="M23.325,27.274H10.723c-1.427,0-2.14-0.394-2.14-1.189c0-0.475,0.713-0.792,2.14-0.951h12.603V11.343
				c-0.159-1.108,0.156-1.665,0.95-1.665c0.791,0,1.19,0.557,1.19,1.665v13.791h13.077c0.951,0.16,1.505,0.476,1.664,0.951
				c0,0.795-0.477,1.189-1.427,1.189H25.466v14.504c-0.16,0.795-0.559,1.188-1.19,1.188c-0.794,0.16-1.109-0.315-0.95-1.426V27.274z
				"/>
			<path fill="#FFFFFF" d="M23.998,46.997c-1.391,0-2.645-0.563-3.53-1.584c-0.93-1.072-1.313-2.454-1.143-4.112V31.274h-8.603
				c-4.847,0-6.14-3.262-6.14-5.189c0-1.29,0.555-4.351,5.694-4.926l0.445-0.025h8.603v-9.553c-0.215-2.109,0.516-3.462,1.187-4.236
				c0.932-1.074,2.268-1.666,3.764-1.666c2.5,0,5.19,1.772,5.19,5.665v9.791h9.41l0.329,0.055c3.301,0.554,4.421,2.509,4.795,3.625
				l0.207,0.619v0.652c0,3.007-2.282,5.189-5.427,5.189h-9.314v10.903l-0.079,0.391c-0.51,2.532-2.338,4.214-4.712,4.384
				C24.447,46.982,24.221,46.997,23.998,46.997z"/>
		</g>
	</g>
	<g>
		<g>
			<path fill="#FFFFFF" d="M62.713,25.134h27.82c0.951,0.16,1.505,0.476,1.665,0.951c0,0.795-0.476,1.189-1.428,1.189H62.713
				c-1.427,0-2.14-0.394-2.14-1.189C60.573,25.61,61.286,25.293,62.713,25.134z"/>
			<path fill="#FFFFFF" d="M90.771,31.274H62.713c-4.847,0-6.14-3.262-6.14-5.189c0-1.29,0.555-4.351,5.694-4.926l0.445-0.025
				h28.153l0.329,0.055c3.296,0.553,4.418,2.504,4.793,3.618l0.21,0.622v0.656C96.198,29.092,93.915,31.274,90.771,31.274z"/>
		</g>
	</g>
	<g>
		<g>
			<path fill="#FFFFFF" d="M62.594,73.013h28.059c0.951,0.319,1.504,0.795,1.664,1.427c-0.16,0.795-0.713,1.189-1.664,1.189H62.594
				c-1.27,0-1.984-0.394-2.14-1.189C60.454,73.648,61.168,73.172,62.594,73.013z M74.722,61.599
				c-0.476-0.315-0.715-0.869-0.715-1.664c0-0.476,0.239-0.951,0.715-1.427c0.475-0.475,0.95-0.712,1.426-0.712
				c0.632,0.159,1.107,0.319,1.427,0.475c0.476,0.635,0.713,1.271,0.713,1.902c-0.159,0.635-0.32,1.111-0.475,1.426
				c-0.477,0.476-1.033,0.714-1.665,0.714C75.672,62.313,75.196,62.075,74.722,61.599z M74.482,90.609
				c-0.319-0.316-0.476-0.87-0.476-1.665c0-0.476,0.156-0.951,0.476-1.427c0.316-0.476,0.869-0.713,1.665-0.713
				c0.476,0.16,0.951,0.319,1.427,0.475c0.476,0.636,0.713,1.271,0.713,1.902c0,0.476-0.237,0.951-0.713,1.427
				c-0.476,0.475-0.951,0.713-1.427,0.713C75.352,91.322,74.799,91.084,74.482,90.609z"/>
			<path fill="#FFFFFF" d="M76.147,95.322c-2.584,0-4.036-1.242-4.761-2.172c-0.916-1.063-1.38-2.476-1.38-4.206
				c0-1.284,0.388-2.514,1.153-3.655c0.612-0.92,2.086-2.485,4.987-2.485h0.653l0.621,0.208c0.466,0.156,0.932,0.313,1.397,0.465
				l1.2,0.393l0.758,1.012c1.002,1.339,1.51,2.786,1.51,4.298c0,1.081-0.327,2.696-1.883,4.254
				C78.843,94.995,77.228,95.322,76.147,95.322z M77.374,87.889l-0.939,2.869c0.387-0.105,0.964-0.403,1.378-1.025
				c0.066-0.1,0.194-0.395,0.194-0.789c-0.012-0.065-0.114-0.432-0.42-0.843C77.518,88.023,77.446,87.953,77.374,87.889z
				 M75.971,87.328c-0.669,0.046-1.113,0.342-1.224,0.452c-0.121,0.122-0.46,0.636-0.46,1.402c0,0.283,0.08,0.481,0.111,0.534
				l1.04-0.797L75.971,87.328z M76.146,87.322v1.053l0.93-0.713C76.697,87.415,76.332,87.322,76.146,87.322
				C76.146,87.322,76.146,87.322,76.146,87.322z M90.652,79.628H62.594c-3.836,0-5.648-2.284-6.065-4.422l-0.074-0.379v-0.387
				c0-0.795,0.274-4.795,5.694-5.402l0.445-0.025h28.712l0.619,0.208c3.038,1.02,3.979,3.092,4.269,4.236l0.224,0.881l-0.18,0.892
				C95.699,77.902,93.507,79.628,90.652,79.628z M76.147,66.313c-1.027,0-2.535-0.295-4.017-1.657
				c-0.926-0.738-2.124-2.184-2.124-4.721c0-1.081,0.327-2.696,1.886-4.255c1.556-1.557,3.173-1.884,4.255-1.884h0.494l0.48,0.121
				c0.901,0.227,1.623,0.475,2.205,0.759l0.869,0.424l0.58,0.774c0.988,1.32,1.511,2.807,1.511,4.3v0.494l-0.12,0.479
				c-0.227,0.904-0.476,1.627-0.762,2.212l-0.293,0.6l-0.473,0.472C79.405,65.662,77.853,66.313,76.147,66.313z M76.147,61.195
				v0.601c0.628,0,1.087-0.227,1.299-0.376l-1.138-0.556L76.147,61.195z M76.562,60.347l0.988,0.99c0.001,0,0.001-0.001,0.002-0.001
				c0.104-0.105,0.385-0.527,0.444-1.163h-1.35L76.562,60.347z M74.287,60.173c0,0.283,0.08,0.481,0.111,0.534l0.619-0.475
				l-0.121-0.059H74.287z M76.825,59.807l1.176,0.294c0.004-0.054,0.006-0.109,0.006-0.166c0-0.244-0.16-0.797-0.618-1.285
				L76.825,59.807z M76.016,58.318c-0.435,0.036-0.823,0.244-1.03,0.451l0.733,0.734L76.016,58.318z M76.147,58.313v1.052
				l1.062-0.815C76.961,58.43,76.598,58.313,76.147,58.313z"/>
		</g>
	</g>
	<g>
		<g>
			<path fill="#FFFFFF" d="M22.547,77.055l-9.272-9.75c-0.16,0-0.397-0.155-0.714-0.475c-1.271-0.952-1.427-1.82-0.476-2.616
				c0.316-0.316,1.029,0.082,2.14,1.189c0.156,0.16,0.396,0.32,0.715,0.475l9.272,9.75l9.511-9.987l0.237-0.238
				c1.268-1.427,2.296-1.742,3.092-0.951c0.315,0.636,0,1.349-0.951,2.14c-0.319,0.319-0.557,0.558-0.713,0.713l-9.75,9.75
				l9.987,9.986c1.742,1.587,2.14,2.698,1.188,3.329c-0.476,0.796-1.348,0.32-2.615-1.426L23.975,78.719l-9.273,9.987
				c-1.271,1.427-2.222,1.903-2.854,1.427c-0.636-0.631-0.161-1.665,1.427-3.091L22.547,77.055z"/>
			<path fill="#FFFFFF" d="M36.25,94.744c-2.333,0-3.938-1.646-5.092-3.183l-7.077-7.078l-6.449,6.945
				c-1.071,1.204-2.847,2.884-5.251,2.884c-1.069,0-2.086-0.34-2.94-0.984l-0.41-0.355c-0.972-0.964-1.488-2.244-1.454-3.604
				c0.057-2.282,1.632-4.028,2.884-5.174l6.598-7.106l-6.165-6.482c-0.425-0.263-0.753-0.55-0.976-0.763
				c-1.955-1.568-2.411-3.263-2.442-4.429C7.45,64.494,7.674,62.74,9.432,61.22c0.801-0.718,1.829-1.11,2.922-1.11
				c1.841,0,3.285,1.094,4.464,2.234l0.508,0.247l0.513,0.531l6.376,6.704l6.831-7.164c0.664-0.744,2.445-2.634,5.064-2.634
				c1.396,0,2.732,0.563,3.762,1.587l0.47,0.466l0.294,0.593c0.434,0.875,1.565,3.924-1.818,6.859l-7.521,7.521l7.096,7.095
				c1.366,1.256,3.107,3.2,2.911,5.756c-0.097,1.258-0.674,2.417-1.614,3.279C38.805,94.174,37.573,94.744,36.25,94.744z"/>
		</g>
	</g>
</g>
</svg>
