<?xml version="1.0" encoding="utf-8"?>
<!-- Generator: Adobe Illustrator 16.0.0, SVG Export Plug-In . SVG Version: 6.00 Build 0)  -->
<!DOCTYPE svg PUBLIC "-//W3C//DTD SVG 1.1//EN" "http://www.w3.org/Graphics/SVG/1.1/DTD/svg11.dtd">
<svg version="1.1" id="图层_1" xmlns="http://www.w3.org/2000/svg" xmlns:xlink="http://www.w3.org/1999/xlink" x="0px" y="0px"
	 width="100px" height="100px" viewBox="0 0 100 100" enable-background="new 0 0 100 100" xml:space="preserve">
<g>
	<rect x="20.509" y="0.006" fill="#7EBF40" width="59.8" height="3.93"/>
	<path fill="#7EBF40" d="M75.67,6.16v5.824c-0.813,0.717-1.386,2.283-1.386,3.115c0,1.1,1.003,1.992,2.234,1.992
		c1.234,0,2.236-0.893,2.236-1.992c0-0.832-0.572-2.398-1.386-3.115V6.16H75.67z"/>
	<path fill="#7EBF40" d="M35.406,52.221c3.706,4.992,8.353,8.186,14.685,8.186c6.363,0,11.044-3.227,14.759-8.271
		c7.004,5.008,14.014,0.813,14.014,0.813c-9.138-1.529-4.922-8.914-4.922-8.914c7.469-11.715-1.212-23.502-1.212-23.502
		l-1.919-2.193h1.017V6.16H27.628v12.178h1.236c-0.459,0.543-1.221,2.193-1.221,2.193s-8.682,11.787-1.212,23.502
		c0,0,4.213,7.385-4.923,8.914C21.509,52.947,28.438,57.094,35.406,52.221z M27.184,34.365l0.001-0.016l0.012-0.01
		C27.19,34.35,27.185,34.359,27.184,34.365z M66.571,49.467l-0.097,0.109c0.063-0.117,0.126-0.238,0.188-0.359L66.571,49.467z
		 M68.912,42.691L68.912,42.691v-0.002V42.691z M29.017,34.055c0.692-0.74,1.605-1.164,2.537-1.164c0.044,0,0.097,0,0.134,0
		l0.413,0.023v-1.275l1.509-7.316c0.928-1.225,1.817-1.977,1.817-1.977c4.362,0.16,7.386-0.371,10.805-1.131
		c-1.479,4.803-5.781,9.313-5.781,9.313c9.831-2.729,14.479-8.883,16.631-11.693c-1.287,4.953-6.895,9.73-6.895,9.73
		c6.676-1.854,10.421-5.291,13.457-8.188c2.685,4.928,3.669,12.795,3.669,12.795l0.278-0.043l1.116-0.195
		c0.19-0.029,0.365-0.043,0.547-0.043c0.942,0,1.835,0.424,2.523,1.164c0.779,0.838,1.214,1.953,1.214,3.152
		c0,1.201-0.435,2.332-1.214,3.166c-0.688,0.742-1.581,1.15-2.523,1.15c-0.072,0-0.146,0-0.232,0l-1.274-0.094l-0.201,1.072
		c-0.864,4.713-3.219,8.969-6.575,12.039c-1.657,1.494-2.595,2.369-4.503,3.451c-1.898,1.076-4.184,1.238-6.377,1.238
		c-2.17,0-4.396-0.258-6.346-1.238c-2.006-1.008-2.86-1.779-4.498-3.451c-0.975-0.994-1.966-1.986-2.788-3.123l0,0
		c-1.878-2.586-3.197-5.637-3.802-8.895l-0.169-0.941l-1.106-0.059c-1.957-0.094-3.573-2.041-3.573-4.316
		C27.809,36.008,28.231,34.893,29.017,34.055z"/>
	<path fill="#7EBF40" d="M90.405,87.037c0-0.166-0.02-0.332-0.04-0.494h0.04l-0.307-10.146c-1.46-6.771-8.229-12.6-17.914-16.166
		L50.187,78.428L28.595,60.23c-9.661,3.566-16.444,9.395-17.892,16.166l-0.297,10.146h0.038c-0.017,0.162-0.038,0.328-0.038,0.494
		c0,7.16,17.903,12.969,39.997,12.969S90.405,94.197,90.405,87.037z"/>
</g>
</svg>
