<?xml version="1.0" encoding="utf-8"?>
<!-- Generator: Adobe Illustrator 16.0.0, SVG Export Plug-In . SVG Version: 6.00 Build 0)  -->
<!DOCTYPE svg PUBLIC "-//W3C//DTD SVG 1.1//EN" "http://www.w3.org/Graphics/SVG/1.1/DTD/svg11.dtd">
<svg version="1.1" id="图层_1" xmlns="http://www.w3.org/2000/svg" xmlns:xlink="http://www.w3.org/1999/xlink" x="0px" y="0px"
	 width="100px" height="100px" viewBox="0 0 100 100" enable-background="new 0 0 100 100" xml:space="preserve">
<g>
	<g>
		<g>
			<path fill="#FFFFFF" d="M35.979,52.658h13.379V41.069h2.82v11.589h13.319v2.088H52.178v12.789h-2.82V54.746H35.979V52.658z"/>
			<polygon fill="#FFFFFF" points="54.178,69.535 47.358,69.535 47.358,56.746 33.979,56.746 33.979,50.658 47.358,50.658 
				47.358,39.069 54.178,39.069 54.178,50.658 67.497,50.658 67.497,56.746 54.178,56.746 			"/>
		</g>
	</g>
	<g>
		<g>
			<path fill="#FFFFFF" d="M80.875,21.928c-0.247,1.813-0.495,3.682-0.742,5.607c-0.247,1.927-0.485,3.875-0.713,5.846
				s-0.449,3.953-0.664,5.947s-0.41,3.962-0.586,5.904c-0.176,1.943-0.329,3.847-0.459,5.71s-0.234,3.65-0.313,5.361l0.215,0.017
				c1.028-2.197,2.136-4.135,3.32-5.812c1.185-1.676,2.39-3.081,3.613-4.214s2.438-1.988,3.643-2.565
				c1.204-0.578,2.341-0.867,3.408-0.867c0.898,0,1.692,0.145,2.383,0.434s1.289,0.674,1.797,1.155s0.931,1.037,1.27,1.665
				c0.339,0.629,0.612,1.286,0.82,1.972s0.354,1.379,0.439,2.081c0.085,0.703,0.127,1.359,0.127,1.972
				c0,1.688-0.192,3.265-0.576,4.732c-0.384,1.467-0.915,2.803-1.592,4.01c-0.677,1.206-1.478,2.279-2.402,3.22
				s-1.927,1.733-3.008,2.379s-2.22,1.136-3.418,1.47s-2.402,0.502-3.613,0.502c-0.808,0-1.618-0.08-2.432-0.238
				c-0.813-0.159-1.608-0.402-2.383-0.73c-0.774-0.329-1.507-0.751-2.197-1.266c-0.69-0.516-1.309-1.125-1.855-1.827
				c-0.456,0.997-0.918,1.813-1.387,2.447c-0.469,0.634-0.905,1.144-1.309,1.529l-1.016-0.222c0.716-1.732,1.243-3.814,1.582-6.244
				s0.599-5.18,0.781-8.25c0.065-1.313,0.146-2.81,0.244-4.485c0.098-1.677,0.198-3.444,0.303-5.302
				c0.104-1.858,0.215-3.758,0.332-5.701c0.117-1.942,0.234-3.832,0.352-5.667s0.228-3.574,0.332-5.217
				c0.104-1.642,0.202-3.098,0.293-4.366c0.013-0.272,0.11-0.507,0.293-0.705s0.41-0.357,0.684-0.477s0.583-0.206,0.928-0.263
				s0.687-0.085,1.025-0.085C79.188,21.385,80.016,21.565,80.875,21.928z M93.668,53.788c0-0.77-0.068-1.563-0.205-2.379
				c-0.137-0.815-0.352-1.555-0.645-2.217c-0.293-0.663-0.677-1.207-1.152-1.632s-1.052-0.637-1.729-0.637
				c-0.794,0-1.579,0.173-2.354,0.518c-0.774,0.346-1.523,0.811-2.246,1.394c-0.723,0.584-1.416,1.258-2.08,2.022
				s-1.286,1.566-1.865,2.404c-0.579,0.839-1.101,1.686-1.563,2.54c-0.462,0.855-0.859,1.668-1.191,2.438s-0.589,1.47-0.771,2.099
				s-0.273,1.13-0.273,1.504c0.195,0.702,0.498,1.34,0.908,1.911c0.41,0.572,0.905,1.06,1.484,1.462s1.224,0.711,1.934,0.926
				c0.71,0.216,1.462,0.323,2.256,0.323c1.302,0,2.529-0.286,3.682-0.858s2.158-1.401,3.018-2.489s1.54-2.416,2.041-3.984
				C93.417,57.563,93.668,55.782,93.668,53.788z"/>
			<path fill="#FFFFFF" d="M72.568,69.458l-2.702-0.59l0.455-1.104c0.681-1.646,1.19-3.665,1.517-6.001
				c0.333-2.39,0.593-5.139,0.773-8.171c0.064-1.306,0.146-2.805,0.243-4.484c0.098-1.676,0.199-3.443,0.303-5.3
				c0.104-1.859,0.216-3.76,0.333-5.705c0.117-1.944,0.234-3.834,0.352-5.671l0.332-5.216c0.104-1.645,0.202-3.104,0.294-4.375
				c0.021-0.479,0.214-0.941,0.555-1.311c0.275-0.3,0.619-0.541,1.02-0.715c0.346-0.151,0.738-0.263,1.165-0.333
				c1.334-0.218,2.664-0.063,4.057,0.523l0.706,0.297l-0.104,0.759c-0.248,1.81-0.494,3.676-0.742,5.6
				c-0.246,1.922-0.484,3.867-0.711,5.833c-0.228,1.968-0.448,3.948-0.663,5.939c-0.214,1.989-0.409,3.951-0.584,5.888
				c-0.175,1.936-0.328,3.833-0.458,5.689c-0.028,0.415-0.057,0.826-0.082,1.232c0.483-0.818,0.981-1.591,1.491-2.313
				c1.22-1.726,2.481-3.197,3.751-4.371c1.291-1.196,2.6-2.116,3.889-2.733c2.463-1.183,4.844-1.194,6.609-0.454
				c0.801,0.335,1.506,0.79,2.1,1.352c0.58,0.551,1.072,1.195,1.461,1.916c0.369,0.686,0.67,1.41,0.896,2.156
				c0.225,0.739,0.385,1.496,0.477,2.252c0.089,0.742,0.134,1.445,0.134,2.092c0,1.764-0.204,3.441-0.608,4.985
				c-0.404,1.541-0.972,2.97-1.688,4.246c-0.717,1.278-1.579,2.433-2.561,3.432c-0.981,0.997-2.061,1.85-3.209,2.536
				c-1.153,0.688-2.386,1.219-3.662,1.575c-2.139,0.596-4.316,0.707-6.504,0.281c-0.881-0.172-1.75-0.438-2.582-0.791
				c-0.846-0.359-1.654-0.825-2.406-1.385c-0.356-0.267-0.697-0.559-1.021-0.873c-0.27,0.484-0.543,0.914-0.818,1.285
				c-0.5,0.676-0.978,1.234-1.421,1.658L72.568,69.458z M74.733,62.477l1.013,1.301c0.49,0.63,1.05,1.182,1.665,1.64
				c0.622,0.465,1.291,0.851,1.99,1.146c0.704,0.299,1.439,0.524,2.184,0.67c0.702,0.137,1.408,0.211,2.102,0.219
				c-0.716-0.037-1.406-0.155-2.058-0.354c-0.806-0.244-1.551-0.602-2.214-1.062c-0.67-0.466-1.25-1.038-1.727-1.7
				c-0.476-0.663-0.832-1.413-1.059-2.226l-0.036-0.269c0-0.474,0.103-1.058,0.313-1.782c0.191-0.664,0.465-1.409,0.813-2.216
				c0.07-0.163,0.145-0.329,0.221-0.496l-1.585-0.122l0.044-0.969c0.078-1.719,0.184-3.514,0.314-5.385
				c0.13-1.87,0.283-3.78,0.46-5.73c0.177-1.948,0.372-3.922,0.588-5.921c0.215-1.997,0.437-3.982,0.665-5.955
				c0.229-1.975,0.467-3.927,0.715-5.858c0.211-1.646,0.422-3.25,0.633-4.813c-0.783-0.23-1.504-0.261-2.243-0.138
				c-0.265,0.043-0.497,0.108-0.69,0.193c-0.146,0.063-0.259,0.141-0.347,0.236l-0.032,0.1c-0.091,1.266-0.188,2.719-0.292,4.357
				l-0.332,5.218c-0.117,1.833-0.234,3.722-0.352,5.663c-0.117,1.942-0.228,3.84-0.331,5.697c-0.105,1.858-0.205,3.627-0.303,5.304
				c-0.098,1.672-0.18,3.166-0.244,4.476c-0.184,3.095-0.449,5.896-0.79,8.34c-0.187,1.344-0.434,2.595-0.737,3.745
				c0.322-0.503,0.646-1.109,0.967-1.811L74.733,62.477z M89.938,45.924c0.927,0,1.733,0.3,2.395,0.891
				c0.581,0.519,1.052,1.183,1.401,1.973c0.324,0.735,0.566,1.561,0.716,2.456c0.146,0.867,0.219,1.723,0.219,2.544
				c0,2.087-0.269,3.987-0.8,5.649c-0.535,1.676-1.279,3.123-2.209,4.299c-0.946,1.199-2.076,2.13-3.357,2.766
				c-0.443,0.221-0.9,0.403-1.367,0.549c0.078-0.021,0.156-0.041,0.234-0.063c1.105-0.308,2.173-0.767,3.174-1.364
				c1.002-0.599,1.946-1.347,2.808-2.222c0.858-0.872,1.612-1.885,2.243-3.009c0.633-1.127,1.137-2.396,1.496-3.773
				c0.361-1.379,0.544-2.886,0.544-4.479c0-0.567-0.04-1.19-0.12-1.853c-0.077-0.64-0.213-1.283-0.403-1.91
				c-0.188-0.619-0.438-1.221-0.744-1.789c-0.287-0.532-0.649-1.008-1.077-1.413c-0.416-0.395-0.92-0.717-1.494-0.958
				c-1.24-0.519-3.023-0.522-4.973,0.413c-1.109,0.531-2.251,1.338-3.396,2.398c-1.166,1.08-2.336,2.445-3.476,4.057
				c-0.04,0.057-0.079,0.113-0.119,0.17c0.283-0.359,0.574-0.711,0.872-1.054c0.698-0.804,1.441-1.526,2.207-2.145
				c0.787-0.636,1.617-1.15,2.467-1.529C88.077,46.127,89.007,45.924,89.938,45.924z M78.599,61.717
				c0.164,0.531,0.404,1.02,0.716,1.454c0.342,0.478,0.76,0.889,1.242,1.224c0.491,0.341,1.046,0.606,1.653,0.79
				c0.611,0.186,1.273,0.28,1.966,0.28c1.14,0,2.229-0.254,3.237-0.754c1.014-0.504,1.915-1.248,2.678-2.214
				c0.779-0.987,1.41-2.222,1.873-3.669c0.467-1.464,0.704-3.16,0.704-5.04c0-0.711-0.064-1.456-0.191-2.214
				c-0.122-0.729-0.315-1.395-0.573-1.977c-0.233-0.529-0.537-0.963-0.904-1.291c-0.291-0.261-0.629-0.382-1.062-0.382
				c-0.649,0-1.304,0.145-1.946,0.431c-0.691,0.308-1.373,0.731-2.025,1.258c-0.674,0.544-1.332,1.184-1.953,1.9
				c-0.637,0.733-1.242,1.514-1.797,2.316c-0.558,0.807-1.064,1.629-1.506,2.447c-0.446,0.825-0.834,1.619-1.152,2.358
				c-0.315,0.731-0.561,1.397-0.73,1.981C78.671,61.159,78.614,61.504,78.599,61.717z"/>
		</g>
	</g>
	<g>
		<g>
			<path fill="#FFFFFF" d="M26.352,40.169l2.32-0.428l-2.637,7.738c-1.055,3.079-2.051,6.627-2.988,10.643
				c-0.516,2.184-0.773,3.59-0.773,4.221c0,0.633,0.293,0.949,0.879,0.949c0.375,0,0.972-0.215,1.793-0.643
				c1.453-0.754,2.848-1.691,4.184-2.814l1.125,1.193c-2.672,2.121-4.383,3.405-5.133,3.854c-1.5,0.896-2.93,1.559-4.289,1.988
				c-0.891,0.285-1.758,0.428-2.602,0.428c-0.61,0-1.067-0.123-1.371-0.367c-0.305-0.244-0.457-0.602-0.457-1.07
				c0-0.307,0.093-0.725,0.281-1.254l1.406-4.159c-2.016,2.1-4.418,3.903-7.207,5.413c-1.711,0.938-3.282,1.406-4.711,1.406
				c-1.359,0-2.403-0.418-3.129-1.254c-0.984-1.121-1.477-2.589-1.477-4.403c0-2.162,0.662-4.568,1.986-7.219
				c1.324-2.65,3.099-5.057,5.326-7.218c2.227-2.161,4.57-3.752,7.031-4.771c1.898-0.774,4.336-1.162,7.313-1.162
				c0.75,0,1.512,0.041,2.285,0.122L26.352,40.169z M21.992,44.849c-1.266-0.224-2.333-0.336-3.199-0.336
				c-2.109,0-3.95,0.505-5.52,1.514c-1.57,1.01-3.029,2.824-4.377,5.444c-1.348,2.621-2.021,5.236-2.021,7.846
				c0,1.387,0.269,2.387,0.809,2.998c0.539,0.611,1.242,0.918,2.109,0.918c1.617,0,3.352-0.76,5.203-2.279
				c1.851-1.52,3.211-3.705,4.078-6.561L21.992,44.849z"/>
			<path fill="#FFFFFF" d="M18.23,68.3c-0.841,0-1.514-0.199-1.999-0.589c-0.377-0.302-0.83-0.87-0.83-1.849
				c0-0.426,0.111-0.945,0.339-1.588l0.173-0.514c-1.393,1.097-2.916,2.094-4.556,2.98c-1.848,1.014-3.595,1.527-5.187,1.527
				c-1.656,0-2.963-0.537-3.884-1.598c-1.141-1.3-1.722-3.003-1.722-5.06c0-2.309,0.704-4.887,2.092-7.666
				c1.368-2.74,3.227-5.259,5.524-7.489c2.308-2.24,4.779-3.915,7.345-4.978c2.016-0.822,4.604-1.238,7.695-1.238
				c0.589,0,1.193,0.024,1.802,0.073l0.745-1.054l4.398-0.811l-3.187,9.354c-1.04,3.036-2.036,6.584-2.961,10.548
				c-0.604,2.556-0.73,3.541-0.746,3.917c0.192-0.042,0.555-0.163,1.208-0.504c1.384-0.719,2.73-1.625,4.002-2.693l0.723-0.607
				l2.52,2.674l-0.853,0.676c-2.73,2.168-4.444,3.452-5.241,3.929c-1.557,0.932-3.071,1.633-4.501,2.084
				C20.151,68.14,19.173,68.3,18.23,68.3z M20.473,56.523l-2.842,8.405c-0.207,0.583-0.229,0.846-0.229,0.934
				c0,0.224,0.058,0.27,0.083,0.289c0.044,0.036,0.224,0.148,0.746,0.148c0.736,0,1.508-0.129,2.297-0.381
				c1.286-0.405,2.657-1.042,4.081-1.894c0.124-0.074,0.298-0.188,0.543-0.357c-0.866,0.431-1.489,0.624-1.999,0.624
				c-1.142,0-1.879-0.765-1.879-1.948c0-0.456,0.083-1.414,0.8-4.45c0.939-4.026,1.954-7.64,3.015-10.738l2.085-6.121l-0.241,0.044
				l-0.947,1.339l-0.583-0.061c-0.739-0.078-1.473-0.117-2.181-0.117c-2.832,0-5.165,0.366-6.935,1.088
				c-0.828,0.343-1.646,0.758-2.454,1.244c1.473-0.704,3.135-1.059,4.959-1.059c0.919,0,2.054,0.118,3.373,0.351l1.113,0.197
				L20.03,54.685c-0.512,1.687-1.198,3.169-2.049,4.434L20.473,56.523z M11.164,46.468c-0.537,0.442-1.067,0.917-1.589,1.424
				c-2.135,2.072-3.86,4.409-5.128,6.947c-1.248,2.499-1.881,4.777-1.881,6.772c0,1.578,0.402,2.803,1.228,3.744
				c0.535,0.616,1.312,0.913,2.377,0.913c1.252,0,2.675-0.432,4.23-1.283c0.854-0.463,1.675-0.956,2.458-1.479
				c-2.265,1.04-4.577,1.002-5.927-0.532c-0.712-0.807-1.058-2.003-1.058-3.658c0-2.76,0.717-5.553,2.132-8.303
				C8.985,49.112,10.042,47.591,11.164,46.468z M18.793,45.513c-1.905,0-3.58,0.456-4.979,1.355
				c-1.413,0.909-2.769,2.611-4.028,5.061c-1.268,2.464-1.911,4.95-1.911,7.388c0,1.408,0.304,2.047,0.558,2.336
				c0.349,0.396,0.78,0.58,1.36,0.58c1.372,0,2.909-0.691,4.569-2.053c1.688-1.385,2.951-3.43,3.755-6.078l2.582-8.442
				C19.972,45.562,19.334,45.513,18.793,45.513z"/>
		</g>
	</g>
</g>
</svg>
