<?xml version="1.0" encoding="utf-8"?>
<!-- Generator: Adobe Illustrator 16.0.0, SVG Export Plug-In . SVG Version: 6.00 Build 0)  -->
<!DOCTYPE svg PUBLIC "-//W3C//DTD SVG 1.1//EN" "http://www.w3.org/Graphics/SVG/1.1/DTD/svg11.dtd">
<svg version="1.1" id="图层_1" xmlns="http://www.w3.org/2000/svg" xmlns:xlink="http://www.w3.org/1999/xlink" x="0px" y="0px"
	 width="101px" height="101px" viewBox="0 0 101 101" enable-background="new 0 0 101 101" xml:space="preserve">
<g>
	<g>
		<path fill="#FFFFFF" d="M37.495,16.815h17.912c0.102,0,0.182-0.069,0.235-0.154c0.032-0.091,0-0.203-0.054-0.275L46.626,1.476
			c-0.096-0.102-0.248-0.102-0.348,0l-8.949,14.909c-0.067,0.072-0.081,0.185-0.054,0.275
			C37.315,16.746,37.414,16.815,37.495,16.815z"/>
	</g>
	<g>
		<path fill="#FFFFFF" d="M84.252,46.062v17.912c0,0.102,0.069,0.182,0.154,0.235c0.091,0.032,0.203,0,0.275-0.054l14.909-8.963
			c0.102-0.096,0.102-0.248,0-0.348l-14.909-8.949c-0.072-0.067-0.185-0.081-0.275-0.054C84.321,45.882,84.252,45.981,84.252,46.062
			z"/>
	</g>
	<g>
		<path fill="#FFFFFF" d="M17.763,87.333h-2.25L14.2,82.365h-4.125l-1.313,4.969h-2.25L11.2,71.115h1.875L17.763,87.333z
			 M13.731,80.583l-1.5-5.719h-0.188l-1.5,5.719H13.731z"/>
	</g>
	<g>
		<path fill="#FFFFFF" d="M92.952,15.369c-0.064,2.376-0.563,4.063-1.5,5.063c-0.938,1-2.063,1.5-3.375,1.5
			c-1.5,0-2.783-0.609-3.844-1.828c-1.064-1.219-1.594-3.172-1.594-5.859c0-2.938,0.516-5.124,1.547-6.563
			c1.031-1.438,2.357-2.156,3.984-2.156c1.373,0,2.514,0.516,3.422,1.547c0.904,1.031,1.326,2.484,1.266,4.359h-2.063
			c0-1.374-0.221-2.405-0.656-3.094C89.7,7.65,89.044,7.306,88.171,7.306c-1.002,0-1.799,0.516-2.391,1.547
			c-0.596,1.031-0.891,2.766-0.891,5.203c0,2.25,0.295,3.829,0.891,4.734c0.592,0.906,1.359,1.359,2.297,1.359
			c0.686,0,1.313-0.328,1.875-0.984s0.844-1.922,0.844-3.797H92.952z"/>
	</g>
	<g>
		<path fill="#FFFFFF" d="M53.642,80.236c-13.462,0-24.414-10.951-24.414-24.411S40.18,31.414,53.642,31.414
			c13.459,0,24.409,10.951,24.409,24.411S67.101,80.236,53.642,80.236z M53.642,35.414c-11.257,0-20.414,9.156-20.414,20.411
			s9.157,20.411,20.414,20.411c11.254,0,20.409-9.156,20.409-20.411S64.896,35.414,53.642,35.414z"/>
	</g>
	<g>
		<path fill="#FFFFFF" d="M78.857,56.666H4.771L78.857,12.33V56.666z M19.246,52.666h55.611v-33.28L19.246,52.666z"/>
	</g>
	<g>
		<path fill="#FFFFFF" d="M87.921,82.551c0,1.814-0.502,3.064-1.5,3.75c-1.002,0.689-2.283,1.031-3.844,1.031H77.89V71.302h4.875
			c1.561,0,2.732,0.407,3.516,1.219c0.779,0.813,1.172,1.781,1.172,2.906c0,1.125-0.268,1.955-0.797,2.484
			c-0.533,0.533-1.078,0.891-1.641,1.078c0.75,0.188,1.42,0.58,2.016,1.172C87.622,80.756,87.921,81.553,87.921,82.551z
			 M85.296,75.427c0-0.812-0.234-1.406-0.703-1.781s-1.049-0.563-1.734-0.563h-2.813v4.968h2.719c0.686,0,1.279-0.201,1.781-0.609
			C85.044,77.038,85.296,76.364,85.296,75.427z M85.671,82.551c0-0.998-0.328-1.701-0.984-2.109
			c-0.656-0.404-1.393-0.609-2.203-0.609h-2.438v5.719h2.156c1.125,0,1.982-0.217,2.578-0.656
			C85.372,84.459,85.671,83.676,85.671,82.551z"/>
	</g>
	<g>
		<rect x="43.456" y="14.933" fill="#FFFFFF" width="6" height="84.667"/>
	</g>
	<g>
		<rect x="1.333" y="52.025" fill="#FFFFFF" width="91.389" height="6"/>
	</g>
</g>
</svg>
