<?xml version="1.0" encoding="utf-8"?>
<!-- Generator: Adobe Illustrator 16.0.0, SVG Export Plug-In . SVG Version: 6.00 Build 0)  -->
<!DOCTYPE svg PUBLIC "-//W3C//DTD SVG 1.1//EN" "http://www.w3.org/Graphics/SVG/1.1/DTD/svg11.dtd">
<svg version="1.1" id="图层_1" xmlns="http://www.w3.org/2000/svg" xmlns:xlink="http://www.w3.org/1999/xlink" x="0px" y="0px"
	 width="100px" height="100px" viewBox="0 0 100 100" enable-background="new 0 0 100 100" xml:space="preserve">
<path fill="#FFFFFF" d="M87,0.016H12.998C8.598,0.016,5,3.488,5,7.732v84.566c0,4.244,3.598,7.717,7.998,7.717H87
	c4.402,0,8-3.473,8-7.717V7.732C95,3.488,91.402,0.016,87,0.016z M46.332,17.287h26.809v12.14H46.332V17.287z M38.207,81.768
	l-4.762,4.762l-5.094-5.094l-5.094,5.094l-4.762-4.762l5.094-5.094l-5.094-5.094l4.762-4.762l5.094,5.094l5.094-5.094l4.762,4.762
	l-5.094,5.094L38.207,81.768z M38.207,55.109l-4.762,4.762l-5.094-5.094l-5.094,5.094l-4.762-4.762l5.094-5.094l-5.094-5.094
	l4.762-4.762l5.094,5.094l5.094-5.094l4.762,4.762l-5.094,5.094L38.207,55.109z M38.207,28.451l-4.762,4.762l-5.094-5.094
	l-5.094,5.094l-4.762-4.762l5.094-5.094l-5.094-5.094l4.762-4.762l5.094,5.094l5.094-5.094l4.762,4.762l-5.094,5.094L38.207,28.451z
	 M82.857,82.742H46.332V70.604h36.525V82.742z M82.857,56.085H46.332V43.946h36.525V56.085z"/>
</svg>
