<?xml version="1.0" encoding="utf-8"?>
<!-- Generator: Adobe Illustrator 16.0.0, SVG Export Plug-In . SVG Version: 6.00 Build 0)  -->
<!DOCTYPE svg PUBLIC "-//W3C//DTD SVG 1.1//EN" "http://www.w3.org/Graphics/SVG/1.1/DTD/svg11.dtd">
<svg version="1.1" id="图层_1" xmlns="http://www.w3.org/2000/svg" xmlns:xlink="http://www.w3.org/1999/xlink" x="0px" y="0px"
	 width="100px" height="100px" viewBox="0 0 100 100" enable-background="new 0 0 100 100" xml:space="preserve">
<g>
	<path fill="#FFFFFF" d="M80.739,6.694l4.745,3.455L62.428,39.966L30.891,23.428c-0.553-0.373-1.278-0.538-1.995-0.463
		c-0.726,0.078-1.361,0.393-1.767,0.871L10.183,39.559c-0.767,0.914-5.837,4.044-2.369,7.297c1.565,1.534,3.753-0.402,4.235-0.979
		l17.267-16.113L60.79,46.323c0.587,0.402,1.363,0.563,2.134,0.446c0.751-0.113,1.403-0.484,1.758-1.022l24.822-33.124l3.883,2.664
		L92.336,3.446L80.739,6.694z"/>
	<polygon fill="#FFFFFF" points="25.219,96.552 10.15,96.552 10.15,55.45 25.219,41.326 	"/>
	<polygon fill="#FFFFFF" points="88.148,96.552 67.897,96.552 67.897,53.44 88.148,24.797 	"/>
	<polygon fill="#FFFFFF" points="31.181,37.841 31.181,96.552 62.244,96.552 62.244,53.592 	"/>
</g>
</svg>
