<?xml version="1.0" encoding="utf-8"?>
<!-- Generator: Adobe Illustrator 16.0.0, SVG Export Plug-In . SVG Version: 6.00 Build 0)  -->
<!DOCTYPE svg PUBLIC "-//W3C//DTD SVG 1.1//EN" "http://www.w3.org/Graphics/SVG/1.1/DTD/svg11.dtd">
<svg version="1.1" id="图层_1" xmlns="http://www.w3.org/2000/svg" xmlns:xlink="http://www.w3.org/1999/xlink" x="0px" y="0px"
	 width="101px" height="101px" viewBox="0 0 101 101" enable-background="new 0 0 101 101" xml:space="preserve">
<g>
	<g>
		<rect x="5.665" y="10.108" fill="#FFFFFF" width="6" height="40.602"/>
	</g>
	<g>
		<rect x="15.781" y="10.108" fill="#FFFFFF" width="3" height="24.511"/>
	</g>
	<g>
		<rect x="24.393" y="10.108" fill="#FFFFFF" width="3" height="24.511"/>
	</g>
	<g>
		<rect x="33.014" y="10.108" fill="#FFFFFF" width="3" height="24.511"/>
	</g>
	<g>
		<rect x="41.624" y="10.108" fill="#FFFFFF" width="3" height="24.511"/>
	</g>
	<g>
		<rect x="49.741" y="10.108" fill="#FFFFFF" width="4" height="32.922"/>
	</g>
	<g>
		<rect x="58.858" y="10.108" fill="#FFFFFF" width="3" height="24.511"/>
	</g>
	<g>
		<rect x="67.479" y="10.108" fill="#FFFFFF" width="3" height="24.511"/>
	</g>
	<g>
		<rect x="76.086" y="10.108" fill="#FFFFFF" width="3" height="24.511"/>
	</g>
	<g>
		<rect x="84.702" y="10.108" fill="#FFFFFF" width="3" height="24.511"/>
	</g>
	<g>
		<rect x="91.817" y="10.108" fill="#FFFFFF" width="6" height="40.602"/>
	</g>
	<g>
		<path fill="#FFFFFF" stroke="#FFFFFF" stroke-width="3" stroke-miterlimit="10" d="M3.137,77.068c0-8.81,3.33-13.967,8.917-13.967
			c5.694,0,8.56,5.515,8.56,13.68c0,9.132-3.295,14.11-8.846,14.11C6.145,90.892,3.137,85.341,3.137,77.068z M16.423,76.925
			c0-6.411-1.36-10.529-4.513-10.529c-2.722,0-4.584,3.796-4.584,10.529c0,6.697,1.647,10.636,4.513,10.636
			C15.349,87.562,16.423,82.512,16.423,76.925z"/>
	</g>
	<g>
		<path fill="#FFFFFF" stroke="#FFFFFF" stroke-width="3" stroke-miterlimit="10" d="M93.257,90.498v-23.17h-0.072l-4.548,2.507
			l-0.931-3.044l6.088-3.259h3.51v26.967H93.257z"/>
	</g>
</g>
</svg>
