<?xml version="1.0" encoding="utf-8"?>
<!-- Generator: Adobe Illustrator 16.0.0, SVG Export Plug-In . SVG Version: 6.00 Build 0)  -->
<!DOCTYPE svg PUBLIC "-//W3C//DTD SVG 1.1//EN" "http://www.w3.org/Graphics/SVG/1.1/DTD/svg11.dtd">
<svg version="1.1" id="图层_1" xmlns="http://www.w3.org/2000/svg" xmlns:xlink="http://www.w3.org/1999/xlink" x="0px" y="0px"
	 width="101px" height="101.002px" viewBox="0 0 101 101.002" enable-background="new 0 0 101 101.002" xml:space="preserve">
<g>
	<g>
		<path fill="#FFFFFF" d="M50.5,98.623c-26.534,0-48.12-21.586-48.12-48.12c0-26.536,21.586-48.124,48.12-48.124
			c26.533,0,48.12,21.588,48.12,48.124C98.62,77.037,77.033,98.623,50.5,98.623z M50.5,4.379c-25.431,0-46.12,20.691-46.12,46.124
			c0,25.431,20.689,46.12,46.12,46.12s46.12-20.689,46.12-46.12C96.62,25.07,75.931,4.379,50.5,4.379z"/>
	</g>
	<g>
		<path fill="#FFFFFF" d="M10.53,25.552L50.5,50.503l2.291-47.067C52.791,3.436,25.763,2.426,10.53,25.552z"/>
	</g>
	<g>
		<path fill="#FFFFFF" d="M6.729,67.954L50.5,50.503l37.156,28.96c0,0-19.777,26.399-49.418,16.539
			C8.592,86.142,6.729,67.954,6.729,67.954z"/>
	</g>
</g>
</svg>
