<?xml version="1.0" encoding="utf-8"?>
<!-- Generator: Adobe Illustrator 16.0.0, SVG Export Plug-In . SVG Version: 6.00 Build 0)  -->
<!DOCTYPE svg PUBLIC "-//W3C//DTD SVG 1.1//EN" "http://www.w3.org/Graphics/SVG/1.1/DTD/svg11.dtd">
<svg version="1.1" id="图层_1" xmlns="http://www.w3.org/2000/svg" xmlns:xlink="http://www.w3.org/1999/xlink" x="0px" y="0px"
	 width="101px" height="101.002px" viewBox="0 0 101 101.002" enable-background="new 0 0 101 101.002" xml:space="preserve">
<g>
	<rect x="33.599" y="59.074" fill="#FFFFFF" width="18.145" height="30.827"/>
	<rect x="57.059" y="39.782" fill="#FFFFFF" width="18.145" height="50.119"/>
	<rect x="79.056" y="15.739" fill="#FFFFFF" width="18.144" height="74.962"/>
	<rect x="13.97" y="32.53" fill="#FFFFFF" width="46.109" height="4.494"/>
	<rect x="15.624" y="10.301" fill="#FFFFFF" width="67.864" height="4.492"/>
	<rect x="13.97" y="55.469" fill="#FFFFFF" width="16.082" height="4.018"/>
	<rect x="3.801" y="85.5" fill="#FFFFFF" width="18.445" height="4.251"/>
	<rect x="3.801" y="63.032" fill="#FFFFFF" width="18.445" height="4.256"/>
	<rect x="3.801" y="40.565" fill="#FFFFFF" width="18.445" height="4.264"/>
	<rect x="3.801" y="18.106" fill="#FFFFFF" width="18.445" height="4.259"/>
	<rect x="14.915" y="78.169" fill="#FFFFFF" width="7.806" height="3.543"/>
	<rect x="14.915" y="70.597" fill="#FFFFFF" width="7.806" height="3.551"/>
	<rect x="14.915" y="48.847" fill="#FFFFFF" width="7.806" height="3.547"/>
	<rect x="14.915" y="25.908" fill="#FFFFFF" width="7.806" height="3.55"/>
</g>
</svg>
