<?xml version="1.0" encoding="utf-8"?>
<!-- Generator: Adobe Illustrator 16.0.0, SVG Export Plug-In . SVG Version: 6.00 Build 0)  -->
<!DOCTYPE svg PUBLIC "-//W3C//DTD SVG 1.1//EN" "http://www.w3.org/Graphics/SVG/1.1/DTD/svg11.dtd">
<svg version="1.1" id="图层_1" xmlns="http://www.w3.org/2000/svg" xmlns:xlink="http://www.w3.org/1999/xlink" x="0px" y="0px"
	 width="101px" height="101px" viewBox="0 0 101 101" enable-background="new 0 0 101 101" xml:space="preserve">
<g>
	<g>
		<g>
			<path fill="#FFFFFF" d="M27.763,14.162l1.583-0.299l-1.795,5.277c-0.72,2.107-1.397,4.533-2.041,7.272
				c-0.348,1.491-0.53,2.455-0.53,2.882c0,0.433,0.204,0.649,0.605,0.649c0.248,0,0.661-0.145,1.222-0.444
				c0.994-0.508,1.947-1.154,2.857-1.913l0.769,0.812c-1.824,1.445-2.997,2.33-3.506,2.632c-1.027,0.612-2.006,1.066-2.929,1.358
				c-0.613,0.194-1.199,0.287-1.773,0.287c-0.424,0-0.729-0.075-0.94-0.251c-0.204-0.17-0.309-0.408-0.309-0.729
				c0-0.205,0.059-0.492,0.192-0.856l0.961-2.834c-1.379,1.43-3.017,2.658-4.927,3.69c-1.161,0.638-2.237,0.968-3.216,0.968
				c-0.92,0-1.645-0.293-2.133-0.864c-0.672-0.762-1.008-1.768-1.008-3.002c0-1.478,0.45-3.121,1.355-4.93
				c0.902-1.817,2.112-3.454,3.637-4.929c1.518-1.479,3.12-2.561,4.801-3.258c1.296-0.525,2.956-0.793,4.995-0.793
				c0.506,0,1.028,0.022,1.555,0.077L27.763,14.162z M24.785,17.354c-0.862-0.158-1.593-0.237-2.176-0.237
				c-1.441,0-2.702,0.353-3.774,1.04c-1.069,0.684-2.063,1.928-2.983,3.718c-0.925,1.792-1.385,3.58-1.385,5.356
				c0,0.943,0.182,1.628,0.557,2.046c0.366,0.419,0.844,0.631,1.441,0.631c1.102,0,2.283-0.521,3.55-1.562
				c1.26-1.032,2.193-2.528,2.784-4.478L24.785,17.354z"/>
			<path fill="#FFFFFF" d="M22.225,33.176c-0.56,0-0.96-0.116-1.261-0.367c-0.223-0.186-0.488-0.529-0.488-1.112
				c0-0.279,0.075-0.626,0.223-1.029l0.321-0.946c-1.074,0.9-2.271,1.709-3.58,2.415c-2.496,1.371-4.811,1.341-5.966-0.011
				c-0.747-0.847-1.128-1.968-1.128-3.327c0-1.553,0.474-3.286,1.408-5.153c0.919-1.852,2.177-3.556,3.736-5.064
				c1.546-1.507,3.214-2.638,4.957-3.36c1.361-0.552,3.105-0.831,5.187-0.831c0.451,0,0.893,0.018,1.314,0.053l0.524-0.733
				l2.622-0.495l-2.07,6.089c-0.702,2.055-1.384,4.485-2.028,7.226c-0.343,1.472-0.517,2.402-0.517,2.768
				c0,0.094,0.016,0.141,0.021,0.15c0.128-0.001,0.385-0.02,1.07-0.386c0.938-0.48,1.869-1.104,2.772-1.856l0.36-0.301l1.467,1.549
				l-0.428,0.339c-1.91,1.514-3.042,2.362-3.562,2.67c-1.057,0.63-2.077,1.104-3.033,1.405C23.49,33.074,22.86,33.176,22.225,33.176
				z M23.319,26.051L21.642,31c-0.145,0.396-0.166,0.605-0.166,0.696c0,0.209,0.065,0.291,0.129,0.345
				c0.107,0.089,0.316,0.135,0.62,0.135c0.531,0,1.063-0.086,1.622-0.264c0.883-0.279,1.833-0.721,2.824-1.312
				c0.437-0.259,1.427-0.998,3.022-2.256l-0.073-0.077c-0.847,0.669-1.715,1.232-2.586,1.678c-0.625,0.334-1.102,0.499-1.449,0.499
				c-0.682,0-1.105-0.44-1.105-1.149c0-0.46,0.168-1.384,0.543-2.995c0.651-2.772,1.343-5.235,2.055-7.32l1.52-4.466l-0.544,0.103
				l-0.627,0.877l-0.289-0.03c-0.476-0.049-0.981-0.074-1.503-0.074c-1.952,0-3.569,0.255-4.808,0.756
				c-1.621,0.673-3.183,1.734-4.64,3.153c-1.479,1.431-2.669,3.043-3.537,4.793c-0.865,1.728-1.304,3.312-1.304,4.707
				c0,1.108,0.297,2.007,0.883,2.671c0.845,0.992,2.677,0.918,4.733-0.211c1.853-1.001,3.469-2.211,4.807-3.599L23.319,26.051z
				 M16.465,30.407c-0.741,0-1.353-0.27-1.817-0.802c-0.457-0.509-0.681-1.287-0.681-2.375c0-1.854,0.484-3.733,1.44-5.586
				c0.96-1.868,2.022-3.184,3.158-3.909c1.158-0.742,2.519-1.119,4.044-1.119c0.615,0,1.378,0.083,2.266,0.245l0.552,0.102
				l-2.149,7.051c-0.617,2.035-1.608,3.623-2.946,4.719C18.979,29.844,17.679,30.407,16.465,30.407z M22.609,17.616
				c-1.331,0-2.51,0.323-3.505,0.961c-0.985,0.63-1.93,1.815-2.809,3.525c-0.882,1.71-1.329,3.435-1.329,5.128
				c0,0.819,0.145,1.395,0.429,1.712c0.278,0.318,0.617,0.465,1.069,0.465c0.976,0,2.063-0.487,3.232-1.448
				c1.183-0.969,2.064-2.394,2.623-4.236l1.82-5.971C23.55,17.662,23.036,17.616,22.609,17.616z"/>
		</g>
		<g>
			<path fill="#FFFFFF" d="M43.729,18.646v-8.04h2.663v8.04h9.295v2.319h-9.295v8.164h-2.663v-8.164H34.44v-2.319H43.729z"/>
			<path fill="#FFFFFF" d="M46.892,29.629h-3.663v-8.164H33.94v-3.319h9.288v-8.04h3.663v8.04h9.295v3.319h-9.295V29.629z
				 M44.229,28.629h1.663v-8.164h9.295v-1.319h-9.295v-8.04h-1.663v8.04H34.94v1.319h9.288V28.629z"/>
		</g>
		<g>
			<path fill="#FFFFFF" d="M64.902,18.164c1.293-1.235,2.569-2.142,3.833-2.722c1.244-0.576,2.356-0.861,3.318-0.861
				c1.115,0,2.016,0.385,2.688,1.163c0.671,0.783,1.008,1.957,1.008,3.53c0,2.282-0.612,4.516-1.852,6.704
				c-1.229,2.18-2.756,3.851-4.571,4.981c-1.814,1.15-3.587,1.716-5.32,1.716c-1.468,0-2.647-0.37-3.522-1.125
				c-0.886-0.754-1.319-1.722-1.319-2.924c0-0.963,0.214-2.292,0.649-4.007l2.829-11.053c0.684-2.697,1.354-4.763,1.998-6.409
				c0.638-1.628,1.463-2.838,3.15-3.684c1.696-0.844,1.083,2.163,0.587,2.918C68,6.972,67.505,8.456,66.857,10.839L64.902,18.164z
				 M69.627,16.894c-0.781,0-1.711,0.408-2.795,1.232c-1.076,0.813-2.104,2.276-3.065,4.356c-0.956,2.074-1.438,4.118-1.438,6.127
				c0,0.747,0.278,1.38,0.836,1.886c0.544,0.507,1.189,0.763,1.928,0.763c1.776,0,3.359-1.22,4.757-3.664
				c1.388-2.444,2.079-4.871,2.079-7.296c0-1.102-0.256-2.002-0.786-2.702C70.765,17.133,70.269,16.894,69.627,16.894z"/>
			<path fill="#FFFFFF" d="M64.007,33.176c-1.596,0-2.891-0.419-3.849-1.246c-0.99-0.843-1.493-1.954-1.493-3.303
				c0-1.018,0.218-2.368,0.665-4.13l2.829-11.054c0.634-2.502,1.294-4.618,2.017-6.467c0.778-1.987,1.762-3.132,3.393-3.949
				c0.735-0.364,1.343-0.213,1.643,0.344c0.491,0.911-0.047,2.736-0.414,3.296c-0.331,0.506-0.808,1.914-1.457,4.303l-1.53,5.733
				c0.911-0.729,1.82-1.304,2.717-1.715c2.885-1.334,5.2-1.186,6.594,0.429c0.75,0.876,1.13,2.173,1.13,3.857
				c0,2.366-0.645,4.705-1.916,6.95c-1.273,2.257-2.868,3.992-4.742,5.16C67.718,32.572,65.838,33.176,64.007,33.176z M68.313,3.82
				c-0.033,0.006-0.125,0.016-0.299,0.102c-1.619,0.813-2.334,1.954-2.907,3.419c-0.708,1.81-1.355,3.887-1.979,6.35l-2.829,11.054
				c-0.421,1.655-0.634,2.962-0.634,3.883c0,1.057,0.374,1.889,1.144,2.543c0.774,0.668,1.85,1.006,3.198,1.006
				c1.639,0,3.338-0.551,5.053-1.638c1.733-1.08,3.214-2.696,4.403-4.806c1.186-2.094,1.787-4.267,1.787-6.458
				c0-1.439-0.299-2.518-0.888-3.205c-1.1-1.271-2.972-1.306-5.417-0.173c-1.208,0.555-2.451,1.438-3.697,2.629l-1.288,1.23
				l2.414-9.046c0.697-2.563,1.186-3.979,1.587-4.591C68.319,5.573,68.553,4.049,68.313,3.82z M65.093,31.758
				c-0.866,0-1.63-0.302-2.269-0.896c-0.658-0.598-0.995-1.356-0.995-2.252c0-2.069,0.499-4.201,1.483-6.336
				c0.995-2.155,2.078-3.685,3.218-4.546c2.202-1.676,3.965-1.715,5-0.448c0.6,0.792,0.898,1.803,0.898,3.019
				c0,2.499-0.722,5.036-2.145,7.543C68.798,30.44,67.052,31.758,65.093,31.758z M69.627,17.394c-0.667,0-1.506,0.38-2.492,1.131
				c-1.009,0.762-1.988,2.164-2.914,4.168c-0.924,2.003-1.392,3.994-1.392,5.917c0,0.609,0.22,1.105,0.672,1.516
				c0.459,0.427,0.978,0.633,1.592,0.633c1.574,0,3.028-1.148,4.323-3.412c1.335-2.353,2.013-4.725,2.013-7.048
				c0-1.007-0.224-1.792-0.685-2.4C70.467,17.559,70.108,17.394,69.627,17.394z"/>
		</g>
		<g>
			<path fill="#FFFFFF" d="M82.325,15.38c1.328-0.654,2.448-0.968,3.374-0.968c0.513,0,0.903,0.09,1.18,0.293
				c0.267,0.184,0.402,0.451,0.402,0.79c0,0.403-0.518,2.119-1.558,5.139c-1.686,4.943-2.531,7.914-2.531,8.93
				c0,0.201,0.058,0.37,0.161,0.497c0.116,0.133,0.231,0.202,0.366,0.202c0.507,0,1.075,1.139,0.064,1.646
				c-1.003,0.506-1.83,0.755-2.461,0.755c-0.567,0-1.012-0.159-1.34-0.47c-0.326-0.304-0.488-0.729-0.488-1.263
				c0-1.746,1.202-6.001,3.601-12.768c0.108-0.318,0.161-0.605,0.161-0.854c0-0.279-0.144-0.417-0.431-0.417
				c-0.317,0-0.684,0.116-1.08,0.335C81.328,17.452,81.012,16.022,82.325,15.38z M88.446,5.53c0.496,0,0.897,0.15,1.225,0.427
				c0.319,0.286,0.482,0.649,0.482,1.103c0,0.606-0.249,1.146-0.73,1.617C88.936,9.141,88.388,9.38,87.77,9.38
				c-0.478,0-0.873-0.153-1.196-0.442c-0.32-0.295-0.481-0.676-0.481-1.148c0-0.631,0.232-1.156,0.699-1.601
				C87.252,5.755,87.809,5.53,88.446,5.53z"/>
			<path fill="#FFFFFF" d="M81.323,33.164c-0.691,0-1.258-0.204-1.684-0.606c-0.427-0.397-0.645-0.945-0.645-1.626
				c0-1.813,1.188-6.045,3.629-12.935c0.074-0.218,0.118-0.42,0.13-0.597c-0.233,0.021-0.487,0.112-0.767,0.266l-0.112,0.063
				l-0.217,0.023c-0.352,0-0.642-0.272-0.739-0.693c-0.154-0.67,0.15-1.621,1.187-2.128c2.233-1.101,4.145-1.308,5.069-0.629
				c0.387,0.267,0.606,0.693,0.606,1.193c0,0.21,0,0.7-1.585,5.302c-1.661,4.872-2.504,7.822-2.504,8.767
				c0,0.056,0.009,0.132,0.049,0.181c0.461,0.019,0.928,0.452,1.064,1.027c0.121,0.512-0.024,1.196-0.797,1.585
				C82.945,32.892,82.042,33.164,81.323,33.164z M82.826,16.394c0.565,0,0.931,0.36,0.931,0.917c0,0.308-0.063,0.648-0.188,1.015
				c-2.372,6.692-3.574,10.932-3.574,12.606c0,0.397,0.107,0.69,0.329,0.896c0.545,0.519,1.612,0.455,3.234-0.365
				c0.29-0.146,0.286-0.315,0.285-0.371c-0.003-0.173-0.117-0.313-0.165-0.336c-0.243,0.029-0.485-0.119-0.701-0.366
				c-0.19-0.232-0.285-0.514-0.285-0.826c0-0.682,0.266-2.366,2.558-9.091c1.417-4.113,1.53-4.85,1.531-4.978
				c0-0.176-0.056-0.288-0.186-0.378c-0.189-0.14-0.487-0.205-0.896-0.205c-0.858,0-1.919,0.309-3.153,0.916
				c-0.401,0.196-0.56,0.462-0.622,0.649c-0.015,0.045-0.024,0.086-0.03,0.124C82.224,16.464,82.537,16.394,82.826,16.394z
				 M87.77,9.88c-0.592,0-1.106-0.191-1.529-0.569c-0.433-0.397-0.648-0.908-0.648-1.521c0-0.763,0.287-1.423,0.854-1.963
				c0.563-0.528,1.234-0.796,2-0.796c0.599,0,1.119,0.184,1.547,0.545c0.441,0.396,0.66,0.892,0.66,1.484
				c0,0.739-0.297,1.403-0.881,1.975C89.182,9.597,88.509,9.88,87.77,9.88z M88.446,6.03c-0.51,0-0.939,0.171-1.313,0.522
				c-0.369,0.352-0.542,0.745-0.542,1.236c0,0.331,0.102,0.579,0.32,0.78c0.231,0.207,0.514,0.311,0.857,0.311
				c0.481,0,0.909-0.185,1.309-0.565c0.386-0.377,0.575-0.789,0.575-1.255c0-0.305-0.101-0.537-0.316-0.73
				C89.103,6.131,88.808,6.03,88.446,6.03z"/>
		</g>
	</g>
	<g>
		<g>
			<path fill="#FFFFFF" d="M37.286,79.154l1.583-0.297l-1.795,5.281c-0.722,2.099-1.4,4.527-2.042,7.266
				c-0.343,1.491-0.526,2.455-0.526,2.881c0,0.434,0.197,0.654,0.606,0.654c0.246,0,0.657-0.149,1.217-0.441
				c0.993-0.517,1.947-1.158,2.859-1.92l0.766,0.817c-1.822,1.439-2.996,2.327-3.501,2.63c-1.032,0.613-2.012,1.063-2.93,1.358
				c-0.613,0.19-1.202,0.287-1.777,0.287c-0.418,0-0.729-0.079-0.941-0.251c-0.203-0.168-0.307-0.408-0.307-0.728
				c0-0.21,0.058-0.497,0.191-0.861l0.961-2.835c-1.379,1.429-3.012,2.666-4.926,3.696c-1.161,0.638-2.232,0.96-3.213,0.96
				c-0.923,0-1.644-0.284-2.133-0.861c-0.67-0.758-1.013-1.77-1.013-3.003c0-1.472,0.456-3.12,1.357-4.929
				c0.902-1.813,2.111-3.45,3.637-4.925c1.517-1.482,3.121-2.561,4.804-3.262c1.292-0.526,2.955-0.79,4.991-0.79
				c0.511,0,1.028,0.023,1.554,0.078L37.286,79.154z M34.312,82.344c-0.867-0.153-1.596-0.232-2.18-0.232
				c-1.442,0-2.696,0.348-3.776,1.04c-1.063,0.681-2.063,1.924-2.981,3.716c-0.924,1.79-1.386,3.578-1.386,5.355
				c0,0.947,0.184,1.627,0.561,2.052c0.365,0.418,0.84,0.624,1.438,0.624c1.104,0,2.288-0.52,3.552-1.559
				c1.258-1.031,2.19-2.531,2.783-4.48L34.312,82.344z"/>
			<path fill="#FFFFFF" d="M31.746,98.171c-0.545,0-0.955-0.118-1.257-0.362c-0.226-0.188-0.491-0.53-0.491-1.116
				c0-0.285,0.075-0.633,0.222-1.034l0.32-0.943c-1.081,0.908-2.279,1.719-3.578,2.418c-2.494,1.368-4.812,1.342-5.965-0.019
				c-0.748-0.847-1.131-1.968-1.131-3.326c0-1.541,0.475-3.274,1.41-5.151c0.923-1.854,2.18-3.557,3.736-5.062
				c1.534-1.5,3.204-2.633,4.959-3.364c1.351-0.55,3.094-0.828,5.184-0.828c0.454,0,0.887,0.018,1.314,0.054l0.526-0.736
				l2.622-0.492l-2.07,6.092c-0.702,2.042-1.385,4.471-2.028,7.219c-0.127,0.551-0.514,2.232-0.514,2.767
				c0,0.09,0.013,0.134,0.019,0.149c0.008,0,0.032,0.005,0.088,0.005c0.041,0,0.284-0.019,0.985-0.385
				c0.955-0.496,1.887-1.122,2.771-1.86l0.362-0.303l1.46,1.56l-0.427,0.337c-1.919,1.516-3.049,2.363-3.554,2.666
				c-1.044,0.621-2.064,1.094-3.033,1.405C33.001,98.069,32.371,98.171,31.746,98.171z M32.84,91.043l-1.677,4.948
				c-0.145,0.393-0.165,0.607-0.165,0.701c0,0.212,0.067,0.294,0.125,0.342c0.109,0.089,0.325,0.137,0.623,0.137
				c0.522,0,1.056-0.087,1.629-0.265c0.893-0.288,1.844-0.729,2.822-1.311c0.424-0.254,1.413-0.993,3.02-2.256l-0.074-0.08
				c-0.83,0.656-1.696,1.221-2.583,1.682c-0.65,0.34-1.11,0.498-1.447,0.498c-0.683,0-1.106-0.442-1.106-1.154
				c0-0.454,0.161-1.349,0.539-2.993c0.652-2.782,1.344-5.243,2.057-7.315l1.519-4.47l-0.544,0.102l-0.63,0.88l-0.289-0.03
				c-0.487-0.051-0.979-0.075-1.502-0.075c-1.96,0-3.576,0.253-4.803,0.753c-1.634,0.681-3.197,1.743-4.643,3.156
				c-1.477,1.428-2.667,3.039-3.539,4.79c-0.865,1.737-1.305,3.321-1.305,4.706c0,1.106,0.299,2.006,0.888,2.672
				c0.843,0.996,2.68,0.921,4.73-0.206c1.834-0.987,3.449-2.199,4.807-3.605L32.84,91.043z M25.986,95.398
				c-0.743,0-1.353-0.268-1.814-0.795c-0.459-0.518-0.684-1.298-0.684-2.381c0-1.853,0.485-3.731,1.441-5.585
				c0.954-1.862,2.016-3.177,3.156-3.907c1.158-0.742,2.52-1.119,4.046-1.119c0.611,0,1.354,0.078,2.267,0.24l0.557,0.099
				L32.8,89.006c-0.62,2.039-1.611,3.627-2.944,4.721C28.506,94.836,27.204,95.398,25.986,95.398z M32.132,82.611
				c-1.351,0-2.498,0.314-3.507,0.961c-0.989,0.634-1.934,1.819-2.806,3.522c-0.884,1.712-1.331,3.437-1.331,5.128
				c0,0.816,0.146,1.395,0.435,1.72c0.272,0.313,0.609,0.456,1.063,0.456c0.98,0,2.068-0.486,3.234-1.444
				c1.179-0.967,2.061-2.393,2.622-4.24l1.823-5.969C33.066,82.656,32.552,82.611,32.132,82.611z"/>
		</g>
		<g>
			<path fill="#FFFFFF" d="M52.127,83.159c1.298-1.235,2.573-2.142,3.834-2.726c1.246-0.572,2.357-0.862,3.324-0.862
				c1.113,0,2.013,0.39,2.688,1.165c0.671,0.782,1.004,1.956,1.004,3.529c0,2.284-0.614,4.516-1.85,6.708
				c-1.231,2.181-2.755,3.846-4.572,4.981c-1.817,1.146-3.589,1.716-5.318,1.716c-1.466,0-2.652-0.375-3.525-1.13
				c-0.883-0.748-1.321-1.722-1.321-2.924c0-0.96,0.215-2.288,0.651-4.003l2.833-11.052c0.685-2.701,1.354-4.764,1.994-6.407
				c0.643-1.634,1.461-2.844,3.151-3.689c1.699-0.845,1.086,2.167,0.585,2.918c-0.377,0.583-0.875,2.063-1.517,4.45L52.127,83.159z
				 M56.853,81.885c-0.779,0-1.709,0.413-2.793,1.232c-1.073,0.817-2.102,2.275-3.065,4.355c-0.957,2.08-1.438,4.119-1.438,6.128
				c0,0.745,0.278,1.383,0.835,1.891c0.544,0.501,1.189,0.759,1.933,0.759c1.776,0,3.359-1.221,4.753-3.664
				c1.388-2.445,2.082-4.874,2.082-7.292c0-1.104-0.258-2.006-0.786-2.702C57.995,82.124,57.493,81.885,56.853,81.885z"/>
			<path fill="#FFFFFF" d="M51.236,98.171c-1.596,0-2.892-0.421-3.853-1.252c-0.99-0.839-1.494-1.951-1.494-3.302
				c0-1.014,0.218-2.363,0.667-4.126l2.833-11.053c0.632-2.495,1.291-4.609,2.013-6.465c0.574-1.46,1.383-2.949,3.394-3.955
				c0.739-0.369,1.347-0.212,1.646,0.348c0.491,0.92-0.052,2.74-0.422,3.295c-0.332,0.513-0.82,1.963-1.45,4.303l-1.535,5.735
				c0.912-0.729,1.821-1.305,2.716-1.72c2.919-1.339,5.196-1.184,6.599,0.429c0.749,0.872,1.127,2.17,1.127,3.857
				c0,2.36-0.644,4.699-1.914,6.953c-1.271,2.252-2.867,3.988-4.743,5.16C54.936,97.567,53.057,98.171,51.236,98.171z
				 M55.543,68.812c-0.035,0.006-0.127,0.016-0.301,0.102c-1.613,0.808-2.33,1.953-2.909,3.425
				c-0.706,1.815-1.352,3.892-1.975,6.348l-2.833,11.053c-0.422,1.657-0.636,2.962-0.636,3.879c0,1.059,0.374,1.89,1.145,2.542
				c0.777,0.673,1.854,1.012,3.202,1.012c1.628,0,3.328-0.552,5.052-1.639c1.734-1.084,3.215-2.7,4.403-4.805
				c1.185-2.102,1.785-4.276,1.785-6.462c0-1.442-0.297-2.521-0.884-3.204c-1.107-1.272-2.951-1.31-5.423-0.174
				c-1.204,0.558-2.448,1.444-3.698,2.634l-1.287,1.226l2.42-9.042c0.675-2.511,1.177-3.97,1.58-4.593
				C55.55,70.564,55.785,69.041,55.543,68.812z M52.323,96.75c-0.865,0-1.63-0.3-2.271-0.891c-0.66-0.603-0.996-1.363-0.996-2.259
				c0-2.064,0.499-4.196,1.484-6.337c0.995-2.148,2.077-3.677,3.217-4.544c2.235-1.689,3.985-1.707,5.005-0.441
				c0.598,0.788,0.896,1.799,0.896,3.016c0,2.492-0.723,5.028-2.147,7.539C56.028,95.433,54.283,96.75,52.323,96.75z M56.853,82.385
				c-0.66,0-1.498,0.381-2.491,1.131c-1.007,0.768-1.988,2.17-2.913,4.167c-0.924,2.008-1.393,3.999-1.393,5.918
				c0,0.611,0.22,1.108,0.672,1.521c0.46,0.423,0.981,0.628,1.596,0.628c1.574,0,3.027-1.147,4.318-3.412
				c1.338-2.357,2.017-4.728,2.017-7.044c0-0.994-0.23-1.802-0.685-2.4C57.696,82.55,57.337,82.385,56.853,82.385z"/>
		</g>
		<g>
			<path fill="#FFFFFF" d="M72.806,80.388c1.327-0.656,2.45-0.969,3.374-0.969c0.514,0,0.904,0.09,1.179,0.293
				c0.267,0.186,0.403,0.452,0.403,0.791c0,0.401-0.519,2.119-1.557,5.14c-1.687,4.943-2.533,7.914-2.533,8.928
				c0,0.203,0.06,0.369,0.162,0.498c0.116,0.132,0.231,0.202,0.365,0.202c0.508,0,1.076,1.14,0.065,1.645
				c-1.003,0.509-1.831,0.756-2.462,0.756c-0.566,0-1.011-0.158-1.338-0.469c-0.328-0.304-0.488-0.729-0.488-1.265
				c0-1.743,1.201-5.999,3.601-12.766c0.107-0.32,0.162-0.605,0.162-0.854c0-0.278-0.146-0.418-0.431-0.418
				c-0.32,0-0.685,0.116-1.083,0.335C71.809,82.46,71.492,81.029,72.806,80.388z M78.926,70.537c0.496,0,0.899,0.15,1.227,0.428
				c0.318,0.284,0.48,0.65,0.48,1.104c0,0.604-0.247,1.146-0.729,1.615c-0.487,0.463-1.034,0.704-1.651,0.704
				c-0.478,0-0.875-0.152-1.199-0.442c-0.317-0.296-0.48-0.677-0.48-1.148c0-0.631,0.232-1.157,0.701-1.6
				C77.733,70.762,78.288,70.537,78.926,70.537z"/>
			<path fill="#FFFFFF" d="M71.803,98.171c-0.692,0-1.259-0.204-1.682-0.606c-0.427-0.394-0.645-0.942-0.645-1.627
				c0-1.815,1.188-6.046,3.629-12.933c0.075-0.223,0.119-0.425,0.131-0.599c-0.233,0.021-0.488,0.112-0.771,0.267l-0.112,0.062
				l-0.216,0.023c-0.351,0-0.641-0.271-0.738-0.692c-0.154-0.67,0.15-1.621,1.187-2.127c2.224-1.1,4.148-1.311,5.07-0.629
				c0.392,0.273,0.605,0.688,0.605,1.193c0,0.208,0,0.694-1.584,5.302c-1.662,4.874-2.506,7.823-2.506,8.766
				c0,0.08,0.018,0.142,0.054,0.187c0.457,0.014,0.925,0.448,1.061,1.024c0.121,0.512-0.025,1.195-0.798,1.581
				C73.432,97.898,72.527,98.171,71.803,98.171z M73.309,81.399c0.565,0,0.931,0.36,0.931,0.918c0,0.305-0.062,0.636-0.188,1.014
				c-2.372,6.691-3.574,10.931-3.574,12.606c0,0.399,0.107,0.693,0.328,0.897c0.547,0.521,1.626,0.452,3.233-0.366
				c0.291-0.145,0.287-0.313,0.286-0.369c-0.003-0.173-0.117-0.313-0.165-0.335c-0.25-0.006-0.483-0.119-0.7-0.365
				c-0.193-0.242-0.287-0.522-0.287-0.829c0-0.681,0.266-2.363,2.56-9.089c1.415-4.117,1.529-4.852,1.53-4.979
				c0-0.175-0.057-0.288-0.188-0.381c-0.187-0.138-0.483-0.203-0.894-0.203c-0.861,0-1.922,0.309-3.152,0.917
				c-0.401,0.196-0.56,0.461-0.622,0.648c-0.015,0.044-0.025,0.085-0.031,0.123C72.706,81.47,73.02,81.399,73.309,81.399z
				 M78.252,74.888c-0.595,0-1.11-0.191-1.532-0.569c-0.433-0.403-0.647-0.912-0.647-1.521c0-0.766,0.289-1.426,0.858-1.963
				c0.558-0.528,1.229-0.797,1.995-0.797c0.601,0,1.122,0.184,1.55,0.546c0.439,0.393,0.657,0.889,0.657,1.485
				c0,0.741-0.297,1.406-0.881,1.974C79.66,74.604,78.988,74.888,78.252,74.888z M78.926,71.037c-0.509,0-0.937,0.171-1.309,0.523
				c-0.372,0.351-0.545,0.743-0.545,1.236c0,0.329,0.103,0.578,0.321,0.783c0.229,0.204,0.513,0.308,0.858,0.308
				c0.479,0,0.905-0.186,1.307-0.566c0.385-0.374,0.574-0.785,0.574-1.253c0-0.308-0.1-0.54-0.313-0.73
				C79.584,71.139,79.288,71.037,78.926,71.037z"/>
		</g>
	</g>
	<g>
		<g>
			<rect x="52.213" y="38.684" fill="#FFFFFF" width="4" height="19.964"/>
		</g>
		<g>
			<rect x="44.785" y="38.684" fill="#FFFFFF" width="4" height="19.964"/>
		</g>
	</g>
	<g>
		<polygon fill="#FFFFFF" points="50.488,64.245 38.066,53.689 40.656,50.641 50.49,58.997 60.343,50.64 62.931,53.69 		"/>
	</g>
</g>
</svg>
