<?xml version="1.0" encoding="utf-8"?>
<!-- Generator: Adobe Illustrator 16.0.0, SVG Export Plug-In . SVG Version: 6.00 Build 0)  -->
<!DOCTYPE svg PUBLIC "-//W3C//DTD SVG 1.1//EN" "http://www.w3.org/Graphics/SVG/1.1/DTD/svg11.dtd">
<svg version="1.1" id="图层_1" xmlns="http://www.w3.org/2000/svg" xmlns:xlink="http://www.w3.org/1999/xlink" x="0px" y="0px"
	 width="101px" height="101px" viewBox="0 0 101 101" enable-background="new 0 0 101 101" xml:space="preserve">
<g>
	<g>
		<rect x="8.958" y="65.452" fill="#FFFFFF" width="16.228" height="32.122"/>
	</g>
	<g>
		<rect x="29.933" y="60.731" fill="#FFFFFF" width="16.225" height="36.843"/>
	</g>
	<g>
		<rect x="50.905" y="53.261" fill="#FFFFFF" width="16.228" height="44.313"/>
	</g>
	<g>
		<rect x="71.884" y="41.065" fill="#FFFFFF" width="16.222" height="56.509"/>
	</g>
	<g>
		<path fill="#FFFFFF" d="M17.021,57.11c-4.961,0-8.104-0.395-8.387-0.432l0.646-4.958c0.148,0.021,14.902,1.846,31.66-2.795
			c17.156-4.75,30.059-14.212,38.514-28.201c0.023-0.039,0.07-0.119,0.07-0.119l4.041,2.915c0,0-0.053,0.086-0.079,0.128
			c-11.288,18.29-28.064,26.485-41.384,30.144C32.265,56.494,23.222,57.11,17.021,57.11z"/>
	</g>
	<g>
		<polygon fill="#FFFFFF" points="92.366,3.427 71.884,15.094 79.525,20.606 83.563,23.519 90.366,28.427 		"/>
	</g>
</g>
</svg>
