<?xml version="1.0" encoding="utf-8"?>
<!-- Generator: Adobe Illustrator 16.0.0, SVG Export Plug-In . SVG Version: 6.00 Build 0)  -->
<!DOCTYPE svg PUBLIC "-//W3C//DTD SVG 1.1//EN" "http://www.w3.org/Graphics/SVG/1.1/DTD/svg11.dtd">
<svg version="1.1" id="图层_1" xmlns="http://www.w3.org/2000/svg" xmlns:xlink="http://www.w3.org/1999/xlink" x="0px" y="0px"
	 width="100px" height="100px" viewBox="0 0 100 100" enable-background="new 0 0 100 100" xml:space="preserve">
<g>
	<g>
		<path fill="#FFFFFF" d="M50.001,98.126c-26.534,0-48.121-21.587-48.121-48.12c0-26.536,21.587-48.124,48.121-48.124
			c26.533,0,48.119,21.588,48.119,48.124C98.12,76.539,76.534,98.126,50.001,98.126z M50.001,3.882
			C24.569,3.882,3.88,24.573,3.88,50.006c0,25.431,20.689,46.12,46.121,46.12c25.431,0,46.119-20.689,46.119-46.12
			C96.12,24.573,75.432,3.882,50.001,3.882z"/>
	</g>
	<g>
		<path fill="#FFFFFF" d="M10.03,25.055l39.971,24.951l2.291-47.067C52.292,2.938,25.263,1.929,10.03,25.055z"/>
	</g>
	<g>
		<path fill="#FFFFFF" d="M6.229,67.457l43.771-17.451l37.156,28.96c0,0-19.777,26.399-49.418,16.539
			C8.093,85.645,6.229,67.457,6.229,67.457z"/>
	</g>
</g>
</svg>
