<?xml version="1.0" encoding="utf-8"?>
<!-- Generator: Adobe Illustrator 16.0.0, SVG Export Plug-In . SVG Version: 6.00 Build 0)  -->
<!DOCTYPE svg PUBLIC "-//W3C//DTD SVG 1.1//EN" "http://www.w3.org/Graphics/SVG/1.1/DTD/svg11.dtd">
<svg version="1.1" id="图层_1" xmlns="http://www.w3.org/2000/svg" xmlns:xlink="http://www.w3.org/1999/xlink" x="0px" y="0px"
	 width="100px" height="100px" viewBox="0 0 100 100" enable-background="new 0 0 100 100" xml:space="preserve">
<g>
	<path fill="#FFFFFF" d="M42.294,55H8.033c-1.493,0-2.705,1.21-2.705,2.705v34.261c0,1.494,1.212,2.705,2.705,2.705h34.261
		c1.494,0,2.705-1.211,2.705-2.705V57.705C44.999,56.21,43.788,55,42.294,55L42.294,55z"/>
	<path fill="#FFFFFF" d="M42.295,5.329H8.033c-1.494,0-2.705,1.212-2.705,2.705v34.261C5.328,43.789,6.539,45,8.033,45h34.262
		C43.789,45,45,43.789,45,42.295V8.034C45,6.541,43.789,5.329,42.295,5.329L42.295,5.329z"/>
	<path fill="#FFFFFF" d="M91.966,5.329H57.705C56.212,5.329,55,6.541,55,8.034v34.261C55,43.789,56.212,45,57.705,45h34.261
		c1.494,0,2.705-1.211,2.705-2.705V8.034C94.671,6.541,93.46,5.329,91.966,5.329L91.966,5.329z"/>
	<path fill="#FFFFFF" d="M91.967,55H57.705C56.211,55,55,56.21,55,57.705v34.261c0,1.494,1.211,2.705,2.705,2.705h34.262
		c1.494,0,2.705-1.211,2.705-2.705V57.705C94.672,56.21,93.461,55,91.967,55z M91.551,65.571c-0.715,0.433-2.182,1.523-5.111,4.267
		c-0.896,0.839-2.076,1.957-3.258,3.18c-1.142,1.181-2.408,2.563-3.872,4.226c-2.137,2.428-5.334,6.23-8.43,10.557l-0.676,0.943
		L57.119,76.068l8.006-6.309l5.453,5.149c1.806-1.523,3.79-3.121,5.549-4.466l0.188-0.145c0.948-0.727,1.853-1.419,2.729-2.054
		c0.944-0.682,1.944-1.398,3.021-2.143l0.284-0.196c1.818-1.256,4.081-2.818,6.449-4.3l0.777-0.486l2.924,3.878L91.551,65.571z"/>
</g>
</svg>
