<?xml version="1.0" encoding="utf-8"?>
<!-- Generator: Adobe Illustrator 16.0.0, SVG Export Plug-In . SVG Version: 6.00 Build 0)  -->
<!DOCTYPE svg PUBLIC "-//W3C//DTD SVG 1.1//EN" "http://www.w3.org/Graphics/SVG/1.1/DTD/svg11.dtd">
<svg version="1.1" id="图层_1" xmlns="http://www.w3.org/2000/svg" xmlns:xlink="http://www.w3.org/1999/xlink" x="0px" y="0px"
	 width="100px" height="100px" viewBox="0 0 100 100" enable-background="new 0 0 100 100" xml:space="preserve">
<g>
	<path fill="#FFFFFF" d="M10.801,25.221c0,2.286,1.422,4.156,3.209,4.272c1.24,7.836,6.617,13.732,13.064,13.732
		c6.449,0,11.834-5.896,13.082-13.747c0.068,0.015,0.143,0.015,0.225,0.015c1.859,0,3.375-1.905,3.375-4.272
		c0-2.087-1.197-3.824-2.756-4.184c0,0,3.607-12.204-3.959-15.677C36.119-5.157,17.643,3.092,17.643,3.092
		C8.166,8.046,12.734,21.37,12.734,21.37h0.006C11.604,22.045,10.801,23.521,10.801,25.221z M14.184,21.874c0.029,0,0.066,0,0.09,0
		l0.273,0.019v-0.993l0.992-5.676c0.615-0.952,1.201-1.536,1.201-1.536c8.391,0.367,14.955-3.81,14.955-3.81
		c5.646-4.357,7.402,12.213,7.402,12.213l0.186-0.032l0.736-0.153c0.125-0.022,0.24-0.031,0.361-0.031
		c0.619,0,1.211,0.328,1.664,0.903c0.514,0.651,0.799,1.513,0.799,2.443c0,0.934-0.285,1.811-0.799,2.462
		c-0.453,0.577-1.045,0.89-1.664,0.89c-0.049,0-0.098,0-0.156,0l-0.838-0.073l-0.133,0.831c-0.572,3.659-2.125,6.961-4.34,9.345
		c-1.092,1.158-2.32,2.063-3.629,2.678c-1.34,0.629-2.76,0.962-4.211,0.962c-1.43,0-2.852-0.333-4.186-0.962
		c-1.33-0.614-2.541-1.52-3.629-2.678c-2.225-2.384-3.773-5.686-4.35-9.329l-0.109-0.728l-0.73-0.046
		c-1.291-0.073-2.359-1.583-2.359-3.352c0-0.931,0.281-1.792,0.797-2.443C12.965,22.202,13.57,21.874,14.184,21.874z"/>
	<path fill="#FFFFFF" d="M18.08,26.369h5.707c1.092,0,1.975-0.875,1.975-1.968v-1.813h2.146v1.813c0,1.093,0.887,1.968,1.971,1.968
		h5.709c1.086,0,1.975-0.875,1.975-1.968v-3.624c0-1.096-0.889-1.975-1.975-1.975h-5.709c-1.084,0-1.971,0.879-1.971,1.975v1.239
		h-2.146v-1.239c0-1.096-0.883-1.975-1.975-1.975H18.08c-1.09,0-1.969,0.879-1.969,1.975v3.624
		C16.111,25.494,16.99,26.369,18.08,26.369z M28.352,20.777c0-0.845,0.688-1.531,1.527-1.531h5.709c0.84,0,1.527,0.687,1.527,1.531
		v3.624c0,0.84-0.688,1.523-1.527,1.523h-5.709c-0.84,0-1.527-0.684-1.527-1.523V20.777z M16.557,20.777
		c0-0.845,0.684-1.531,1.523-1.531h5.707c0.848,0,1.525,0.687,1.525,1.531v1.239v0.572v1.813c0,0.84-0.678,1.523-1.525,1.523H18.08
		c-0.84,0-1.523-0.684-1.523-1.523V20.777z"/>
	<rect x="48.299" y="20.263" fill="#FFFFFF" width="32.518" height="7.479"/>
	<rect x="48.299" y="31.895" fill="#FFFFFF" width="32.518" height="2.585"/>
	<rect x="48.299" y="37.969" fill="#FFFFFF" width="32.518" height="2.585"/>
	<rect x="56.801" y="45.528" fill="#FFFFFF" width="24.016" height="7.479"/>
	<rect x="59.965" y="57.599" fill="#FFFFFF" width="20.852" height="2.087"/>
	<rect x="59.965" y="63.146" fill="#FFFFFF" width="20.852" height="2.088"/>
	<rect x="59.965" y="68.622" fill="#FFFFFF" width="20.852" height="2.087"/>
	<rect x="59.965" y="74.169" fill="#FFFFFF" width="20.852" height="2.088"/>
	<rect x="59.965" y="79.668" fill="#FFFFFF" width="20.852" height="2.087"/>
	<path fill="#FFFFFF" d="M56.969,86.989c0,0,1.518,9.295-8.67,11.289c9.51,0,51.705,0,51.705,0V86.989H56.969z"/>
	<rect x="85.918" y="13.984" fill="#FFFFFF" width="5.635" height="75.88"/>
	<path fill="#FFFFFF" d="M91.553,8.341H42.773c1.012,1.686,1.215,3.709,1.293,5.644h47.486V8.341z"/>
	<path fill="#FFFFFF" d="M54.029,59.677c-0.984-5.379-5.768-12.008-12.307-14.841L30.127,63.395l-1.43-8.788
		c0.953-0.582,1.588-1.632,1.588-2.84c0-1.836-1.488-3.336-3.334-3.336c-1.838,0-3.336,1.5-3.336,3.336
		c0,1.208,0.643,2.258,1.594,2.84l-1.402,8.634l-11.52-18.404C5.762,47.669,0.982,54.298,0.004,59.677v29.645h0.025
		c-0.012,0.129-0.025,0.261-0.025,0.393c0,5.688,12.09,10.302,27.01,10.302s27.016-4.614,27.016-10.302
		c0-0.132-0.016-0.264-0.029-0.393h0.029V59.677z M27.016,91.767c-1.049,0-1.898-0.853-1.898-1.902s0.85-1.902,1.898-1.902
		s1.898,0.853,1.898,1.902S28.064,91.767,27.016,91.767z M27.016,83.075c-1.049,0-1.898-0.853-1.898-1.901
		c0-1.051,0.85-1.902,1.898-1.902s1.898,0.852,1.898,1.902C28.914,82.223,28.064,83.075,27.016,83.075z M27.016,74.384
		c-1.049,0-1.898-0.852-1.898-1.901s0.85-1.902,1.898-1.902s1.898,0.853,1.898,1.902S28.064,74.384,27.016,74.384z"/>
</g>
</svg>
