<?xml version="1.0" encoding="utf-8"?>
<!-- Generator: Adobe Illustrator 16.0.0, SVG Export Plug-In . SVG Version: 6.00 Build 0)  -->
<!DOCTYPE svg PUBLIC "-//W3C//DTD SVG 1.1//EN" "http://www.w3.org/Graphics/SVG/1.1/DTD/svg11.dtd">
<svg version="1.1" id="图层_1" xmlns="http://www.w3.org/2000/svg" xmlns:xlink="http://www.w3.org/1999/xlink" x="0px" y="0px"
	 width="100px" height="100px" viewBox="0 0 100 100" enable-background="new 0 0 100 100" xml:space="preserve">
<g>
	<g>
		<g>
			<path fill="#FFFFFF" d="M60.351,51.471l-13.02,14.406l-1.319-0.834l12.419-13.572L46.012,37.793l1.199-0.834L60.351,51.471z"/>
			<polygon fill="#FFFFFF" points="47.686,68.467 42.923,65.456 55.725,51.466 43,37.451 47.513,34.313 63.048,51.47 			"/>
		</g>
	</g>
	<g>
		<g>
			<path fill="#FFFFFF" d="M80.541,22.005c-0.247,1.813-0.494,3.682-0.742,5.607c-0.247,1.927-0.484,3.875-0.713,5.846
				c-0.228,1.971-0.449,3.953-0.664,5.947s-0.41,3.962-0.586,5.904c-0.176,1.943-0.328,3.847-0.459,5.71
				c-0.13,1.863-0.234,3.65-0.313,5.361l0.215,0.017c1.029-2.197,2.136-4.135,3.32-5.812c1.186-1.676,2.39-3.081,3.613-4.214
				c1.225-1.133,2.438-1.988,3.643-2.565c1.205-0.578,2.341-0.867,3.408-0.867c0.898,0,1.693,0.145,2.383,0.434
				c0.69,0.289,1.289,0.674,1.797,1.155s0.932,1.037,1.27,1.665c0.339,0.629,0.612,1.286,0.82,1.972
				c0.209,0.686,0.355,1.379,0.439,2.081c0.085,0.703,0.127,1.359,0.127,1.972c0,1.688-0.191,3.265-0.576,4.732
				c-0.384,1.467-0.914,2.803-1.592,4.01c-0.677,1.206-1.478,2.279-2.402,3.22c-0.924,0.94-1.927,1.733-3.008,2.379
				c-1.08,0.646-2.22,1.136-3.418,1.47c-1.197,0.334-2.402,0.502-3.613,0.502c-0.807,0-1.617-0.08-2.432-0.238
				c-0.813-0.159-1.607-0.402-2.383-0.73c-0.774-0.329-1.507-0.751-2.197-1.266c-0.689-0.516-1.309-1.125-1.855-1.827
				c-0.455,0.997-0.918,1.813-1.387,2.447c-0.469,0.634-0.904,1.144-1.309,1.529l-1.016-0.222c0.717-1.732,1.244-3.814,1.582-6.244
				c0.339-2.43,0.6-5.18,0.781-8.25c0.065-1.313,0.146-2.81,0.244-4.485c0.098-1.677,0.199-3.444,0.303-5.302
				c0.104-1.858,0.215-3.758,0.332-5.701c0.117-1.942,0.234-3.832,0.352-5.667s0.229-3.574,0.332-5.217
				c0.104-1.642,0.202-3.098,0.293-4.366c0.014-0.272,0.111-0.507,0.293-0.705c0.183-0.198,0.41-0.357,0.684-0.477
				s0.583-0.206,0.928-0.263c0.346-0.057,0.688-0.085,1.025-0.085C78.855,21.462,79.682,21.643,80.541,22.005z M93.334,53.865
				c0-0.77-0.068-1.563-0.205-2.379c-0.137-0.815-0.352-1.555-0.645-2.217c-0.293-0.663-0.677-1.207-1.152-1.632
				c-0.475-0.425-1.051-0.637-1.729-0.637c-0.794,0-1.578,0.173-2.354,0.518c-0.774,0.346-1.523,0.811-2.246,1.394
				c-0.723,0.584-1.416,1.258-2.08,2.022s-1.285,1.566-1.865,2.404c-0.579,0.839-1.1,1.686-1.563,2.54
				c-0.462,0.855-0.859,1.668-1.191,2.438s-0.589,1.47-0.771,2.099c-0.182,0.629-0.273,1.13-0.273,1.504
				c0.195,0.702,0.498,1.34,0.908,1.911c0.41,0.572,0.905,1.06,1.484,1.462c0.58,0.402,1.225,0.711,1.934,0.926
				c0.71,0.216,1.462,0.323,2.256,0.323c1.303,0,2.529-0.286,3.682-0.858s2.158-1.401,3.018-2.489s1.54-2.416,2.041-3.984
				C93.084,57.641,93.334,55.859,93.334,53.865z"/>
			<path fill="#FFFFFF" d="M72.233,69.535l-2.702-0.59l0.457-1.104c0.681-1.646,1.19-3.665,1.516-6
				c0.334-2.396,0.594-5.146,0.773-8.171c0.064-1.307,0.146-2.806,0.244-4.485c0.098-1.676,0.199-3.442,0.303-5.299
				c0.104-1.86,0.215-3.761,0.332-5.706c0.117-1.943,0.234-3.834,0.352-5.67l0.332-5.216c0.104-1.646,0.202-3.104,0.294-4.375
				c0.023-0.48,0.215-0.941,0.553-1.31c0.279-0.303,0.622-0.544,1.021-0.718c0.346-0.15,0.737-0.263,1.165-0.332
				c1.339-0.221,2.664-0.064,4.057,0.522l0.706,0.298l-0.104,0.759c-0.247,1.811-0.494,3.677-0.741,5.601
				c-0.247,1.922-0.483,3.866-0.712,5.833c-0.227,1.968-0.448,3.947-0.663,5.939c-0.214,1.988-0.409,3.95-0.584,5.887
				c-0.176,1.937-0.327,3.833-0.458,5.69c-0.028,0.414-0.056,0.825-0.082,1.232c0.483-0.82,0.981-1.593,1.491-2.313
				c1.222-1.728,2.483-3.198,3.75-4.37c1.294-1.197,2.603-2.117,3.89-2.733c2.468-1.185,4.846-1.195,6.61-0.454
				c0.799,0.334,1.505,0.789,2.099,1.352c0.583,0.553,1.075,1.198,1.462,1.917c0.368,0.684,0.67,1.409,0.896,2.155
				c0.225,0.737,0.385,1.495,0.476,2.252c0.089,0.736,0.134,1.439,0.134,2.091c0,1.768-0.205,3.444-0.608,4.986
				c-0.404,1.542-0.972,2.971-1.688,4.245c-0.717,1.278-1.579,2.433-2.562,3.432c-0.979,0.996-2.058,1.85-3.208,2.536
				c-1.152,0.688-2.384,1.219-3.662,1.574c-2.137,0.596-4.315,0.709-6.504,0.282c-0.88-0.172-1.748-0.438-2.582-0.791
				c-0.846-0.359-1.654-0.825-2.405-1.385c-0.357-0.268-0.699-0.559-1.022-0.872c-0.269,0.481-0.542,0.911-0.817,1.284
				c-0.51,0.689-0.976,1.231-1.423,1.659L72.233,69.535z M74.398,62.553l1.014,1.302c0.489,0.628,1.05,1.18,1.665,1.641
				c0.622,0.464,1.292,0.85,1.99,1.146c0.705,0.298,1.44,0.523,2.184,0.669c0.703,0.137,1.41,0.21,2.102,0.219
				c-0.715-0.037-1.405-0.155-2.058-0.354c-0.805-0.244-1.55-0.602-2.213-1.062c-0.671-0.466-1.252-1.038-1.727-1.7
				c-0.477-0.664-0.833-1.413-1.06-2.227L76.26,61.92c0-0.47,0.103-1.053,0.313-1.781c0.194-0.668,0.468-1.414,0.814-2.217
				c0.069-0.163,0.144-0.328,0.22-0.496l-1.585-0.122l0.044-0.969c0.078-1.719,0.184-3.514,0.313-5.385
				c0.132-1.87,0.285-3.78,0.461-5.73c0.177-1.948,0.372-3.922,0.588-5.922c0.215-1.996,0.437-3.981,0.665-5.954
				c0.229-1.976,0.467-3.928,0.714-5.858c0.212-1.646,0.424-3.251,0.635-4.813c-0.783-0.229-1.5-0.259-2.244-0.138
				c-0.265,0.043-0.497,0.107-0.69,0.192c-0.145,0.063-0.259,0.141-0.348,0.237l-0.031,0.099c-0.09,1.267-0.188,2.72-0.292,4.358
				l-0.332,5.217c-0.117,1.834-0.234,3.723-0.352,5.664s-0.228,3.84-0.332,5.696c-0.104,1.858-0.205,3.627-0.303,5.305
				c-0.098,1.672-0.178,3.165-0.243,4.477c-0.183,3.088-0.448,5.89-0.79,8.338c-0.187,1.344-0.433,2.595-0.736,3.744
				c0.323-0.504,0.646-1.109,0.965-1.808L74.398,62.553z M89.604,46.001c0.929,0,1.734,0.3,2.396,0.892
				c0.579,0.518,1.05,1.182,1.4,1.973c0.325,0.735,0.565,1.562,0.716,2.456c0.146,0.867,0.219,1.723,0.219,2.544
				c0,2.09-0.269,3.991-0.8,5.649c-0.534,1.675-1.277,3.121-2.208,4.3c-0.947,1.198-2.077,2.129-3.358,2.765
				c-0.444,0.221-0.9,0.404-1.368,0.549c0.078-0.02,0.157-0.041,0.235-0.063c1.106-0.309,2.174-0.768,3.174-1.365
				c1.004-0.6,1.948-1.347,2.808-2.222c0.858-0.873,1.613-1.885,2.243-3.008c0.633-1.127,1.136-2.396,1.496-3.773
				c0.361-1.376,0.544-2.883,0.544-4.479c0-0.571-0.04-1.194-0.12-1.852c-0.076-0.642-0.212-1.283-0.403-1.909
				c-0.188-0.62-0.438-1.222-0.743-1.789c-0.286-0.532-0.649-1.008-1.078-1.414c-0.416-0.396-0.919-0.718-1.494-0.958
				c-1.239-0.519-3.021-0.524-4.973,0.412c-1.107,0.531-2.25,1.338-3.396,2.398c-1.164,1.078-2.334,2.443-3.476,4.057
				c-0.04,0.058-0.081,0.115-0.121,0.173c0.284-0.361,0.576-0.714,0.874-1.057c0.698-0.805,1.44-1.526,2.206-2.145
				c0.788-0.636,1.618-1.15,2.468-1.529C87.745,46.204,88.674,46.001,89.604,46.001z M78.265,61.794
				c0.164,0.531,0.404,1.02,0.716,1.454c0.342,0.477,0.76,0.888,1.242,1.224c0.491,0.341,1.048,0.606,1.653,0.79
				c0.612,0.187,1.273,0.28,1.966,0.28c1.141,0,2.229-0.254,3.237-0.754c1.014-0.504,1.915-1.249,2.677-2.214
				c0.781-0.988,1.412-2.223,1.874-3.669c0.467-1.461,0.704-3.157,0.704-5.04c0-0.711-0.064-1.456-0.191-2.214
				c-0.122-0.729-0.315-1.395-0.572-1.978c-0.234-0.529-0.538-0.964-0.904-1.29c-0.292-0.262-0.629-0.383-1.063-0.383
				c-0.648,0-1.304,0.146-1.947,0.432c-0.69,0.308-1.372,0.731-2.024,1.258c-0.674,0.545-1.331,1.184-1.953,1.899
				c-0.633,0.729-1.237,1.509-1.798,2.318c-0.554,0.802-1.061,1.626-1.506,2.447c-0.447,0.828-0.835,1.622-1.152,2.357
				c-0.313,0.728-0.559,1.395-0.729,1.982C78.337,61.238,78.28,61.582,78.265,61.794z"/>
		</g>
	</g>
	<g>
		<g>
			<path fill="#FFFFFF" d="M26.685,40.681l2.319-0.428l-2.637,7.738c-1.055,3.079-2.051,6.627-2.987,10.644
				c-0.516,2.183-0.773,3.589-0.773,4.221c0,0.633,0.293,0.948,0.879,0.948c0.374,0,0.972-0.214,1.793-0.642
				c1.453-0.755,2.848-1.692,4.184-2.814l1.125,1.193c-2.672,2.121-4.383,3.405-5.133,3.854c-1.5,0.897-2.931,1.56-4.289,1.988
				c-0.892,0.285-1.758,0.428-2.602,0.428c-0.61,0-1.067-0.122-1.371-0.367c-0.305-0.244-0.457-0.601-0.457-1.07
				c0-0.306,0.093-0.724,0.281-1.254l1.406-4.159c-2.017,2.1-4.418,3.904-7.207,5.413c-1.711,0.938-3.282,1.407-4.711,1.407
				c-1.359,0-2.403-0.418-3.129-1.254c-0.984-1.121-1.477-2.59-1.477-4.404c0-2.161,0.662-4.567,1.986-7.219
				c1.323-2.65,3.099-5.057,5.326-7.218c2.227-2.161,4.57-3.752,7.031-4.771c1.898-0.774,4.336-1.162,7.313-1.162
				c0.75,0,1.512,0.041,2.285,0.122L26.685,40.681z M22.325,45.36c-1.266-0.224-2.333-0.336-3.199-0.336
				c-2.109,0-3.95,0.505-5.52,1.514c-1.57,1.01-3.029,2.824-4.377,5.444c-1.349,2.62-2.021,5.235-2.021,7.846
				c0,1.387,0.269,2.386,0.809,2.997c0.539,0.612,1.242,0.918,2.109,0.918c1.617,0,3.352-0.76,5.203-2.279
				c1.851-1.519,3.211-3.705,4.078-6.561L22.325,45.36z"/>
			<path fill="#FFFFFF" d="M18.563,68.811c-0.842,0-1.515-0.198-1.999-0.589c-0.377-0.302-0.829-0.87-0.829-1.849
				c0-0.428,0.111-0.947,0.339-1.589l0.174-0.513c-1.394,1.097-2.916,2.094-4.557,2.981c-1.849,1.013-3.595,1.527-5.187,1.527
				c-1.656,0-2.964-0.538-3.884-1.599c-1.142-1.299-1.722-3.003-1.722-5.06c0-2.308,0.704-4.887,2.092-7.666
				c1.368-2.739,3.227-5.259,5.524-7.488c2.308-2.239,4.778-3.914,7.345-4.978c2.016-0.822,4.604-1.238,7.695-1.238
				c0.589,0,1.193,0.024,1.802,0.073l0.745-1.054l4.398-0.812l-3.188,9.354c-1.04,3.038-2.036,6.586-2.96,10.549
				c-0.604,2.555-0.73,3.54-0.745,3.916c0.192-0.042,0.555-0.163,1.208-0.503c1.385-0.72,2.73-1.625,4.002-2.693l0.724-0.607
				l2.52,2.673l-0.853,0.677c-2.73,2.167-4.445,3.452-5.242,3.929c-1.556,0.931-3.07,1.632-4.501,2.084
				C20.483,68.65,19.506,68.811,18.563,68.811z M20.806,57.036l-2.842,8.403c-0.207,0.582-0.229,0.847-0.229,0.934
				c0,0.224,0.058,0.271,0.082,0.29c0.09,0.072,0.331,0.147,0.746,0.147c0.735,0,1.508-0.128,2.297-0.38
				c1.286-0.406,2.657-1.043,4.08-1.895c0.124-0.074,0.299-0.187,0.544-0.356c-0.866,0.43-1.49,0.624-1.999,0.624
				c-1.142,0-1.879-0.765-1.879-1.948c0-0.456,0.083-1.414,0.8-4.45c0.938-4.025,1.953-7.639,3.015-10.738l2.086-6.121l-0.24,0.044
				l-0.947,1.34l-0.583-0.062c-0.738-0.077-1.472-0.116-2.181-0.116c-2.832,0-5.165,0.366-6.935,1.088
				c-0.827,0.343-1.646,0.758-2.453,1.243c1.473-0.703,3.135-1.059,4.958-1.059c0.92,0,2.055,0.118,3.373,0.352l1.113,0.196
				l-3.249,10.623c-0.512,1.688-1.198,3.17-2.05,4.436L20.806,57.036z M11.497,46.979c-0.537,0.442-1.066,0.917-1.589,1.424
				c-2.136,2.072-3.861,4.409-5.128,6.946c-1.248,2.499-1.881,4.778-1.881,6.772c0,1.578,0.401,2.804,1.228,3.744
				c0.535,0.616,1.312,0.914,2.378,0.914c1.252,0,2.675-0.432,4.23-1.284c0.854-0.462,1.674-0.955,2.457-1.478
				c-2.265,1.038-4.575,1.002-5.927-0.532c-0.711-0.806-1.058-2.003-1.058-3.658c0-2.761,0.718-5.555,2.133-8.304
				C9.318,49.623,10.375,48.103,11.497,46.979z M19.126,46.024c-1.905,0-3.58,0.456-4.979,1.354
				c-1.414,0.909-2.769,2.612-4.028,5.061c-1.269,2.464-1.911,4.949-1.911,7.389c0,1.408,0.304,2.047,0.558,2.335
				c0.35,0.396,0.781,0.58,1.36,0.58c1.372,0,2.909-0.69,4.568-2.053c1.688-1.385,2.952-3.43,3.756-6.078l2.582-8.442
				C20.305,46.073,19.667,46.024,19.126,46.024z"/>
		</g>
	</g>
</g>
</svg>
