<?xml version="1.0" encoding="utf-8"?>
<!-- Generator: Adobe Illustrator 16.0.0, SVG Export Plug-In . SVG Version: 6.00 Build 0)  -->
<!DOCTYPE svg PUBLIC "-//W3C//DTD SVG 1.1//EN" "http://www.w3.org/Graphics/SVG/1.1/DTD/svg11.dtd">
<svg version="1.1" id="图层_1" xmlns="http://www.w3.org/2000/svg" xmlns:xlink="http://www.w3.org/1999/xlink" x="0px" y="0px"
	 width="100px" height="100px" viewBox="0 0 100 100" enable-background="new 0 0 100 100" xml:space="preserve">
<g>
	<g>
		<path fill="#FFFFFF" d="M90.189,63.55v10.743c0,0.058,0.043,0.117,0.092,0.142c0.051,0.017,0.118,0.005,0.168-0.033l8.94-5.369
			c0.067-0.063,0.067-0.155,0-0.214l-8.94-5.373c-0.05-0.042-0.117-0.05-0.168-0.029C90.232,63.437,90.189,63.494,90.189,63.55z"/>
	</g>
	<g>
		<path fill="#FFFFFF" d="M10.922,92.023l-7.583-7.587c-0.041-0.041-0.112-0.05-0.167-0.032c-0.044,0.023-0.083,0.078-0.095,0.142
			L0.559,94.65c-0.005,0.088,0.06,0.154,0.149,0.149l10.106-2.521c0.066-0.005,0.116-0.047,0.138-0.097
			C10.973,92.133,10.961,92.062,10.922,92.023z"/>
	</g>
	<g>
		<path fill="#FFFFFF" d="M20.08,15.18h11.594c0.062,0,0.125-0.045,0.153-0.099c0.018-0.055,0.004-0.125-0.037-0.181l-5.793-9.647
			c-0.069-0.072-0.168-0.072-0.231,0L19.968,14.9c-0.046,0.056-0.056,0.126-0.031,0.181C19.96,15.135,20.021,15.18,20.08,15.18z"/>
	</g>
	<g>
		<g>
			<rect x="23.879" y="11.81" fill="#FFFFFF" width="4" height="2.5"/>
		</g>
		<g>
			<path fill="#FFFFFF" d="M27.879,61.535h-4v-4.723h4V61.535z M27.879,52.09h-4v-4.723h4V52.09z M27.879,42.646h-4v-4.723h4V42.646
				z M27.879,33.2h-4v-4.723h4V33.2z M27.879,23.755h-4v-4.723h4V23.755z"/>
		</g>
		<g>
			<polygon fill="#FFFFFF" points="28.373,70.765 23.879,70.752 23.879,66.258 27.879,66.258 27.879,66.764 28.385,66.765 			"/>
		</g>
		<g>
			<path fill="#FFFFFF" d="M81.649,70.903l-5.327-0.014l0.01-4l5.327,0.014L81.649,70.903z M70.994,70.875l-5.327-0.014l0.01-4
				l5.327,0.014L70.994,70.875z M60.339,70.848l-5.327-0.014l0.01-4l5.327,0.014L60.339,70.848z M49.683,70.82l-5.327-0.015l0.012-4
				l5.327,0.015L49.683,70.82z M39.028,70.792l-5.327-0.014l0.01-4l5.327,0.014L39.028,70.792z"/>
		</g>
		<g>
			<rect x="86.982" y="66.92" transform="matrix(1 0.0027 -0.0027 1 0.1888 -0.241)" fill="#FFFFFF" width="2.5" height="4"/>
		</g>
	</g>
	<g>
		<g>
			
				<rect x="4.12" y="87.884" transform="matrix(0.7134 0.7007 -0.7007 0.7134 64.0376 21.1837)" fill="#FFFFFF" width="4" height="2"/>
		</g>
		<g>
			<path fill="#FFFFFF" d="M10.77,87.003L7.916,84.2l2.522-2.569l2.854,2.803L10.77,87.003z M15.814,81.864l-2.854-2.803
				l2.522-2.569l2.854,2.803L15.814,81.864z M20.859,76.726l-2.854-2.803l2.522-2.569l2.854,2.803L20.859,76.726z"/>
		</g>
		<g>
			
				<rect x="23.178" y="68.471" transform="matrix(0.7134 0.7007 -0.7007 0.7134 55.896 2.2655)" fill="#FFFFFF" width="4" height="2"/>
		</g>
	</g>
	<g>
		<polygon fill="#FFFFFF" points="66.032,45.855 13.978,45.855 13.978,39.855 62.931,39.855 71.103,28.324 75.997,31.793 		"/>
	</g>
	<g>
		<rect x="60.856" y="42.855" fill="#FFFFFF" width="6" height="36.393"/>
	</g>
	<g>
		<path fill="#FFFFFF" d="M65.303,82.248H11.815V41.179l13.928-14.12H76.55v41.066L65.303,82.248z M17.815,76.248H62.41l8.14-10.221
			V33.059H28.253L17.815,43.64V76.248z"/>
	</g>
</g>
</svg>
