<?xml version="1.0" encoding="utf-8"?>
<!-- Generator: Adobe Illustrator 16.0.0, SVG Export Plug-In . SVG Version: 6.00 Build 0)  -->
<!DOCTYPE svg PUBLIC "-//W3C//DTD SVG 1.1//EN" "http://www.w3.org/Graphics/SVG/1.1/DTD/svg11.dtd">
<svg version="1.1" id="图层_1" xmlns="http://www.w3.org/2000/svg" xmlns:xlink="http://www.w3.org/1999/xlink" x="0px" y="0px"
	 width="100px" height="100px" viewBox="0 0 100 100" enable-background="new 0 0 100 100" xml:space="preserve">
<g>
	<g>
		<path fill="#FFFFFF" d="M28.108,16.111h17.553c0.078,0,0.168-0.074,0.219-0.145c0.023-0.094,0-0.207-0.051-0.268L37.063,1.09
			c-0.098-0.104-0.258-0.104-0.35,0L27.94,15.699c-0.063,0.061-0.074,0.174-0.051,0.268C27.929,16.037,28.017,16.111,28.108,16.111z
			"/>
	</g>
	<g>
		<path fill="#FFFFFF" d="M84.526,53.502v17.553c0,0.079,0.072,0.168,0.143,0.22c0.094,0.023,0.207,0,0.27-0.052l14.609-8.765
			c0.102-0.099,0.102-0.259,0-0.351l-14.609-8.772c-0.063-0.063-0.176-0.075-0.27-0.052C84.599,53.323,84.526,53.411,84.526,53.502z
			"/>
	</g>
	<g>
		
			<rect x="0.902" y="50.251" transform="matrix(0.6705 0.7419 -0.7419 0.6705 56.2995 -20.2622)" fill="#FFFFFF" width="100.118" height="6"/>
	</g>
	<g>
		<path fill="#FFFFFF" d="M12.089,75.438l-4.152,6.384l4.225,6.842H9.017l-1.632-2.832c-0.408-0.721-0.792-1.417-1.176-2.209H6.161
			c-0.385,0.768-0.769,1.465-1.2,2.232L3.4,88.664H0.376l4.272-6.721l-4.104-6.505h3.072L5.2,78.103
			c0.433,0.744,0.792,1.416,1.177,2.136h0.048c0.384-0.744,0.768-1.463,1.152-2.16l1.512-2.64H12.089z"/>
	</g>
	<g>
		<path fill="#FFFFFF" d="M68.058,9.541l-3.191,9.168c-1.561,4.345-2.664,6.793-4.248,8.329c-1.201,1.104-2.426,1.56-3.072,1.704
			l-0.721-2.353c2.881-1.032,3.912-3.72,3.912-4.08c0-0.144-0.023-0.312-0.145-0.576L56.058,9.541h3.047l2.4,7.439
			c0.264,0.865,0.529,1.873,0.721,2.641h0.072c0.191-0.768,0.455-1.752,0.695-2.641l2.137-7.439H68.058z"/>
	</g>
	<g>
		<rect x="33.884" y="13.57" fill="#FFFFFF" width="6" height="85.418"/>
	</g>
	<g>
		<rect x="0.62" y="59.277" fill="#FFFFFF" width="90.539" height="6"/>
	</g>
</g>
</svg>
