<?xml version="1.0" encoding="utf-8"?>
<!-- Generator: Adobe Illustrator 16.0.0, SVG Export Plug-In . SVG Version: 6.00 Build 0)  -->
<!DOCTYPE svg PUBLIC "-//W3C//DTD SVG 1.1//EN" "http://www.w3.org/Graphics/SVG/1.1/DTD/svg11.dtd">
<svg version="1.1" id="图层_1" xmlns="http://www.w3.org/2000/svg" xmlns:xlink="http://www.w3.org/1999/xlink" x="0px" y="0px"
	 width="100px" height="100px" viewBox="0 0 100 100" enable-background="new 0 0 100 100" xml:space="preserve">
<g>
	<path fill="#7EBF40" d="M25.6,34.622c0,3.141,2.106,5.708,4.754,5.868c1.835,10.762,9.797,18.858,19.346,18.858
		c9.547,0,17.521-8.097,19.369-18.879c0.102,0.021,0.213,0.021,0.336,0.021c2.752,0,4.996-2.618,4.996-5.868
		c0-2.865-1.772-5.252-4.082-5.746c0,0,5.341-16.76-5.861-21.53C63.093-7.099,35.73,4.231,35.73,4.231
		c-14.031,6.806-7.266,25.104-7.266,25.104h0.008C26.786,30.262,25.6,32.289,25.6,34.622z M30.61,30.026c0.042,0,0.097,0,0.132,0
		l0.404,0.025v-1.363l1.472-7.796c0.908-1.308,1.777-2.11,1.777-2.11c12.426,0.505,22.145-5.23,22.145-5.23
		c8.362-5.985,10.964,16.774,10.964,16.774l0.273-0.047l1.089-0.21c0.186-0.032,0.355-0.043,0.538-0.043
		c0.914,0,1.788,0.452,2.464,1.24c0.76,0.895,1.182,2.077,1.182,3.355c0,1.283-0.422,2.487-1.182,3.382
		c-0.676,0.792-1.55,1.222-2.464,1.222c-0.073,0-0.146,0-0.234,0l-1.239-0.1l-0.195,1.14c-0.849,5.026-3.148,9.562-6.428,12.833
		c-1.617,1.591-3.438,2.834-5.375,3.68c-1.982,0.863-4.086,1.32-6.233,1.32c-2.12,0-4.223-0.457-6.201-1.32
		c-1.967-0.846-3.762-2.089-5.372-3.68c-3.297-3.271-5.585-7.807-6.441-12.812l-0.161-0.997l-1.082-0.064
		c-1.911-0.1-3.493-2.173-3.493-4.604c0-1.278,0.416-2.461,1.181-3.355C28.803,30.479,29.7,30.026,30.61,30.026z"/>
	<path fill="#7EBF40" d="M37.033,36.2h8.45c1.617,0,2.923-1.2,2.923-2.703v-2.49h3.179v2.49c0,1.503,1.313,2.703,2.921,2.703h8.454
		c1.605,0,2.923-1.2,2.923-2.703v-4.976c0-1.506-1.317-2.713-2.923-2.713h-8.454c-1.607,0-2.921,1.207-2.921,2.713v1.7h-3.179v-1.7
		c0-1.506-1.306-2.713-2.923-2.713h-8.45c-1.614,0-2.916,1.207-2.916,2.713v4.976C34.117,35,35.419,36.2,37.033,36.2z
		 M52.243,28.521c0-1.161,1.017-2.103,2.263-2.103h8.454c1.242,0,2.259,0.941,2.259,2.103v4.976c0,1.154-1.017,2.092-2.259,2.092
		h-8.454c-1.246,0-2.263-0.938-2.263-2.092V28.521z M34.776,28.521c0-1.161,1.014-2.103,2.257-2.103h8.45
		c1.254,0,2.261,0.941,2.261,2.103v1.7v0.785v2.49c0,1.154-1.007,2.092-2.261,2.092h-8.45c-1.243,0-2.257-0.938-2.257-2.092V28.521z
		"/>
	<path fill="#7EBF40" d="M90,85.86c0-0.181-0.021-0.363-0.043-0.54H90l-0.309-10.923c-1.46-7.388-8.229-13.746-17.914-17.634
		L54.606,78.619l-2.117-8.064c1.411-0.8,2.352-2.241,2.352-3.899c0-2.522-2.204-4.581-4.938-4.581c-2.72,0-4.94,2.059-4.94,4.581
		c0,1.658,0.951,3.1,2.36,3.899l-2.076,7.855L28.188,56.764c-9.662,3.888-16.444,10.246-17.894,17.634L10,85.32h0.037
		C10.02,85.497,10,85.68,10,85.86c0,7.81,17.903,14.146,39.995,14.146C72.09,100.006,90,93.67,90,85.86z"/>
</g>
</svg>
