<?xml version="1.0" encoding="utf-8"?>
<!-- Generator: Adobe Illustrator 16.0.0, SVG Export Plug-In . SVG Version: 6.00 Build 0)  -->
<!DOCTYPE svg PUBLIC "-//W3C//DTD SVG 1.1//EN" "http://www.w3.org/Graphics/SVG/1.1/DTD/svg11.dtd">
<svg version="1.1" id="图层_1" xmlns="http://www.w3.org/2000/svg" xmlns:xlink="http://www.w3.org/1999/xlink" x="0px" y="0px"
	 width="100px" height="100px" viewBox="0 0 100 100" enable-background="new 0 0 100 100" xml:space="preserve">
<g>
	<g>
		<path fill="#464E55" d="M48.249,83.076"/>
	</g>
	<g>
		<g>
			<polygon fill="#FFFFFF" points="68.723,79.82 60.363,72.021 60.363,75.976 58.529,75.976 6.345,75.976 6.324,83.512 
				50.564,83.512 58.613,83.512 60.332,83.512 60.332,87.806 68.723,79.82 			"/>
			<path fill="#FFFFFF" d="M59.832,88.972v-4.96H5.823l0.022-8.536h54.018V70.87l9.589,8.946L59.832,88.972z M6.825,83.012h54.007
				v3.628l7.161-6.815l-7.13-6.653v3.305H6.844L6.825,83.012z"/>
		</g>
	</g>
	<g>
		<path fill="#FFFFFF" stroke="#FFFFFF" stroke-miterlimit="10" d="M48.202,90.612"/>
	</g>
	<g>
		<g>
			<path fill="#FFFFFF" stroke="#FFFFFF" stroke-miterlimit="10" d="M40.969,11.668"/>
		</g>
		<g>
			<polygon fill="#FFFFFF" points="40.723,11.453 41.874,28.352 36.868,25.42 35.747,27.59 31.299,36.176 6.873,83.313 1.96,79.146 
				30.618,22.648 26.124,19.864 			"/>
			<path fill="#FFFFFF" d="M7.028,84.101l-5.692-4.829l0.178-0.353l28.451-56.087l-4.815-2.983l16.018-9.229l1.271,18.641
				l-5.367-3.143l-5.327,10.288L7.028,84.101z M2.584,79.02l4.134,3.507l29.948-57.805l4.645,2.721l-1.032-15.156l-13.18,7.594
				l4.173,2.585l-0.207,0.41L2.584,79.02z"/>
		</g>
	</g>
	<g>
		<g>
			<path fill="#FFFFFF" stroke="#FFFFFF" stroke-miterlimit="10" d="M97.136,11.668"/>
		</g>
		<g>
			<polygon fill="#FFFFFF" points="96.89,11.453 98.041,28.352 93.035,25.42 91.914,27.59 87.466,36.176 63.04,83.313 
				58.127,79.146 86.785,22.648 82.291,19.864 			"/>
			<path fill="#FFFFFF" d="M63.195,84.101l-5.692-4.829l0.178-0.353l28.451-56.087l-4.815-2.983l16.018-9.229l1.271,18.641
				l-5.367-3.143L87.91,36.406L63.195,84.101z M58.751,79.02l4.134,3.507l29.948-57.805l4.645,2.721l-1.032-15.156l-13.18,7.594
				l4.173,2.585l-0.207,0.41L58.751,79.02z"/>
		</g>
	</g>
	<g>
		<g>
			<polyline fill="#FFFFFF" points="97.122,17.188 89.061,25.172 89.061,20.879 87.021,20.879 78.965,20.879 34.726,20.879 
				34.747,13.345 86.931,13.345 88.763,13.345 88.763,9.388 97.122,17.188 			"/>
			<path fill="#FFFFFF" d="M88.561,26.371v-4.992H34.225l0.023-8.534h54.015V8.237l9.581,8.94L88.561,26.371z M35.227,20.379h54.334
				v3.594l6.84-6.773l-7.138-6.661v3.307H35.246L35.227,20.379z"/>
		</g>
	</g>
</g>
</svg>
