<?xml version="1.0" encoding="utf-8"?>
<!-- Generator: Adobe Illustrator 16.0.0, SVG Export Plug-In . SVG Version: 6.00 Build 0)  -->
<!DOCTYPE svg PUBLIC "-//W3C//DTD SVG 1.1//EN" "http://www.w3.org/Graphics/SVG/1.1/DTD/svg11.dtd">
<svg version="1.1" id="图层_1" xmlns="http://www.w3.org/2000/svg" xmlns:xlink="http://www.w3.org/1999/xlink" x="0px" y="0px"
	 width="101px" height="101px" viewBox="0 0 101 101" enable-background="new 0 0 101 101" xml:space="preserve">
<g>
	<g>
		<path fill="#FFFFFF" d="M28.607,16.611H46.16c0.079,0,0.168-0.074,0.22-0.145c0.023-0.094,0-0.207-0.052-0.269L37.563,1.588
			c-0.099-0.103-0.259-0.103-0.351,0L28.44,16.198c-0.063,0.062-0.075,0.175-0.052,0.269C28.429,16.537,28.517,16.611,28.607,16.611
			z"/>
	</g>
	<g>
		<path fill="#FFFFFF" d="M85.025,54.001v17.553c0,0.079,0.073,0.168,0.144,0.22c0.094,0.023,0.207,0,0.269-0.052l14.609-8.765
			c0.103-0.099,0.103-0.259,0-0.351l-14.609-8.772c-0.062-0.063-0.175-0.075-0.269-0.052C85.099,53.823,85.025,53.911,85.025,54.001
			z"/>
	</g>
	<g>
		
			<rect x="1.401" y="50.75" transform="matrix(0.6705 0.7419 -0.7419 0.6705 56.8342 -20.4682)" fill="#FFFFFF" width="100.119" height="6"/>
	</g>
	<g>
		<path fill="#FFFFFF" d="M12.589,75.938l-4.152,6.384l4.225,6.841H9.517l-1.632-2.832c-0.408-0.72-0.792-1.417-1.176-2.208H6.661
			c-0.385,0.768-0.769,1.464-1.2,2.232L3.9,89.163H0.876l4.272-6.721l-4.104-6.504h3.072L5.7,78.602
			c0.433,0.744,0.792,1.416,1.177,2.136h0.048c0.384-0.744,0.768-1.464,1.152-2.16l1.512-2.64H12.589z"/>
	</g>
	<g>
		<path fill="#FFFFFF" d="M68.558,10.04l-3.192,9.169c-1.561,4.344-2.664,6.792-4.248,8.329c-1.2,1.104-2.425,1.56-3.072,1.704
			l-0.721-2.352c2.881-1.032,3.913-3.721,3.913-4.081c0-0.144-0.024-0.312-0.145-0.576L56.557,10.04h3.048l2.4,7.44
			c0.264,0.864,0.528,1.873,0.72,2.641h0.072c0.192-0.768,0.456-1.752,0.696-2.641l2.136-7.44H68.558z"/>
	</g>
	<g>
		<rect x="34.384" y="14.069" fill="#FFFFFF" width="6" height="85.419"/>
	</g>
	<g>
		<rect x="1.12" y="59.777" fill="#FFFFFF" width="90.538" height="6"/>
	</g>
</g>
</svg>
