<?xml version="1.0" encoding="utf-8"?>
<!-- Generator: Adobe Illustrator 16.0.0, SVG Export Plug-In . SVG Version: 6.00 Build 0)  -->
<!DOCTYPE svg PUBLIC "-//W3C//DTD SVG 1.1//EN" "http://www.w3.org/Graphics/SVG/1.1/DTD/svg11.dtd">
<svg version="1.1" id="图层_1" xmlns="http://www.w3.org/2000/svg" xmlns:xlink="http://www.w3.org/1999/xlink" x="0px" y="0px"
	 width="100px" height="100px" viewBox="0 0 100 100" enable-background="new 0 0 100 100" xml:space="preserve">
<g>
	<g>
		<g>
			<g>
				<rect x="29.496" y="2.841" fill="#FFFFFF" width="65.508" height="17.244"/>
			</g>
		</g>
		<g>
			<g>
				<path fill="#FFFFFF" d="M8.664,7.331V4.309h0.703c2.156,0,3.762-0.422,4.816-1.264c0.867-0.699,1.301-1.542,1.301-2.529h4.045
					V22.41h-4.924V7.331H8.664z"/>
				<path fill="#FFFFFF" d="M20.025,22.913h-5.916V7.835H8.168V3.806h1.199c2.031,0,3.549-0.39,4.512-1.156
					c0.746-0.604,1.109-1.302,1.109-2.134V0.012h5.037V22.913z M15.102,21.906h3.932V1.02h-3.086
					c-0.127,0.93-0.613,1.742-1.453,2.419c-1.145,0.913-2.867,1.374-5.127,1.374H9.16v2.015h5.941V21.906z"/>
			</g>
		</g>
	</g>
	<g>
		<g>
			<g>
				<rect x="29.496" y="41.243" fill="#FFFFFF" width="65.508" height="17.245"/>
			</g>
		</g>
		<g>
			<g>
				<path fill="#FFFFFF" d="M10.65,46.659H5.867c0-3.085,1.08-5.263,3.236-6.538c1.359-0.801,3-1.202,4.924-1.202
					c2.484,0,4.535,0.611,6.152,1.835c1.617,1.223,2.428,2.913,2.428,5.072c0,1.665-0.564,3.135-1.689,4.409
					c-0.75,0.864-1.922,1.768-3.516,2.714c-1.031,0.638-2.053,1.265-3.061,1.881c-1.383,0.904-2.227,1.624-2.531,2.159h10.797v3.824
					H5.588c0-1.645,0.279-2.982,0.844-4.009c0.844-1.562,2.496-3.126,4.957-4.688c2.039-1.295,3.352-2.17,3.939-2.622
					c1.57-1.213,2.355-2.487,2.355-3.824c0-0.82-0.27-1.521-0.809-2.097c-0.633-0.678-1.512-1.017-2.637-1.017
					c-1.5,0-2.533,0.482-3.096,1.448C10.814,44.583,10.65,45.467,10.65,46.659z"/>
				<path fill="#FFFFFF" d="M23.104,61.317H5.09v-0.504c0-1.726,0.307-3.155,0.908-4.255c0.881-1.629,2.605-3.267,5.127-4.868
					c2.014-1.279,3.326-2.153,3.902-2.596c1.434-1.107,2.16-2.259,2.16-3.424c0-0.694-0.221-1.267-0.674-1.749
					c-0.539-0.579-1.285-0.86-2.275-0.86c-1.324,0-2.197,0.393-2.668,1.201c-0.279,0.491-0.424,1.299-0.424,2.396v0.503H5.371
					v-0.503c0-3.261,1.172-5.607,3.482-6.974c1.43-0.843,3.17-1.271,5.174-1.271c2.582,0,4.752,0.651,6.449,1.935
					c1.744,1.318,2.627,3.161,2.627,5.477c0,1.784-0.611,3.382-1.816,4.745c-0.777,0.896-2.002,1.843-3.633,2.813
					c-1.025,0.634-2.047,1.261-3.057,1.877c-0.771,0.508-1.303,0.908-1.668,1.226h10.174V61.317z M6.094,60.31h16.016v-2.816h-11.16
					l0.432-0.756c0.348-0.611,1.229-1.372,2.693-2.33c1.02-0.624,2.039-1.251,3.07-1.887c1.549-0.921,2.689-1.8,3.4-2.618
					c1.055-1.193,1.564-2.525,1.564-4.076c0-2.009-0.727-3.535-2.225-4.669c-1.523-1.151-3.496-1.735-5.857-1.735
					c-1.826,0-3.398,0.382-4.674,1.135c-1.895,1.119-2.871,2.954-2.98,5.599h3.791c0.043-1.042,0.225-1.83,0.549-2.4
					c0.658-1.131,1.844-1.701,3.525-1.701c1.26,0,2.27,0.396,2.996,1.175c0.627,0.669,0.945,1.491,0.945,2.442
					c0,1.496-0.859,2.917-2.553,4.226c-0.598,0.461-1.936,1.352-3.975,2.647c-2.377,1.509-3.986,3.023-4.785,4.503
					C6.404,57.891,6.145,58.986,6.094,60.31z"/>
			</g>
		</g>
	</g>
	<g>
		<g>
			<g>
				<rect x="29.496" y="79.647" fill="#FFFFFF" width="65.508" height="17.244"/>
			</g>
		</g>
		<g>
			<g>
				<path fill="#FFFFFF" d="M12.039,89.333v-3.084h0.773c1.172,0,2.051-0.134,2.639-0.401c1.031-0.452,1.547-1.305,1.547-2.559
					c0-0.658-0.176-1.224-0.527-1.696c-0.539-0.74-1.406-1.11-2.602-1.11c-1.455,0-2.439,0.493-2.955,1.479
					c-0.281,0.535-0.422,1.234-0.422,2.097h-4.57c0-2.137,0.668-3.822,2.004-5.057c1.43-1.314,3.516-1.973,6.258-1.973
					c2.018,0,3.717,0.432,5.1,1.295c1.758,1.09,2.637,2.693,2.637,4.811c0,1.027-0.316,1.933-0.949,2.713
					c-0.516,0.638-1.195,1.12-2.039,1.45c1.219,0.391,2.15,1.027,2.795,1.912c0.645,0.883,0.967,1.963,0.967,3.237
					c0,2.076-0.785,3.772-2.355,5.088s-3.621,1.974-6.154,1.974c-2.086,0-3.82-0.36-5.203-1.08C6.66,97.236,5.5,95.161,5.5,92.2
					h4.816c-0.023,0.967,0.152,1.758,0.527,2.374c0.609,0.986,1.641,1.48,3.094,1.48c1.057,0,1.912-0.287,2.568-0.863
					c0.75-0.658,1.125-1.573,1.125-2.744c0-1.316-0.645-2.21-1.934-2.683C14.9,89.477,13.68,89.333,12.039,89.333z"/>
				<path fill="#FFFFFF" d="M14.184,100.013c-2.154,0-3.982-0.382-5.43-1.136c-2.488-1.278-3.75-3.524-3.75-6.677v-0.503h5.822
					l-0.014,0.516c-0.021,0.861,0.131,1.567,0.455,2.097c0.514,0.834,1.389,1.241,2.67,1.241c0.941,0,1.676-0.241,2.244-0.74
					c0.641-0.563,0.953-1.337,0.953-2.363c0-1.105-0.512-1.808-1.607-2.21c-0.736-0.266-1.91-0.401-3.488-0.401h-0.496v-4.09h1.27
					c1.096,0,1.914-0.12,2.434-0.357c0.859-0.377,1.256-1.042,1.256-2.1c0-0.551-0.141-1.007-0.428-1.394
					c-0.447-0.614-1.168-0.91-2.205-0.91c-1.268,0-2.09,0.396-2.518,1.213c-0.24,0.459-0.363,1.086-0.363,1.86v0.504H5.426v-0.504
					c0-2.274,0.729-4.102,2.166-5.43c1.518-1.396,3.736-2.104,6.592-2.104c2.1,0,3.902,0.461,5.359,1.37
					c1.906,1.182,2.873,2.944,2.873,5.239c0,1.144-0.357,2.163-1.063,3.033c-0.338,0.42-0.746,0.78-1.215,1.08
					c0.818,0.415,1.484,0.971,1.986,1.661c0.707,0.968,1.064,2.158,1.064,3.538c0,2.225-0.852,4.066-2.535,5.476
					C18.998,99.309,16.822,100.013,14.184,100.013z M6.008,92.704c0.121,2.506,1.17,4.234,3.197,5.275
					c1.309,0.682,2.982,1.025,4.979,1.025c2.402,0,4.367-0.625,5.84-1.858c1.463-1.226,2.174-2.763,2.174-4.699
					c0-1.159-0.293-2.148-0.869-2.938c-0.578-0.794-1.436-1.376-2.545-1.732l-1.354-0.433l1.324-0.518
					c0.76-0.297,1.377-0.733,1.834-1.299c0.563-0.694,0.836-1.478,0.836-2.394c0-1.947-0.785-3.38-2.4-4.381
					c-1.299-0.811-2.926-1.222-4.84-1.222c-2.602,0-4.596,0.62-5.924,1.843c-1.133,1.046-1.734,2.418-1.828,4.181h3.58
					c0.049-0.722,0.205-1.336,0.465-1.83c0.605-1.159,1.746-1.747,3.393-1.747c1.354,0,2.365,0.442,3,1.315
					c0.414,0.556,0.625,1.228,0.625,1.995c0,1.446-0.639,2.491-1.848,3.021c-0.65,0.297-1.58,0.442-2.834,0.442h-0.277v2.081
					c1.463,0.026,2.555,0.177,3.328,0.456c1.48,0.543,2.264,1.635,2.264,3.157c0,1.317-0.438,2.369-1.297,3.124
					c-0.746,0.655-1.719,0.987-2.893,0.987c-1.629,0-2.811-0.578-3.514-1.717c-0.355-0.585-0.555-1.302-0.598-2.138H6.008z"/>
			</g>
		</g>
	</g>
</g>
</svg>
