<?xml version="1.0" encoding="utf-8"?>
<!-- Generator: Adobe Illustrator 16.0.0, SVG Export Plug-In . SVG Version: 6.00 Build 0)  -->
<!DOCTYPE svg PUBLIC "-//W3C//DTD SVG 1.1//EN" "http://www.w3.org/Graphics/SVG/1.1/DTD/svg11.dtd">
<svg version="1.1" id="图层_1" xmlns="http://www.w3.org/2000/svg" xmlns:xlink="http://www.w3.org/1999/xlink" x="0px" y="0px"
	 width="100px" height="100px" viewBox="0 0 100 100" enable-background="new 0 0 100 100" xml:space="preserve">
<g>
	<path fill="#FFFFFF" d="M57.891,75.11c-8.438-0.834-16.744-5.553-22.234-12.09c-5.465-6.541-7.986-15.47-6.898-23.903
		c1.746-13.661,7.867-20.209,17.4-25.079c-16.668,0-32.791,0.016-32.791,0.016c-3.648,0-5.068-3.125-5.068-4.762
		c0-1.643,1.408-4.555,5.254-4.555c0.047,0,52.123,0,52.123,0c1.309,0,2.572-1.057,2.572-2.379c0-1.309-1.264-2.347-2.572-2.347
		H13.742c-6.17,0-10.646,3.557-10.646,9.281v81.788c0,4.912,4.01,8.932,8.908,8.932h48.311c4.895,0,9.107-4.02,9.107-8.932
		c0,0,0.01-11.914,0.016-16.566l-0.125-0.342C66.662,74.88,61.752,75.501,57.891,75.11z"/>
	<path fill="#FFFFFF" d="M94.741,68.317l-10.18-11.695c2.113-3.541,3.356-7.405,3.729-11.497c0.617-7.198-1.582-14.197-6.208-19.756
		c-4.643-5.528-12.38-9.657-20.663-9.657c-13.844,0-25.639,10.854-26.839,24.698c-0.633,7.176,1.566,14.19,6.188,19.734
		c4.652,5.526,11.158,8.87,18.315,9.567c4.41,0.418,8.385-0.431,11.299-1.467L80.77,80.12c2.532,3.253,6.71,3.292,7.013,3.292
		c2.12,0,4.201-0.766,5.86-2.152c1.873-1.566,3.02-3.777,3.221-6.229C97.089,72.606,96.338,70.216,94.741,68.317z M78.512,44.233
		c-0.766,8.789-8.255,15.669-17.05,15.669c-0.504,0-1-0.026-1.495-0.065c-9.419-0.816-16.39-9.163-15.558-18.606
		c0.76-8.785,8.23-15.671,17.01-15.671C71.944,25.559,79.334,34.793,78.512,44.233z"/>
</g>
</svg>
