<?xml version="1.0" encoding="utf-8"?>
<!-- Generator: Adobe Illustrator 16.0.0, SVG Export Plug-In . SVG Version: 6.00 Build 0)  -->
<!DOCTYPE svg PUBLIC "-//W3C//DTD SVG 1.1//EN" "http://www.w3.org/Graphics/SVG/1.1/DTD/svg11.dtd">
<svg version="1.1" id="图层_1" xmlns="http://www.w3.org/2000/svg" xmlns:xlink="http://www.w3.org/1999/xlink" x="0px" y="0px"
	 width="100px" height="100px" viewBox="0 0 100 100" enable-background="new 0 0 100 100" xml:space="preserve">
<g>
	<path fill="#FFFFFF" d="M93.063,58.583l-0.049-27.53c0,0,0.309-5.143-2.077-7.381c0,0-26.376-18.872-31.441-20.563
		c0,0-3.949-1.692-7.331,0c0,0-36.079,13.045-42.562,18.02c0,0-0.707,0.466-1.039,1.188c-0.827,1.118-1.814,2.954-1.592,5.211
		l2.952,32.456c0,0,0.059,6.892,4.131,9.398L45.189,95.86c0,0,2.723,2.327,4.811,1.667c0.01,0,0.763-0.135,1.525-0.685
		c6.53-4.709,37.18-27.498,38.439-29.52C89.965,67.323,93.063,65.73,93.063,58.583z M72.52,19.494c3.525,0,6.389,1.967,6.389,4.386
		s-2.863,4.382-6.389,4.382c-3.532,0-6.383-1.963-6.383-4.382S68.987,19.494,72.52,19.494z M53.896,7.203
		c3.101,0,5.607,1.78,5.607,3.966c0,2.197-2.507,3.968-5.607,3.968c-3.089,0-5.602-1.771-5.602-3.968
		C48.295,8.983,50.808,7.203,53.896,7.203z M48.727,32.347c3.965,0,7.184,2.239,7.184,4.998c0,2.764-3.219,5.004-7.184,5.004
		c-3.96,0-7.167-2.24-7.167-5.004C41.56,34.586,44.767,32.347,48.727,32.347z M29.535,17.596c3.516,0,6.359,1.98,6.359,4.429
		c0,2.447-2.843,4.436-6.359,4.436c-3.512,0-6.359-1.988-6.359-4.436C23.175,19.576,26.023,17.596,29.535,17.596z M24.686,71.144
		c-1.474,1.188-4.492-0.124-6.727-2.913c-2.239-2.803-2.858-6.02-1.387-7.197c1.479-1.186,4.488,0.126,6.723,2.913
		C25.537,66.743,26.163,69.966,24.686,71.144z M38.431,64.285c-1.691,1.347-5.32-0.38-8.12-3.874
		c-2.789-3.481-3.694-7.408-2.013-8.762c1.69-1.354,5.32,0.378,8.109,3.877C39.213,59.01,40.117,62.938,38.431,64.285z
		 M76.973,65.782c-2.74,3.755-6.596,5.607-8.617,4.137c-2.021-1.472-1.443-5.712,1.302-9.467c2.735-3.762,6.594-5.618,8.611-4.137
		C80.299,57.787,79.707,62.033,76.973,65.782z M91.761,30.805l-35.737,23.26c-4.224,1.729-4.09,5.258-4.09,5.258L51.25,93.516
		c-0.131,0.565-0.225,1.074-0.439,1.414c-1.006,1.598-2.838,0.893-3.479,0.359c-0.202-0.167-0.436-0.729-0.436-0.729l-3.001-34.807
		c0-2.069-2.042-4.388-2.042-4.388L9.437,28.638l-0.921-1.123c-1.256-3.139,1.94-3.521,1.94-3.521l0.884,0.097L46.4,48.913
		c2.268,1.691,4.289,0.039,4.289,0.039l38.717-21.124c0.565-0.209,1.099-0.315,1.48-0.209
		C93.037,28.221,91.761,30.805,91.761,30.805z"/>
</g>
</svg>
