<?xml version="1.0" encoding="utf-8"?>
<!-- Generator: Adobe Illustrator 16.0.0, SVG Export Plug-In . SVG Version: 6.00 Build 0)  -->
<!DOCTYPE svg PUBLIC "-//W3C//DTD SVG 1.1//EN" "http://www.w3.org/Graphics/SVG/1.1/DTD/svg11.dtd">
<svg version="1.1" id="图层_1" xmlns="http://www.w3.org/2000/svg" xmlns:xlink="http://www.w3.org/1999/xlink" x="0px" y="0px"
	 width="101px" height="101px" viewBox="0 0 101 101" enable-background="new 0 0 101 101" xml:space="preserve">
<g>
	<g>
		<path fill="#FFFFFF" d="M38.568,50.5c0,9.686,4.706,18.246,11.933,23.594c7.227-5.348,11.932-13.908,11.932-23.594
			S57.728,32.252,50.5,26.902C43.274,32.252,38.568,40.814,38.568,50.5z"/>
	</g>
	<g>
		<path fill="#FFFFFF" d="M33.061,82.817c-17.819,0-32.315-14.499-32.315-32.317s14.497-32.316,32.315-32.316
			c17.817,0,32.314,14.498,32.314,32.316S50.878,82.817,33.061,82.817z M33.061,24.068c-14.575,0-26.432,11.855-26.432,26.432
			c0,14.574,11.857,26.432,26.432,26.432c14.574,0,26.43-11.858,26.43-26.432C59.491,35.924,47.635,24.068,33.061,24.068z"/>
	</g>
	<g>
		<path fill="#FFFFFF" d="M67.939,82.817c-17.816,0-32.313-14.499-32.313-32.317s14.497-32.316,32.313-32.316
			c17.821,0,32.315,14.498,32.315,32.316S85.761,82.817,67.939,82.817z M67.939,24.068c-14.572,0-26.429,11.855-26.429,26.432
			c0,14.574,11.857,26.432,26.429,26.432c14.576,0,26.434-11.858,26.434-26.432C94.373,35.924,82.516,24.068,67.939,24.068z"/>
	</g>
</g>
</svg>
