<?xml version="1.0" encoding="utf-8"?>
<!-- Generator: Adobe Illustrator 16.0.0, SVG Export Plug-In . SVG Version: 6.00 Build 0)  -->
<!DOCTYPE svg PUBLIC "-//W3C//DTD SVG 1.1//EN" "http://www.w3.org/Graphics/SVG/1.1/DTD/svg11.dtd">
<svg version="1.1" id="图层_1" xmlns="http://www.w3.org/2000/svg" xmlns:xlink="http://www.w3.org/1999/xlink" x="0px" y="0px"
	 width="100px" height="100px" viewBox="0 0 100 100" enable-background="new 0 0 100 100" xml:space="preserve">
<g>
	<g>
		<path fill="#FFFFFF" d="M11.387,15.936h17.553c0.079,0,0.168-0.073,0.22-0.144c0.023-0.094,0-0.208-0.052-0.269L20.343,0.914
			c-0.099-0.102-0.259-0.102-0.351,0L11.22,15.523c-0.063,0.062-0.075,0.175-0.052,0.269C11.208,15.862,11.296,15.936,11.387,15.936
			z"/>
	</g>
	<g>
		<rect x="17.163" y="12.394" fill="#FFFFFF" width="6" height="86.769"/>
	</g>
	<g>
		<path fill="#FFFFFF" d="M84.403,65.429v17.553c0,0.08,0.073,0.168,0.144,0.221c0.094,0.023,0.207,0,0.269-0.053l14.609-8.764
			c0.103-0.1,0.103-0.26,0-0.352l-14.609-8.771c-0.062-0.064-0.175-0.076-0.269-0.053C84.477,65.251,84.403,65.339,84.403,65.429z"
			/>
	</g>
	<g>
		<rect x="0.498" y="71.204" fill="#FFFFFF" width="90.538" height="6"/>
	</g>
	<g>
		<path fill="#FFFFFF" d="M22.461,77.249h-5c0-31.799,38.206-59.044,69.484-59.044v5c-14.21,0-30.375,6.138-43.243,16.419
			C30.203,50.409,22.461,64.123,22.461,77.249z"/>
	</g>
	<g>
		<g>
			<g>
				<line fill="#F5AD46" x1="19.854" y1="45.538" x2="73.605" y2="45.538"/>
			</g>
			<g>
				<g>
					<rect x="19.854" y="44.674" fill="#FFFFFF" width="5.156" height="1.777"/>
				</g>
				<g>
					<rect x="27.533" y="44.674" fill="#FFFFFF" width="5.156" height="1.777"/>
				</g>
				<g>
					<rect x="35.211" y="44.674" fill="#FFFFFF" width="5.156" height="1.777"/>
				</g>
				<g>
					<rect x="42.892" y="44.674" fill="#FFFFFF" width="5.154" height="1.777"/>
				</g>
				<g>
					<rect x="50.568" y="44.674" fill="#FFFFFF" width="5.156" height="1.777"/>
				</g>
				<g>
					<rect x="58.249" y="44.674" fill="#FFFFFF" width="5.155" height="1.777"/>
				</g>
				<g>
					<rect x="65.927" y="44.674" fill="#FFFFFF" width="5.154" height="1.777"/>
				</g>
			</g>
		</g>
		<g>
			<g>
				<line fill="#F5AD46" x1="73.605" y1="23.971" x2="73.605" y2="77.587"/>
			</g>
			<g>
				<g>
					<rect x="72.692" y="23.971" fill="#FFFFFF" width="1.777" height="5.143"/>
				</g>
				<g>
					<rect x="72.692" y="31.63" fill="#FFFFFF" width="1.777" height="5.143"/>
				</g>
				<g>
					<rect x="72.692" y="39.289" fill="#FFFFFF" width="1.777" height="5.143"/>
				</g>
				<g>
					<rect x="72.692" y="46.95" fill="#FFFFFF" width="1.777" height="5.142"/>
				</g>
				<g>
					<rect x="72.692" y="54.607" fill="#FFFFFF" width="1.777" height="5.144"/>
				</g>
				<g>
					<rect x="72.692" y="62.269" fill="#FFFFFF" width="1.777" height="5.143"/>
				</g>
				<g>
					<rect x="72.692" y="69.927" fill="#FFFFFF" width="1.777" height="5.143"/>
				</g>
			</g>
		</g>
		<g>
			<g>
				<line fill="#F5AD46" x1="35.876" y1="45.538" x2="35.876" y2="77.249"/>
			</g>
			<g>
				<g>
					<rect x="34.963" y="45.538" fill="#FFFFFF" width="1.777" height="3.042"/>
				</g>
				<g>
					<rect x="34.963" y="50.068" fill="#FFFFFF" width="1.777" height="3.042"/>
				</g>
				<g>
					<rect x="34.963" y="54.598" fill="#FFFFFF" width="1.777" height="3.042"/>
				</g>
				<g>
					<rect x="34.963" y="59.129" fill="#FFFFFF" width="1.777" height="3.041"/>
				</g>
				<g>
					<rect x="34.963" y="63.658" fill="#FFFFFF" width="1.777" height="3.042"/>
				</g>
				<g>
					<rect x="34.963" y="68.189" fill="#FFFFFF" width="1.777" height="3.041"/>
				</g>
				<g>
					<rect x="34.963" y="72.719" fill="#FFFFFF" width="1.777" height="3.041"/>
				</g>
			</g>
		</g>
		<g>
			<g>
				<line fill="#F5AD46" x1="19.854" y1="24.673" x2="74.214" y2="24.673"/>
			</g>
			<g>
				<g>
					<rect x="19.854" y="23.809" fill="#FFFFFF" width="5.214" height="1.777"/>
				</g>
				<g>
					<rect x="27.62" y="23.809" fill="#FFFFFF" width="5.214" height="1.777"/>
				</g>
				<g>
					<rect x="35.385" y="23.809" fill="#FFFFFF" width="5.215" height="1.777"/>
				</g>
				<g>
					<rect x="43.152" y="23.809" fill="#FFFFFF" width="5.213" height="1.777"/>
				</g>
				<g>
					<rect x="50.916" y="23.809" fill="#FFFFFF" width="5.215" height="1.777"/>
				</g>
				<g>
					<rect x="58.684" y="23.809" fill="#FFFFFF" width="5.214" height="1.777"/>
				</g>
				<g>
					<rect x="66.448" y="23.809" fill="#FFFFFF" width="5.213" height="1.777"/>
				</g>
			</g>
		</g>
	</g>
</g>
</svg>
