<?xml version="1.0" encoding="utf-8"?>
<!-- Generator: Adobe Illustrator 16.0.0, SVG Export Plug-In . SVG Version: 6.00 Build 0)  -->
<!DOCTYPE svg PUBLIC "-//W3C//DTD SVG 1.1//EN" "http://www.w3.org/Graphics/SVG/1.1/DTD/svg11.dtd">
<svg version="1.1" id="图层_1" xmlns="http://www.w3.org/2000/svg" xmlns:xlink="http://www.w3.org/1999/xlink" x="0px" y="0px"
	 width="100px" height="100px" viewBox="0 0 100 100" enable-background="new 0 0 100 100" xml:space="preserve">
<g>
	<path fill="#7EBF40" d="M20.611,32.281c-8.555,0-13.543,1.123-15.608,1.729v17.002h2.841c1.492,0,2.695,1.443,2.695,3.225
		c0,1.674-1.072,3.039-2.442,3.195c1.37,0.15,2.442,1.516,2.442,3.189c0,1.676-1.068,3.035-2.437,3.195
		c1.368,0.156,2.437,1.521,2.437,3.191c0,1.781-1.203,3.225-2.695,3.225H5.003v17.162c2.626-0.697,7.472-1.588,15.065-1.588
		c13.034,0,22.092,8.605,26.597,14.199V44.328C45.392,42.172,38.557,32.281,20.611,32.281z"/>
	<path fill="#7EBF40" d="M91.902,51.012h3.102V34.105c-2.517-0.611-8.634-1.824-17.525-1.824c-18.043,0-24.838,10.877-26.048,13.121
		v54.604c4.501-5.594,13.558-14.199,26.59-14.199c8.21,0,14.009,1.025,16.983,1.713V70.232h-3.102c-1.49,0-2.697-1.443-2.697-3.225
		c0-1.67,1.071-3.035,2.436-3.191c-1.364-0.16-2.436-1.52-2.436-3.195c0-1.674,1.071-3.039,2.441-3.189
		c-1.37-0.156-2.441-1.521-2.441-3.195C89.205,52.455,90.412,51.012,91.902,51.012z"/>
	<path fill="#7EBF40" d="M70.596,24.105c0.085-1.303-0.565-2.451-1.601-3.074C68.279,7.85,61.772,0.006,49.331,0.006
		c-12.394,0-18.942,7.844-19.661,21.01c-1.038,0.635-1.695,1.775-1.612,3.09c0,0,0.135,2.057,0.33,4.42
		c12.435,2.059,18.497,8.729,20.636,11.75c2.158-3.182,8.381-10.363,21.29-12.389C70.482,25.805,70.596,24.105,70.596,24.105z"/>
</g>
</svg>
