<?xml version="1.0" encoding="utf-8"?>
<!-- Generator: Adobe Illustrator 16.0.0, SVG Export Plug-In . SVG Version: 6.00 Build 0)  -->
<!DOCTYPE svg PUBLIC "-//W3C//DTD SVG 1.1//EN" "http://www.w3.org/Graphics/SVG/1.1/DTD/svg11.dtd">
<svg version="1.1" id="图层_1" xmlns="http://www.w3.org/2000/svg" xmlns:xlink="http://www.w3.org/1999/xlink" x="0px" y="0px"
	 width="101px" height="101px" viewBox="0 0 101 101" enable-background="new 0 0 101 101" xml:space="preserve">
<g>
	<g>
		<path fill="#FFFFFF" d="M88.073,71.813v13.561c0,0.074,0.054,0.147,0.115,0.181c0.065,0.022,0.15,0.009,0.215-0.042l11.286-6.776
			c0.08-0.081,0.08-0.196,0-0.272l-11.286-6.781c-0.065-0.055-0.15-0.063-0.215-0.035C88.127,71.67,88.073,71.743,88.073,71.813z"/>
	</g>
	<g>
		<path fill="#FFFFFF" d="M23.654,99.005h-1.969l-1.148-4.348h-3.609l-1.148,4.348h-1.969l4.102-14.191h1.641L23.654,99.005z
			 M20.127,93.099l-1.313-5.004H18.65l-1.313,5.004H20.127z"/>
	</g>
	<g>
		<path fill="#FFFFFF" d="M74.077,94.821c0,1.587-0.438,2.68-1.313,3.281c-0.875,0.603-1.997,0.902-3.363,0.902H65.3V84.978h4.266
			c1.366,0,2.392,0.356,3.076,1.066c0.683,0.711,1.025,1.559,1.025,2.543s-0.233,1.71-0.697,2.174
			c-0.465,0.465-0.943,0.779-1.436,0.943c0.656,0.164,1.243,0.506,1.764,1.025C73.817,93.25,74.077,93.947,74.077,94.821z
			 M71.78,88.587c0-0.71-0.205-1.23-0.615-1.559s-0.917-0.492-1.518-0.492h-2.461v4.348h2.379c0.601,0,1.12-0.177,1.559-0.533
			C71.561,89.995,71.78,89.407,71.78,88.587z M72.108,94.821c0-0.874-0.287-1.489-0.861-1.846c-0.574-0.355-1.218-0.533-1.928-0.533
			h-2.133v5.004h1.887c0.984,0,1.735-0.191,2.256-0.574C71.848,96.49,72.108,95.806,72.108,94.821z"/>
	</g>
	<g>
		<path fill="#FFFFFF" d="M95.141,10.609c-0.055,2.078-0.492,3.555-1.313,4.43s-1.805,1.313-2.953,1.313
			c-1.313,0-2.434-0.533-3.363-1.6c-0.931-1.066-1.395-2.775-1.395-5.127c0-2.57,0.451-4.484,1.354-5.742s2.063-1.887,3.486-1.887
			c1.202,0,2.201,0.451,2.994,1.354c0.792,0.902,1.161,2.174,1.107,3.814h-1.805c0-1.203-0.192-2.105-0.574-2.707
			c-0.383-0.602-0.958-0.902-1.723-0.902c-0.875,0-1.573,0.451-2.092,1.354c-0.521,0.902-0.779,2.42-0.779,4.553
			c0,1.969,0.259,3.35,0.779,4.143c0.519,0.793,1.189,1.189,2.01,1.189c0.601,0,1.148-0.287,1.641-0.861s0.738-1.682,0.738-3.322
			H95.141z"/>
	</g>
	<g>
		<path fill="#FFFFFF" d="M60.431,78.547l-3.988-0.313c0.351-4.568,3.582-13.181,13.287-13.181c0.031,0,0.062,0,0.093,0l-0.022,4
			c-0.022,0-0.045,0-0.066,0C61.318,69.054,60.463,78.158,60.431,78.547z"/>
	</g>
	<g>
		<path fill="#FFFFFF" d="M72.071,37.48c-6.644,0-10.191-5.678-10.35-5.939l3.409-2.093c0.12,0.192,2.994,4.681,8.109,3.946
			l0.57,3.959C73.209,37.44,72.629,37.48,72.071,37.48z"/>
	</g>
	<g>
		<path fill="#FFFFFF" d="M33.803,79.816l-3.289-2.277c1.267-1.828,1.741-3.577,1.412-5.197c-0.546-2.688-3.102-4.371-3.128-4.387
			l2.139-3.381c0.164,0.104,4.018,2.586,4.909,6.971C36.401,74.274,35.713,77.057,33.803,79.816z"/>
	</g>
	<g>
		<rect x="1.25" y="75.597" fill="#FFFFFF" width="91.833" height="6"/>
	</g>
	<g>
		<path fill="#FFFFFF" d="M73.465,81.388H7.242l74.31-75.005L73.465,81.388z M21.633,75.388h46.444l5.672-52.604L21.633,75.388z"/>
	</g>
</g>
</svg>
