<?xml version="1.0" encoding="utf-8"?>
<!-- Generator: Adobe Illustrator 16.0.0, SVG Export Plug-In . SVG Version: 6.00 Build 0)  -->
<!DOCTYPE svg PUBLIC "-//W3C//DTD SVG 1.1//EN" "http://www.w3.org/Graphics/SVG/1.1/DTD/svg11.dtd">
<svg version="1.1" id="图层_1" xmlns="http://www.w3.org/2000/svg" xmlns:xlink="http://www.w3.org/1999/xlink" x="0px" y="0px"
	 width="100px" height="100px" viewBox="0 0 100 100" enable-background="new 0 0 100 100" xml:space="preserve">
<g>
	<path fill="#FFFFFF" d="M96.206,91.541l-4.666,4.666L50,54.668L8.46,96.207l-4.666-4.666L45.333,50L3.801,8.459l4.666-4.666
		L50,45.328L91.532,3.793L96.2,8.459L54.661,50L96.206,91.541L96.206,91.541z M50.202,73.752c-4.381,0-7.933,3.553-7.933,7.932
		c0,4.38,3.552,7.933,7.933,7.933s7.933-3.553,7.933-7.933C58.135,77.305,54.583,73.752,50.202,73.752L50.202,73.752z
		 M50.202,26.321c4.381,0,7.933-3.553,7.933-7.935c0-4.38-3.552-7.932-7.933-7.932s-7.933,3.552-7.933,7.932
		C42.27,22.769,45.821,26.321,50.202,26.321L50.202,26.321z M26.489,50.031c0-4.38-3.553-7.932-7.932-7.932
		c-4.38,0-7.934,3.552-7.934,7.932c0,4.382,3.554,7.934,7.934,7.934C22.937,57.965,26.489,54.413,26.489,50.031L26.489,50.031z
		 M73.914,50.031c0,4.382,3.554,7.934,7.933,7.934c4.381,0,7.932-3.552,7.932-7.934c0-4.38-3.551-7.932-7.932-7.932
		C77.468,42.1,73.914,45.651,73.914,50.031L73.914,50.031z M73.914,50.031"/>
</g>
</svg>
