<?xml version="1.0" encoding="utf-8"?>
<!-- Generator: Adobe Illustrator 16.0.0, SVG Export Plug-In . SVG Version: 6.00 Build 0)  -->
<!DOCTYPE svg PUBLIC "-//W3C//DTD SVG 1.1//EN" "http://www.w3.org/Graphics/SVG/1.1/DTD/svg11.dtd">
<svg version="1.1" id="图层_1" xmlns="http://www.w3.org/2000/svg" xmlns:xlink="http://www.w3.org/1999/xlink" x="0px" y="0px"
	 width="100px" height="100px" viewBox="0 0 100 100" enable-background="new 0 0 100 100" xml:space="preserve">
<g>
	<path fill="#868686" d="M94.986,79.149V11.567H84.211V5.771H71.168V0.003H5c0,0,0,61.146,0,80.054s14.002,19.946,16.405,19.946
		s33.839,0,53.882,0C96.205,100.003,94.986,79.149,94.986,79.149z M64.717,90.211c0,0-41.527,0-43.723,0s-8.718-1.611-8.718-12.053
		c0-10.44,0-70.176,0-70.176h52.441V90.211z M80.297,90.211c-8.992,0-8.992-10.154-8.992-10.154V11.411h5.766v64.002
		c0,0-0.197,5.339,3.502,5.339c3.381-0.02,3.088-5.188,3.088-5.188V17.579h5.629v62.478C89.289,80.057,89.563,90.211,80.297,90.211z
		"/>
	<rect x="20.994" y="26.318" fill="#868686" width="18.258" height="6.255"/>
	<rect x="20.994" y="37.646" fill="#868686" width="34.387" height="6.255"/>
	<rect x="44.057" y="26.318" fill="#868686" width="11.324" height="6.255"/>
	<rect x="20.994" y="49.316" fill="#868686" width="18.258" height="6.255"/>
	<rect x="20.994" y="73.802" fill="#868686" width="18.258" height="6.255"/>
	<rect x="20.994" y="61.559" fill="#868686" width="23.063" height="6.256"/>
	<rect x="44.057" y="49.316" fill="#868686" width="11.324" height="6.255"/>
	<rect x="48.277" y="61.559" fill="#868686" width="7.104" height="6.256"/>
</g>
</svg>
