<?xml version="1.0" encoding="utf-8"?>
<!-- Generator: Adobe Illustrator 16.0.0, SVG Export Plug-In . SVG Version: 6.00 Build 0)  -->
<!DOCTYPE svg PUBLIC "-//W3C//DTD SVG 1.1//EN" "http://www.w3.org/Graphics/SVG/1.1/DTD/svg11.dtd">
<svg version="1.1" id="图层_1" xmlns="http://www.w3.org/2000/svg" xmlns:xlink="http://www.w3.org/1999/xlink" x="0px" y="0px"
	 width="100px" height="100px" viewBox="0 0 100 100" enable-background="new 0 0 100 100" xml:space="preserve">
<g>
	<g>
		<g>
			<g>
				<g>
					<path fill="#FFFFFF" d="M19.112,82.961v1.286c-1.747-0.27-3.346-0.845-4.797-1.728c-1.452-0.882-2.699-1.966-3.74-3.251
						c-1.041-1.286-1.857-2.72-2.446-4.3s-0.883-3.203-0.883-4.868c0-0.809,0.073-1.764,0.221-2.866
						c0.146-1.103,0.315-2.205,0.505-3.308c0.189-1.102,0.357-2.143,0.505-3.123c0.146-0.979,0.221-1.751,0.221-2.314
						c0-0.857-0.169-1.715-0.505-2.572c-0.337-0.857-0.815-1.641-1.436-2.352c-0.621-0.71-1.373-1.316-2.257-1.819
						c-0.884-0.502-1.884-0.839-2.998-1.01v-1.507c1.114-0.171,2.119-0.502,3.014-0.992s1.651-1.09,2.272-1.801
						c0.62-0.71,1.094-1.494,1.42-2.352s0.489-1.727,0.489-2.609c0-0.588-0.074-1.365-0.221-2.332
						c-0.147-0.968-0.315-1.997-0.505-3.087s-0.358-2.187-0.505-3.289c-0.147-1.103-0.221-2.069-0.221-2.903
						c0-1.665,0.294-3.288,0.883-4.868s1.405-3.007,2.446-4.28s2.288-2.352,3.74-3.234c1.451-0.881,3.05-1.457,4.797-1.727v1.286
						c-1.242,0.343-2.31,0.803-3.203,1.378c-0.895,0.576-1.631,1.237-2.21,1.984c-0.578,0.748-1.01,1.556-1.294,2.425
						c-0.283,0.87-0.426,1.771-0.426,2.701c0,0.638,0.073,1.47,0.221,2.499c0.147,1.028,0.311,2.1,0.489,3.215
						s0.342,2.211,0.489,3.289s0.221,1.996,0.221,2.755c0,1.226-0.194,2.45-0.584,3.675c-0.389,1.225-0.973,2.395-1.751,3.509
						c-0.778,1.115-1.752,2.138-2.919,3.068c-1.168,0.932-2.521,1.715-4.056,2.352c1.515,0.638,2.851,1.439,4.008,2.407
						s2.13,2.021,2.919,3.16c0.789,1.139,1.384,2.327,1.783,3.563c0.399,1.237,0.6,2.456,0.6,3.656c0,0.76-0.073,1.679-0.221,2.756
						c-0.147,1.078-0.311,2.175-0.489,3.289s-0.342,2.186-0.489,3.215s-0.221,1.861-0.221,2.499c0,0.931,0.143,1.83,0.426,2.7
						c0.284,0.869,0.716,1.678,1.294,2.426c0.579,0.746,1.315,1.408,2.21,1.983C16.803,82.121,17.87,82.594,19.112,82.961z"/>
				</g>
				<g>
					<path fill="#FFFFFF" d="M20.112,85.413l-1.152-0.178c-1.871-0.288-3.608-0.915-5.164-1.861
						c-1.544-0.938-2.889-2.107-3.998-3.476c-1.105-1.367-1.982-2.908-2.606-4.58c-0.627-1.685-0.945-3.439-0.945-5.218
						c0-0.851,0.077-1.86,0.229-2.999c0.148-1.114,0.319-2.229,0.511-3.344c0.188-1.095,0.354-2.129,0.501-3.103
						c0.14-0.93,0.21-1.659,0.21-2.166c0-0.727-0.146-1.469-0.436-2.207c-0.293-0.745-0.717-1.438-1.259-2.06
						c-0.543-0.621-1.216-1.163-1.997-1.607c-0.773-0.439-1.667-0.739-2.655-0.891l-0.849-0.13v-3.224l0.849-0.13
						c0.993-0.152,1.896-0.449,2.685-0.881c0.787-0.432,1.46-0.964,2-1.582c0.539-0.617,0.956-1.307,1.238-2.049
						c0.281-0.739,0.424-1.498,0.424-2.254c0-0.531-0.07-1.265-0.209-2.183c-0.146-0.96-0.313-1.982-0.502-3.065
						c-0.193-1.112-0.365-2.232-0.511-3.328c-0.152-1.138-0.229-2.159-0.229-3.035c0-1.778,0.318-3.533,0.945-5.218
						c0.624-1.673,1.502-3.209,2.609-4.563c1.108-1.355,2.452-2.518,3.995-3.456c1.56-0.946,3.297-1.572,5.164-1.86l1.152-0.178
						v3.214l-0.734,0.202c-1.136,0.313-2.121,0.736-2.928,1.255c-0.794,0.512-1.454,1.103-1.961,1.756
						c-0.505,0.654-0.887,1.369-1.134,2.123c-0.249,0.767-0.376,1.571-0.376,2.391c0,0.589,0.071,1.382,0.211,2.357
						c0.146,1.022,0.309,2.089,0.486,3.198c0.18,1.123,0.345,2.227,0.493,3.312c0.152,1.115,0.229,2.088,0.229,2.891
						c0,1.323-0.212,2.662-0.631,3.978c-0.417,1.314-1.052,2.586-1.885,3.778c-0.828,1.188-1.876,2.29-3.115,3.278
						c-0.726,0.578-1.524,1.107-2.389,1.581c0.852,0.483,1.641,1.027,2.359,1.628c1.221,1.021,2.264,2.151,3.1,3.358
						c0.841,1.214,1.484,2.501,1.912,3.825c0.431,1.332,0.648,2.666,0.648,3.964c0,0.804-0.077,1.777-0.229,2.892
						c-0.148,1.085-0.313,2.189-0.493,3.312c-0.178,1.108-0.34,2.175-0.486,3.198c-0.14,0.976-0.211,1.769-0.211,2.357
						c0,0.818,0.127,1.623,0.377,2.391c0.246,0.754,0.628,1.469,1.134,2.124c0.508,0.653,1.167,1.244,1.96,1.754
						c0.813,0.523,1.804,0.959,2.945,1.297l0.717,0.212V85.413z M8.045,53.581c0.443,0.614,0.805,1.273,1.078,1.971
						c0.381,0.973,0.574,1.96,0.574,2.938c0,0.614-0.076,1.42-0.231,2.462c-0.148,0.988-0.318,2.036-0.509,3.146
						c-0.188,1.09-0.354,2.18-0.499,3.27c-0.141,1.052-0.212,1.972-0.212,2.734c0,1.539,0.275,3.06,0.82,4.519
						c0.547,1.47,1.316,2.822,2.286,4.021c0.528,0.652,1.12,1.254,1.769,1.799c-0.072-0.087-0.144-0.175-0.212-0.263
						c-0.647-0.838-1.136-1.755-1.454-2.729c-0.315-0.969-0.476-1.981-0.476-3.011c0-0.693,0.075-1.557,0.23-2.641
						c0.148-1.035,0.313-2.111,0.492-3.231c0.178-1.106,0.339-2.195,0.485-3.267c0.141-1.024,0.212-1.906,0.212-2.62
						c0-1.089-0.186-2.216-0.551-3.349c-0.368-1.138-0.924-2.248-1.654-3.302C9.598,55.165,8.877,54.345,8.045,53.581z
						 M13.032,19.635c-0.615,0.523-1.178,1.096-1.683,1.714c-0.969,1.185-1.736,2.529-2.283,3.997
						c-0.545,1.459-0.82,2.979-0.82,4.519c0,0.787,0.071,1.72,0.212,2.771c0.145,1.091,0.312,2.174,0.499,3.251
						c0.19,1.097,0.359,2.133,0.508,3.107c0.156,1.031,0.232,1.843,0.232,2.482c0,1-0.187,1.997-0.555,2.965
						c-0.22,0.579-0.502,1.133-0.844,1.654c0.753-0.687,1.405-1.422,1.945-2.196c0.718-1.027,1.262-2.117,1.618-3.239
						c0.356-1.12,0.537-2.255,0.537-3.372c0-0.712-0.071-1.594-0.212-2.619c-0.146-1.071-0.308-2.159-0.485-3.267
						c-0.18-1.121-0.344-2.197-0.492-3.231c-0.155-1.084-0.23-1.947-0.23-2.641c0-1.029,0.16-2.043,0.475-3.011
						c0.318-0.974,0.808-1.891,1.454-2.727C12.949,19.739,12.99,19.687,13.032,19.635z"/>
				</g>
			</g>
			<g>
				<g>
					<path fill="#FFFFFF" d="M80.887,17.041v-1.286c1.746,0.27,3.346,0.846,4.797,1.727c1.452,0.883,2.704,1.967,3.756,3.252
						c1.052,1.287,1.867,2.72,2.446,4.3c0.578,1.58,0.867,3.203,0.867,4.868c0,0.809-0.073,1.758-0.221,2.848
						c-0.147,1.091-0.315,2.187-0.505,3.289c-0.189,1.102-0.357,2.138-0.505,3.105c-0.147,0.967-0.221,1.744-0.221,2.332
						c0,0.883,0.162,1.752,0.489,2.609c0.326,0.857,0.799,1.642,1.42,2.352c0.62,0.711,1.378,1.311,2.272,1.801
						c0.894,0.49,1.898,0.821,3.014,0.992v1.507c-1.115,0.171-2.114,0.502-2.998,0.991c-0.884,0.491-1.636,1.091-2.257,1.801
						c-0.62,0.711-1.1,1.495-1.436,2.352c-0.337,0.858-0.505,1.728-0.505,2.609c0,0.563,0.073,1.335,0.221,2.314
						c0.147,0.98,0.315,2.021,0.505,3.123c0.189,1.103,0.357,2.205,0.505,3.308s0.221,2.058,0.221,2.866
						c0,1.641-0.289,3.252-0.867,4.832c-0.579,1.58-1.395,3.013-2.446,4.299s-2.304,2.376-3.756,3.271
						c-1.451,0.894-3.051,1.476-4.797,1.745v-1.286c2.462-0.711,4.266-1.837,5.413-3.381c1.146-1.543,1.72-3.258,1.72-5.144
						c0-0.638-0.074-1.465-0.221-2.48c-0.147-1.017-0.316-2.083-0.505-3.197c-0.189-1.114-0.358-2.21-0.506-3.288
						s-0.221-1.996-0.221-2.756c0-1.25,0.194-2.492,0.584-3.729s0.979-2.407,1.768-3.51c0.789-1.102,1.762-2.118,2.919-3.05
						c1.157-0.931,2.514-1.714,4.071-2.352c-1.515-0.637-2.852-1.433-4.008-2.388c-1.157-0.956-2.131-2.003-2.919-3.143
						c-0.789-1.139-1.389-2.326-1.8-3.564c-0.41-1.236-0.615-2.467-0.615-3.692c0-0.759,0.073-1.677,0.221-2.755
						s0.316-2.174,0.506-3.289c0.188-1.115,0.357-2.187,0.505-3.215c0.146-1.029,0.221-1.861,0.221-2.499
						c0-0.931-0.143-1.831-0.426-2.701c-0.284-0.869-0.716-1.677-1.294-2.425c-0.579-0.747-1.321-1.408-2.226-1.984
						C83.17,17.844,82.106,17.384,80.887,17.041z"/>
				</g>
				<g>
					<path fill="#FFFFFF" d="M79.887,85.413v-3.204L80.609,82c2.235-0.646,3.88-1.66,4.888-3.017
						c1.024-1.379,1.522-2.866,1.522-4.547c0-0.583-0.071-1.369-0.211-2.338c-0.146-1.008-0.313-2.067-0.501-3.173
						c-0.19-1.124-0.361-2.23-0.511-3.319c-0.152-1.116-0.229-2.089-0.229-2.892c0-1.347,0.212-2.702,0.63-4.03
						c0.42-1.333,1.063-2.608,1.908-3.791c0.839-1.171,1.884-2.264,3.105-3.247c0.723-0.581,1.524-1.111,2.396-1.587
						c-0.846-0.478-1.63-1.013-2.343-1.603c-1.226-1.012-2.27-2.137-3.104-3.345c-0.839-1.21-1.487-2.495-1.927-3.817
						c-0.442-1.333-0.666-2.681-0.666-4.008c0-0.803,0.077-1.774,0.229-2.891c0.149-1.088,0.32-2.194,0.511-3.32
						c0.188-1.106,0.355-2.169,0.501-3.189c0.14-0.981,0.211-1.775,0.211-2.357c0-0.819-0.127-1.624-0.377-2.392
						c-0.246-0.753-0.628-1.468-1.134-2.123c-0.504-0.65-1.168-1.24-1.972-1.752c-0.818-0.521-1.801-0.944-2.921-1.259l-0.729-0.205
						v-3.21l1.152,0.178c1.868,0.288,3.605,0.914,5.163,1.86c1.543,0.938,2.893,2.106,4.011,3.473
						c1.119,1.369,1.997,2.913,2.611,4.59c0.616,1.684,0.929,3.437,0.929,5.212c0,0.852-0.077,1.855-0.229,2.981
						c-0.149,1.103-0.319,2.21-0.511,3.324c-0.188,1.096-0.355,2.125-0.502,3.087c-0.139,0.911-0.209,1.645-0.209,2.182
						c0,0.759,0.143,1.517,0.424,2.253c0.283,0.745,0.699,1.435,1.238,2.05c0.539,0.618,1.212,1.149,2,1.582s1.69,0.729,2.685,0.881
						l0.849,0.13v3.224l-0.849,0.13c-0.99,0.152-1.888,0.447-2.665,0.878c-0.777,0.432-1.447,0.966-1.988,1.584
						c-0.542,0.622-0.966,1.314-1.258,2.059c-0.289,0.736-0.436,1.492-0.436,2.244c0,0.514,0.07,1.242,0.21,2.166
						c0.146,0.974,0.313,2.008,0.501,3.102c0.191,1.115,0.361,2.23,0.511,3.345c0.152,1.139,0.229,2.148,0.229,2.999
						c0,1.751-0.313,3.492-0.928,5.176c-0.615,1.678-1.494,3.221-2.611,4.588c-1.117,1.366-2.465,2.54-4.006,3.489
						c-1.56,0.96-3.298,1.593-5.169,1.882L79.887,85.413z M91.789,53.779c-0.792,0.712-1.482,1.476-2.058,2.278
						c-0.723,1.011-1.27,2.097-1.626,3.229c-0.357,1.133-0.538,2.286-0.538,3.429c0,0.713,0.071,1.595,0.212,2.62
						c0.146,1.067,0.313,2.152,0.501,3.256c0.189,1.124,0.359,2.197,0.508,3.222c0.156,1.078,0.231,1.937,0.231,2.624
						c0,2.097-0.645,4.028-1.917,5.74c-0.029,0.039-0.059,0.078-0.089,0.117c0.601-0.52,1.153-1.086,1.651-1.695
						c0.977-1.194,1.744-2.543,2.282-4.01c0.534-1.462,0.806-2.973,0.806-4.488c0-0.763-0.071-1.683-0.212-2.733
						c-0.146-1.091-0.312-2.181-0.499-3.271c-0.19-1.108-0.36-2.156-0.509-3.144c-0.155-1.036-0.231-1.842-0.231-2.463
						c0-1.004,0.193-2.004,0.574-2.975C91.114,54.906,91.42,54.326,91.789,53.779z M86.97,19.639c0.041,0.05,0.081,0.101,0.12,0.152
						c0.647,0.837,1.137,1.754,1.454,2.727c0.315,0.969,0.476,1.982,0.476,3.012c0,0.686-0.075,1.549-0.23,2.64
						c-0.149,1.037-0.319,2.117-0.509,3.241c-0.188,1.104-0.355,2.189-0.501,3.258c-0.141,1.025-0.212,1.907-0.212,2.619
						c0,1.112,0.189,2.249,0.564,3.378c0.379,1.141,0.941,2.255,1.673,3.31c0.568,0.822,1.252,1.604,2.037,2.332
						c-0.404-0.582-0.734-1.207-0.985-1.866c-0.368-0.964-0.555-1.962-0.555-2.965c0-0.646,0.076-1.459,0.232-2.482
						c0.148-0.974,0.317-2.017,0.508-3.125c0.188-1.09,0.354-2.174,0.499-3.253c0.141-1.038,0.212-1.951,0.212-2.714
						c0-1.54-0.271-3.063-0.807-4.524c-0.537-1.466-1.305-2.815-2.281-4.011C88.154,20.742,87.587,20.165,86.97,19.639z"/>
				</g>
			</g>
		</g>
	</g>
	<g>
		<g>
			<g>
				<path fill="#FFFFFF" d="M66.315,54.86c1.884-2.271,3.68-3.405,5.388-3.405c0.597,0,1.147,0.1,1.65,0.299
					c0.503,0.198,0.941,0.532,1.316,1c0.374,0.468,0.667,1.088,0.877,1.86c0.211,0.772,0.316,1.737,0.316,2.896v6.863
					c0,0.69,0.038,1.234,0.114,1.632c0.075,0.398,0.207,0.699,0.395,0.904c0.188,0.204,0.438,0.333,0.755,0.386
					c0.315,0.053,0.714,0.079,1.193,0.079v0.632h-7.95v-0.632h0.333c0.526,0,0.938-0.047,1.237-0.141s0.523-0.254,0.676-0.482
					s0.248-0.535,0.29-0.922c0.04-0.386,0.061-0.871,0.061-1.456v-6.582c0-1.463-0.189-2.524-0.57-3.186
					c-0.38-0.661-1.021-0.991-1.922-0.991c-1.393,0-2.778,0.761-4.159,2.281v8.478c0,1.064,0.064,1.737,0.193,2.019
					c0.081,0.175,0.172,0.327,0.271,0.456s0.234,0.231,0.404,0.307c0.169,0.076,0.392,0.132,0.666,0.167
					c0.275,0.035,0.635,0.053,1.08,0.053v0.632h-7.951v-0.632h0.352c0.421,0,0.766-0.047,1.035-0.141s0.482-0.257,0.641-0.491
					s0.266-0.541,0.325-0.922c0.058-0.38,0.087-0.862,0.087-1.447v-5.968c0-1.907-0.047-3.083-0.14-3.527
					c-0.082-0.422-0.214-0.708-0.396-0.86s-0.424-0.229-0.729-0.229c-0.327,0-0.719,0.088-1.176,0.264l-0.263-0.632l4.844-1.966
					h0.755V54.86z"/>
				<path fill="#FFFFFF" d="M79.32,69.006H59.979v-2.632h1.352c0.382,0,0.595-0.046,0.707-0.085c0.065-0.023,0.103-0.051,0.14-0.106
					c0.051-0.075,0.121-0.226,0.166-0.517c0.05-0.326,0.075-0.763,0.075-1.293v-5.968c0-2.486-0.083-3.152-0.118-3.323
					c-0.03-0.15-0.06-0.242-0.08-0.293c-0.014,0.003-0.038,0-0.065,0c-0.139,0-0.394,0.034-0.816,0.197l-0.909,0.35l-1.023-2.462
					l5.959-2.419h1.95v1.924c1.478-1.291,2.926-1.924,4.388-1.924c0.721,0,1.4,0.124,2.019,0.369c0.662,0.261,1.244,0.7,1.729,1.305
					c0.46,0.575,0.817,1.322,1.062,2.223c0.236,0.866,0.352,1.899,0.352,3.158v6.863c0,0.624,0.032,1.11,0.097,1.443
					c0.059,0.311,0.141,0.408,0.15,0.418c0.011,0.012,0.048,0.052,0.181,0.074c0.261,0.043,0.606,0.065,1.029,0.065h1V69.006z
					 M73.618,67.006h1.634c-0.114-0.24-0.2-0.513-0.257-0.815c-0.089-0.461-0.132-1.057-0.132-1.817V57.51
					c0-1.063-0.095-1.949-0.281-2.632c-0.173-0.636-0.406-1.141-0.693-1.5c-0.267-0.332-0.562-0.56-0.902-0.693
					c-0.647-0.257-1.443-0.332-2.276-0.064c1.44,0.075,2.182,0.841,2.554,1.487c0.473,0.821,0.703,2.026,0.703,3.684v6.582
					c0,0.613-0.022,1.138-0.065,1.56C73.855,66.348,73.763,66.701,73.618,67.006z M64.008,67.006h1.69
					c-0.034-0.063-0.065-0.127-0.097-0.193c-0.143-0.311-0.286-0.84-0.286-2.439V52.634l-1.706,0.692
					c0.32,0.307,0.533,0.753,0.651,1.361c0.066,0.316,0.158,1.063,0.158,3.718v5.968c0,0.639-0.032,1.161-0.099,1.598
					C64.259,66.368,64.155,66.71,64.008,67.006z M69.37,66.374h1.333c0.554,0,0.825-0.06,0.938-0.095
					c0.111-0.035,0.135-0.07,0.144-0.083c0.027-0.041,0.095-0.17,0.128-0.476c0.036-0.348,0.055-0.803,0.055-1.348v-6.582
					c0-1.594-0.237-2.341-0.437-2.687c-0.14-0.243-0.374-0.49-1.056-0.49c-1.011,0-2.072,0.564-3.159,1.678v8.081
					c0,1.273,0.098,1.586,0.109,1.618c0.04,0.086,0.093,0.175,0.146,0.245c0.052,0.019,0.16,0.062,0.406,0.093
					c0.231,0.03,0.553,0.045,0.953,0.045H69.37z"/>
			</g>
		</g>
		<g>
			<g>
				<path fill="#FFFFFF" d="M52.852,45.249c0.271-7.753,3.743-19.52,4.149-20.854c0.398-1.338-5.621-1.201-6.16,0.131
					c-0.526,1.338-2.13,5.35-2.13,5.35s-3.477-4.545-8.155-6.148c-4.679-1.605-9.884,0.465-14.568,4.944
					c-4.017,3.829-7.218,16.177-3.074,24.459c4.147,8.293,9.889,9.895,13.898,9.627c4.011-0.266,10.826-5.344,11.899-7.619
					c1.07-2.268,0.799,6.688,3.073,6.818c2.272,0.139,5.878,0.801,6.421-0.131C58.735,60.895,52.584,53,52.852,45.249z
					 M36.634,57.109c-6.022,0-10.92-6.321-10.92-14.12c0-7.805,4.897-14.125,10.92-14.125c6.028,0,10.918,6.32,10.918,14.125
					C47.552,50.788,42.662,57.109,36.634,57.109z"/>
			</g>
		</g>
	</g>
</g>
</svg>
