<?xml version="1.0" encoding="utf-8"?>
<!-- Generator: Adobe Illustrator 16.0.0, SVG Export Plug-In . SVG Version: 6.00 Build 0)  -->
<!DOCTYPE svg PUBLIC "-//W3C//DTD SVG 1.1//EN" "http://www.w3.org/Graphics/SVG/1.1/DTD/svg11.dtd">
<svg version="1.1" id="图层_1" xmlns="http://www.w3.org/2000/svg" xmlns:xlink="http://www.w3.org/1999/xlink" x="0px" y="0px"
	 width="100px" height="100px" viewBox="0 0 100 100" enable-background="new 0 0 100 100" xml:space="preserve">
<g>
	<g>
		<path fill="#FFFFFF" d="M28.215,16.111h17.553c0.079,0,0.168-0.073,0.22-0.144c0.023-0.094,0-0.208-0.052-0.269L37.171,1.089
			c-0.099-0.102-0.259-0.102-0.351,0l-8.772,14.609c-0.063,0.062-0.075,0.175-0.052,0.269
			C28.036,16.038,28.124,16.111,28.215,16.111z"/>
	</g>
	<g>
		<path fill="#FFFFFF" d="M84.633,53.502v17.553c0,0.08,0.073,0.168,0.144,0.221c0.094,0.023,0.207,0,0.269-0.053l14.609-8.764
			c0.103-0.1,0.103-0.26,0-0.352l-14.609-8.771c-0.062-0.064-0.175-0.076-0.269-0.053C84.706,53.324,84.633,53.412,84.633,53.502z"
			/>
	</g>
	<g>
		
			<rect x="1.008" y="50.251" transform="matrix(0.6705 0.7419 -0.7419 0.6705 56.3342 -20.3415)" fill="#FFFFFF" width="100.119" height="6"/>
	</g>
	<g>
		<path fill="#FFFFFF" d="M12.196,75.438l-4.152,6.384l4.225,6.842H9.124l-1.632-2.832c-0.408-0.721-0.792-1.417-1.176-2.209H6.269
			c-0.385,0.768-0.769,1.465-1.2,2.232l-1.561,2.809H0.483l4.272-6.721l-4.104-6.505h3.072l1.584,2.664
			c0.433,0.744,0.792,1.416,1.177,2.136h0.048c0.384-0.744,0.768-1.463,1.152-2.16l1.512-2.64H12.196z"/>
	</g>
	<g>
		<path fill="#FFFFFF" d="M68.166,9.54l-3.193,9.169c-1.561,4.344-2.664,6.792-4.248,8.329c-1.199,1.104-2.424,1.56-3.072,1.704
			l-0.721-2.352c2.881-1.032,3.914-3.721,3.914-4.081c0-0.144-0.025-0.312-0.145-0.576L56.164,9.54h3.049l2.4,7.44
			c0.264,0.864,0.527,1.873,0.719,2.641h0.072c0.193-0.768,0.457-1.752,0.697-2.641l2.135-7.44H68.166z"/>
	</g>
	<g>
		<rect x="33.991" y="13.57" fill="#FFFFFF" width="6" height="85.418"/>
	</g>
	<g>
		<rect x="0.728" y="59.277" fill="#FFFFFF" width="90.538" height="6"/>
	</g>
</g>
</svg>
