<?xml version="1.0" encoding="utf-8"?>
<!-- Generator: Adobe Illustrator 16.0.0, SVG Export Plug-In . SVG Version: 6.00 Build 0)  -->
<!DOCTYPE svg PUBLIC "-//W3C//DTD SVG 1.1//EN" "http://www.w3.org/Graphics/SVG/1.1/DTD/svg11.dtd">
<svg version="1.1" id="图层_1" xmlns="http://www.w3.org/2000/svg" xmlns:xlink="http://www.w3.org/1999/xlink" x="0px" y="0px"
	 width="101px" height="101.001px" viewBox="0 0 101 101.001" enable-background="new 0 0 101 101.001" xml:space="preserve">
<g>
	<g>
		<path fill="#FFFFFF" d="M89.084,83.948c3.674,4.419-6.286,12.682-10.274,8.261c-2.074-3.145-32.791-42.879-34.421-45.332
			c-1.63-2.462,2.321-9.557,5.906-5.833C52.388,42.947,86.496,80.644,89.084,83.948z"/>
		<polygon fill="#FFFFFF" points="49.604,42.616 45.534,46.06 31.792,29.785 35.865,26.343 		"/>
		<path fill="#FFFFFF" d="M39.269,26.736c-5.703-5.332-7.176-15.266-2.611-19.446c4.561-4.189,11.41-1.523,11.41-1.523
			s2.325-2.52,1.146-3.044c-6.662-2.945-17.877,1.521-25.114,5.706c-7.225,4.184-12.361,15.215-12.361,15.215
			s-3.001-3.184-3.849-3.9c-0.86-0.709-5.708,4.245-3.364,7.198c0,0,6.879,7.734,8.783,9.64c1.903,1.898,7.302-2.826,6.556-3.714
			c-0.737-0.884-3.752-4.278-3.752-4.278s3.752-6.845,7.183-5.71c3.427,1.142,9.416,10.137,9.416,10.137
			S38.512,29.021,39.269,26.736z"/>
	</g>
	<g>
		<path fill="#FFFFFF" d="M46.823,91.462c-0.532,0.808-2.239-9.413-8.999-14.51c-6.09-4.603-17.387-4.036-16.332-5.054
			c5.875-6.199,15.81-2.702,18.314-5.644l2.494-3.218c0,0,21.082-27.169,22.361-28.811c1.645-2.125-0.54-13.34,1.082-17.192
			c0,0,9.439,15.894,24.091,18.066c-2.739,1.91-14.961,2.63-17.153,5.01c-1.686,1.836-22.545,29.001-22.545,29.001
			s-1.311,1.292-2.463,3.242C45.604,75.814,51.2,84.546,46.823,91.462z"/>
		<path fill="#FFFFFF" d="M18.354,89.519l9.95-12.82l8.373,1.046l3.308,8.019L29.882,98.785c5.787,1.369,11.917-0.448,15.593-5.187
			c5.146-6.631,3.559-16.462-3.539-21.971c-7.096-5.509-17.019-4.606-22.163,2.027C16.214,78.242,15.883,84.356,18.354,89.519z"/>
		<path fill="#FFFFFF" d="M95.505,15.514l-9.941,12.816c0,0-4.502,2.295-8.369-1.05c-3.875-3.342-3.313-8.013-3.313-8.013
			L83.978,6.245c-5.78-1.366-11.914,0.448-15.585,5.193c-5.149,6.625-3.56,16.46,3.535,21.967c7.096,5.501,17.021,4.599,22.166-2.03
			C97.646,26.788,97.984,20.67,95.505,15.514z"/>
	</g>
</g>
</svg>
