<?xml version="1.0" encoding="utf-8"?>
<!-- Generator: Adobe Illustrator 16.0.0, SVG Export Plug-In . SVG Version: 6.00 Build 0)  -->
<!DOCTYPE svg PUBLIC "-//W3C//DTD SVG 1.1//EN" "http://www.w3.org/Graphics/SVG/1.1/DTD/svg11.dtd">
<svg version="1.1" id="图层_1" xmlns="http://www.w3.org/2000/svg" xmlns:xlink="http://www.w3.org/1999/xlink" x="0px" y="0px"
	 width="100px" height="100px" viewBox="0 0 100 100" enable-background="new 0 0 100 100" xml:space="preserve">
<g>
	<g>
		<g>
			<path fill="#FFFFFF" d="M60.35,56.47L47.331,70.876l-1.319-0.834L58.43,56.47L46.012,42.792l1.2-0.834L60.35,56.47z"/>
			<polygon fill="#FFFFFF" points="47.686,73.466 42.922,70.456 55.725,56.465 42.999,42.449 47.515,39.313 63.047,56.469 			"/>
		</g>
	</g>
	<g>
		<g>
			<path fill="#FFFFFF" d="M80.541,27.004c-0.248,1.813-0.496,3.682-0.742,5.607c-0.248,1.927-0.486,3.875-0.713,5.846
				c-0.229,1.971-0.449,3.953-0.664,5.947s-0.41,3.962-0.586,5.904c-0.176,1.943-0.33,3.847-0.459,5.71
				c-0.131,1.863-0.234,3.65-0.313,5.361l0.215,0.017c1.027-2.197,2.135-4.135,3.32-5.812c1.184-1.676,2.389-3.081,3.613-4.214
				c1.223-1.133,2.438-1.988,3.643-2.565c1.203-0.578,2.34-0.867,3.408-0.867c0.898,0,1.691,0.145,2.383,0.434
				c0.689,0.289,1.289,0.674,1.797,1.155s0.93,1.037,1.27,1.665c0.338,0.629,0.611,1.286,0.82,1.972
				c0.207,0.686,0.354,1.379,0.439,2.081c0.084,0.703,0.127,1.359,0.127,1.972c0,1.688-0.193,3.265-0.576,4.732
				c-0.385,1.467-0.916,2.803-1.592,4.01c-0.678,1.206-1.479,2.279-2.402,3.22c-0.926,0.94-1.928,1.733-3.008,2.379
				c-1.082,0.646-2.221,1.136-3.418,1.47c-1.199,0.334-2.402,0.502-3.613,0.502c-0.809,0-1.619-0.08-2.432-0.238
				c-0.814-0.159-1.609-0.402-2.383-0.73c-0.775-0.329-1.508-0.751-2.197-1.266c-0.691-0.516-1.309-1.125-1.855-1.827
				c-0.457,0.997-0.918,1.813-1.387,2.447c-0.469,0.634-0.906,1.144-1.309,1.529l-1.016-0.222c0.715-1.732,1.242-3.814,1.582-6.244
				c0.338-2.43,0.598-5.18,0.781-8.25c0.064-1.313,0.146-2.81,0.244-4.485c0.098-1.677,0.197-3.444,0.303-5.302
				c0.104-1.858,0.215-3.758,0.332-5.701c0.117-1.942,0.234-3.832,0.352-5.667s0.227-3.574,0.332-5.217
				c0.104-1.642,0.201-3.098,0.293-4.366c0.012-0.272,0.109-0.507,0.293-0.705c0.182-0.198,0.41-0.357,0.684-0.477
				s0.582-0.206,0.928-0.263c0.344-0.057,0.686-0.085,1.025-0.085C78.854,26.461,79.682,26.642,80.541,27.004z M93.334,58.864
				c0-0.77-0.068-1.563-0.205-2.379c-0.137-0.815-0.352-1.555-0.645-2.217c-0.293-0.663-0.678-1.207-1.152-1.632
				C90.855,52.212,90.279,52,89.604,52c-0.795,0-1.58,0.173-2.354,0.518c-0.775,0.346-1.523,0.811-2.246,1.394
				c-0.723,0.584-1.416,1.258-2.08,2.022s-1.287,1.566-1.865,2.404c-0.58,0.839-1.102,1.686-1.563,2.54
				c-0.463,0.855-0.859,1.668-1.191,2.438s-0.59,1.47-0.771,2.099c-0.184,0.629-0.273,1.13-0.273,1.504
				c0.195,0.702,0.498,1.34,0.908,1.911c0.41,0.572,0.904,1.06,1.484,1.462c0.578,0.402,1.223,0.711,1.934,0.926
				c0.709,0.216,1.461,0.323,2.256,0.323c1.301,0,2.529-0.286,3.682-0.858s2.158-1.401,3.018-2.489s1.539-2.416,2.041-3.984
				C93.082,62.64,93.334,60.858,93.334,58.864z"/>
			<path fill="#FFFFFF" d="M72.236,74.535l-2.703-0.59l0.455-1.104c0.68-1.646,1.189-3.665,1.516-6.001
				c0.332-2.384,0.592-5.133,0.773-8.171c0.064-1.306,0.146-2.805,0.244-4.484l0.303-5.3c0.104-1.858,0.215-3.76,0.332-5.705
				c0.117-1.943,0.234-3.834,0.352-5.67l0.332-5.218c0.104-1.644,0.201-3.103,0.295-4.374c0.02-0.478,0.213-0.941,0.557-1.313
				c0.271-0.297,0.615-0.538,1.018-0.714c0.346-0.15,0.738-0.263,1.164-0.333c1.328-0.216,2.664-0.063,4.057,0.523l0.707,0.298
				l-0.104,0.76c-0.248,1.81-0.496,3.676-0.742,5.599c-0.248,1.923-0.484,3.867-0.711,5.833c-0.229,1.969-0.449,3.948-0.664,5.94
				c-0.213,1.988-0.408,3.95-0.584,5.887c-0.174,1.937-0.328,3.833-0.457,5.689c-0.029,0.414-0.057,0.825-0.084,1.232
				c0.484-0.819,0.982-1.591,1.492-2.313c1.219-1.725,2.48-3.195,3.752-4.371c1.289-1.195,2.598-2.115,3.889-2.733
				c2.459-1.18,4.84-1.194,6.609-0.454c0.801,0.336,1.506,0.791,2.1,1.353c0.578,0.549,1.07,1.192,1.461,1.915
				c0.367,0.687,0.67,1.41,0.896,2.155c0.223,0.74,0.383,1.496,0.475,2.252c0.09,0.747,0.135,1.45,0.135,2.093
				c0,1.76-0.205,3.437-0.607,4.984c-0.404,1.54-0.973,2.969-1.688,4.246c-0.719,1.279-1.58,2.434-2.563,3.433
				c-0.982,0.998-2.061,1.851-3.207,2.536c-1.156,0.689-2.387,1.219-3.662,1.574c-2.143,0.597-4.324,0.709-6.506,0.282
				c-0.881-0.172-1.75-0.438-2.582-0.791c-0.846-0.359-1.654-0.825-2.404-1.385c-0.355-0.267-0.697-0.558-1.021-0.872
				c-0.27,0.482-0.541,0.908-0.818,1.284c-0.498,0.673-0.975,1.23-1.42,1.657L72.236,74.535z M74.4,67.554l1.012,1.3
				c0.492,0.631,1.053,1.183,1.664,1.64c0.623,0.465,1.293,0.851,1.99,1.146c0.705,0.299,1.439,0.524,2.184,0.67
				c0.703,0.137,1.41,0.21,2.104,0.219c-0.717-0.037-1.406-0.155-2.059-0.354c-0.807-0.244-1.551-0.602-2.213-1.062
				c-0.67-0.465-1.25-1.037-1.727-1.7c-0.477-0.664-0.832-1.413-1.059-2.227l-0.037-0.268c0-0.478,0.104-1.062,0.314-1.784
				c0.189-0.658,0.463-1.403,0.813-2.214c0.07-0.163,0.145-0.329,0.221-0.496l-1.586-0.122l0.045-0.969
				c0.078-1.719,0.182-3.514,0.314-5.386c0.129-1.869,0.283-3.779,0.459-5.729c0.178-1.948,0.373-3.922,0.588-5.922
				c0.215-1.996,0.436-3.981,0.666-5.955c0.227-1.975,0.465-3.927,0.713-5.858c0.211-1.645,0.422-3.249,0.635-4.813
				c-0.783-0.229-1.506-0.258-2.244-0.139c-0.264,0.044-0.496,0.108-0.689,0.193c-0.146,0.063-0.26,0.141-0.346,0.235l-0.033,0.102
				c-0.092,1.266-0.189,2.719-0.293,4.356l-0.332,5.218c-0.117,1.834-0.234,3.723-0.352,5.664s-0.229,3.839-0.332,5.696
				l-0.303,5.305c-0.098,1.672-0.178,3.165-0.242,4.476c-0.186,3.101-0.451,5.903-0.791,8.339c-0.188,1.345-0.434,2.597-0.738,3.747
				c0.322-0.501,0.646-1.108,0.969-1.813L74.4,67.554z M89.604,51c0.926,0,1.732,0.3,2.395,0.891
				c0.582,0.521,1.053,1.184,1.402,1.974c0.324,0.735,0.564,1.562,0.715,2.456c0.146,0.867,0.219,1.723,0.219,2.544
				c0,2.084-0.268,3.984-0.799,5.648c-0.537,1.678-1.279,3.125-2.209,4.301c-0.947,1.198-2.076,2.129-3.357,2.765
				c-0.443,0.221-0.9,0.403-1.367,0.549c0.078-0.021,0.156-0.041,0.234-0.063c1.104-0.309,2.172-0.768,3.174-1.365
				c1-0.598,1.945-1.346,2.807-2.222c0.857-0.873,1.613-1.885,2.244-3.009c0.631-1.129,1.135-2.398,1.496-3.773
				c0.361-1.382,0.543-2.89,0.543-4.479c0-0.563-0.039-1.187-0.119-1.854c-0.078-0.639-0.215-1.282-0.404-1.91
				c-0.188-0.617-0.438-1.22-0.744-1.787c-0.289-0.533-0.65-1.01-1.076-1.413c-0.416-0.395-0.92-0.717-1.496-0.959
				c-1.242-0.518-3.027-0.521-4.971,0.413c-1.111,0.532-2.252,1.338-3.396,2.397c-1.168,1.081-2.338,2.446-3.477,4.058
				c-0.039,0.056-0.078,0.111-0.117,0.167c0.281-0.357,0.572-0.708,0.871-1.051c0.697-0.805,1.439-1.526,2.205-2.145
				c0.789-0.637,1.619-1.151,2.469-1.529C87.742,51.203,88.672,51,89.604,51z M78.266,66.793c0.162,0.531,0.404,1.02,0.715,1.454
				c0.344,0.478,0.76,0.889,1.242,1.224c0.49,0.341,1.047,0.606,1.652,0.79c0.613,0.187,1.273,0.28,1.967,0.28
				c1.141,0,2.23-0.254,3.238-0.754c1.014-0.504,1.914-1.249,2.676-2.214c0.781-0.986,1.41-2.222,1.875-3.669
				c0.467-1.467,0.703-3.163,0.703-5.04c0-0.711-0.064-1.456-0.191-2.214c-0.121-0.729-0.314-1.395-0.572-1.978
				c-0.234-0.528-0.537-0.963-0.904-1.291C90.373,53.122,90.035,53,89.604,53c-0.65,0-1.305,0.145-1.945,0.431
				c-0.691,0.308-1.373,0.731-2.025,1.259c-0.674,0.545-1.332,1.184-1.953,1.899c-0.643,0.739-1.246,1.52-1.797,2.317
				c-0.561,0.81-1.066,1.633-1.506,2.446c-0.445,0.822-0.832,1.615-1.154,2.359c-0.314,0.734-0.561,1.4-0.729,1.98
				C78.336,66.233,78.281,66.578,78.266,66.793z"/>
		</g>
	</g>
	<g>
		<g>
			<path fill="#FFFFFF" d="M26.685,45.68l2.32-0.428l-2.637,7.738c-1.055,3.079-2.051,6.627-2.988,10.644
				c-0.516,2.183-0.773,3.589-0.773,4.221c0,0.633,0.293,0.948,0.879,0.948c0.375,0,0.973-0.214,1.793-0.642
				c1.453-0.755,2.848-1.692,4.184-2.814l1.125,1.193c-2.672,2.121-4.383,3.405-5.133,3.854c-1.5,0.897-2.93,1.56-4.289,1.988
				c-0.891,0.285-1.758,0.428-2.602,0.428c-0.609,0-1.066-0.122-1.371-0.367c-0.305-0.244-0.457-0.601-0.457-1.07
				c0-0.306,0.094-0.724,0.281-1.254l1.406-4.159c-2.016,2.1-4.418,3.904-7.207,5.413c-1.711,0.938-3.281,1.407-4.711,1.407
				c-1.359,0-2.402-0.418-3.129-1.254c-0.984-1.121-1.477-2.59-1.477-4.404c0-2.161,0.662-4.567,1.986-7.219
				c1.324-2.65,3.1-5.057,5.326-7.218s4.57-3.752,7.031-4.771c1.898-0.774,4.336-1.162,7.313-1.162c0.75,0,1.512,0.041,2.285,0.122
				L26.685,45.68z M22.325,50.359c-1.266-0.224-2.332-0.336-3.199-0.336c-2.109,0-3.949,0.505-5.52,1.514
				c-1.57,1.01-3.029,2.824-4.377,5.444s-2.021,5.235-2.021,7.846c0,1.387,0.27,2.386,0.809,2.997
				c0.539,0.612,1.242,0.918,2.109,0.918c1.617,0,3.352-0.76,5.203-2.279c1.852-1.519,3.211-3.705,4.078-6.561L22.325,50.359z"/>
			<path fill="#FFFFFF" d="M18.563,73.81c-0.841,0-1.514-0.198-1.998-0.589c-0.378-0.302-0.83-0.87-0.83-1.849
				c0-0.426,0.111-0.945,0.339-1.588l0.174-0.513c-1.393,1.096-2.916,2.093-4.557,2.98c-1.848,1.013-3.595,1.527-5.187,1.527
				c-1.656,0-2.963-0.538-3.884-1.598c-1.141-1.3-1.722-3.004-1.722-5.061c0-2.308,0.704-4.887,2.092-7.666
				c1.368-2.739,3.228-5.259,5.524-7.488c2.308-2.239,4.779-3.914,7.345-4.978c2.017-0.822,4.604-1.238,7.695-1.238
				c0.589,0,1.193,0.024,1.803,0.073l0.745-1.054l4.398-0.812l-3.188,9.354c-1.04,3.036-2.036,6.585-2.961,10.549
				c-0.604,2.556-0.73,3.54-0.745,3.917c0.192-0.042,0.555-0.163,1.208-0.504c1.385-0.72,2.73-1.625,4.003-2.693l0.723-0.607
				l2.52,2.673l-0.853,0.677c-2.73,2.167-4.444,3.452-5.241,3.929c-1.557,0.932-3.071,1.633-4.502,2.084
				C20.484,73.649,19.507,73.81,18.563,73.81z M20.806,62.034l-2.842,8.404c-0.206,0.584-0.229,0.847-0.229,0.934
				c0,0.224,0.058,0.271,0.083,0.29c0.044,0.036,0.224,0.147,0.745,0.147c0.736,0,1.509-0.128,2.297-0.38
				c1.286-0.406,2.657-1.043,4.081-1.895c0.124-0.074,0.298-0.187,0.543-0.356c-0.866,0.43-1.489,0.624-1.999,0.624
				c-1.142,0-1.879-0.765-1.879-1.948c0-0.456,0.083-1.414,0.801-4.45c0.938-4.026,1.953-7.641,3.015-10.738l2.086-6.121
				l-0.241,0.044l-0.947,1.34l-0.582-0.062c-0.739-0.077-1.473-0.116-2.182-0.116c-2.831,0-5.165,0.366-6.935,1.088
				c-0.827,0.343-1.646,0.758-2.454,1.243c1.473-0.703,3.136-1.059,4.959-1.059c0.92,0,2.055,0.118,3.373,0.352l1.113,0.196
				l-3.249,10.623c-0.512,1.688-1.197,3.169-2.049,4.435L20.806,62.034z M11.497,51.979c-0.536,0.442-1.066,0.917-1.589,1.424
				c-2.135,2.072-3.86,4.409-5.128,6.947c-1.248,2.498-1.881,4.777-1.881,6.771c0,1.578,0.402,2.804,1.229,3.744
				c0.535,0.616,1.312,0.914,2.377,0.914c1.252,0,2.676-0.432,4.23-1.284c0.854-0.463,1.675-0.956,2.458-1.479
				c-2.266,1.042-4.576,1.003-5.927-0.531c-0.712-0.807-1.059-2.004-1.059-3.658c0-2.76,0.718-5.554,2.133-8.304
				C9.318,54.622,10.376,53.102,11.497,51.979z M19.126,51.023c-1.904,0-3.579,0.456-4.979,1.354
				c-1.413,0.909-2.769,2.612-4.028,5.061c-1.268,2.465-1.911,4.95-1.911,7.389c0,1.407,0.304,2.047,0.559,2.335
				c0.349,0.396,0.78,0.58,1.359,0.58c1.372,0,2.909-0.69,4.569-2.053c1.688-1.384,2.951-3.429,3.755-6.078l2.582-8.442
				C20.305,51.072,19.667,51.023,19.126,51.023z"/>
		</g>
	</g>
</g>
</svg>
