<?xml version="1.0" encoding="utf-8"?>
<!-- Generator: Adobe Illustrator 16.0.0, SVG Export Plug-In . SVG Version: 6.00 Build 0)  -->
<!DOCTYPE svg PUBLIC "-//W3C//DTD SVG 1.1//EN" "http://www.w3.org/Graphics/SVG/1.1/DTD/svg11.dtd">
<svg version="1.1" id="图层_1" xmlns="http://www.w3.org/2000/svg" xmlns:xlink="http://www.w3.org/1999/xlink" x="0px" y="0px"
	 width="101px" height="101px" viewBox="0 0 101 101" enable-background="new 0 0 101 101" xml:space="preserve">
<g>
	<g>
		<path fill="#FFFFFF" stroke="#FFFFFF" stroke-width="4" stroke-miterlimit="10" d="M36.479,58.239h13.379V46.65h2.82v11.589
			h13.319v2.088H52.678v12.789h-2.82V60.327H36.479V58.239z"/>
	</g>
	<g>
		<path fill="#FFFFFF" stroke="#FFFFFF" stroke-width="2" stroke-miterlimit="10" d="M81.375,27.509
			c-0.248,1.813-0.495,3.682-0.742,5.607c-0.248,1.927-0.485,3.875-0.713,5.846c-0.228,1.971-0.449,3.953-0.664,5.947
			s-0.41,3.962-0.586,5.904c-0.176,1.943-0.329,3.847-0.459,5.71c-0.13,1.863-0.234,3.65-0.313,5.361l0.215,0.017
			c1.028-2.197,2.135-4.135,3.32-5.812c1.185-1.676,2.389-3.081,3.613-4.214c1.224-1.133,2.438-1.988,3.643-2.565
			c1.204-0.578,2.34-0.867,3.408-0.867c0.898,0,1.692,0.145,2.383,0.434c0.69,0.289,1.289,0.674,1.797,1.155s0.931,1.037,1.27,1.665
			c0.338,0.629,0.612,1.286,0.82,1.972c0.208,0.686,0.354,1.379,0.439,2.081c0.084,0.703,0.127,1.359,0.127,1.972
			c0,1.688-0.192,3.265-0.576,4.732c-0.384,1.467-0.915,2.803-1.592,4.01c-0.677,1.206-1.478,2.279-2.402,3.22
			c-0.925,0.94-1.927,1.733-3.008,2.379c-1.081,0.646-2.22,1.136-3.418,1.47c-1.198,0.334-2.402,0.502-3.613,0.502
			c-0.808,0-1.618-0.08-2.432-0.238c-0.814-0.159-1.608-0.402-2.383-0.73c-0.775-0.329-1.507-0.751-2.197-1.266
			c-0.69-0.516-1.309-1.125-1.855-1.827c-0.456,0.997-0.918,1.813-1.387,2.447c-0.469,0.634-0.905,1.144-1.309,1.529l-1.016-0.222
			c0.716-1.732,1.243-3.814,1.582-6.244c0.338-2.43,0.599-5.18,0.781-8.25c0.065-1.313,0.146-2.81,0.244-4.485
			c0.098-1.677,0.198-3.444,0.303-5.302c0.104-1.858,0.215-3.758,0.332-5.701c0.117-1.942,0.234-3.832,0.352-5.667
			s0.228-3.574,0.332-5.217c0.104-1.642,0.202-3.098,0.293-4.366c0.013-0.272,0.11-0.507,0.293-0.705
			c0.182-0.198,0.41-0.357,0.684-0.477s0.583-0.206,0.928-0.263c0.345-0.057,0.687-0.085,1.025-0.085
			C79.688,26.966,80.516,27.146,81.375,27.509z M94.168,59.369c0-0.77-0.068-1.563-0.205-2.379
			c-0.137-0.815-0.352-1.555-0.645-2.217c-0.293-0.663-0.677-1.207-1.152-1.632c-0.476-0.425-1.052-0.637-1.729-0.637
			c-0.794,0-1.579,0.173-2.354,0.518c-0.775,0.346-1.523,0.811-2.246,1.394c-0.723,0.584-1.416,1.258-2.08,2.022
			s-1.286,1.566-1.865,2.404c-0.58,0.839-1.101,1.686-1.563,2.54c-0.462,0.855-0.859,1.668-1.191,2.438s-0.589,1.47-0.771,2.099
			c-0.183,0.629-0.273,1.13-0.273,1.504c0.195,0.702,0.498,1.34,0.908,1.911c0.41,0.572,0.905,1.06,1.484,1.462
			c0.579,0.402,1.224,0.711,1.934,0.926c0.709,0.216,1.461,0.323,2.256,0.323c1.302,0,2.529-0.286,3.682-0.858
			s2.158-1.401,3.018-2.489s1.54-2.416,2.041-3.984C93.917,63.145,94.168,61.363,94.168,59.369z"/>
	</g>
	<g>
		<path fill="#FFFFFF" stroke="#FFFFFF" stroke-width="2" stroke-miterlimit="10" d="M26.852,45.75l2.32-0.428l-2.637,7.738
			c-1.055,3.079-2.051,6.627-2.988,10.644c-0.516,2.183-0.773,3.589-0.773,4.221c0,0.633,0.293,0.948,0.879,0.948
			c0.375,0,0.972-0.214,1.793-0.642c1.453-0.755,2.848-1.692,4.184-2.814l1.125,1.193c-2.672,2.121-4.383,3.405-5.133,3.854
			c-1.5,0.897-2.93,1.56-4.289,1.988c-0.891,0.285-1.758,0.428-2.602,0.428c-0.61,0-1.067-0.122-1.371-0.367
			c-0.305-0.244-0.457-0.601-0.457-1.07c0-0.306,0.093-0.724,0.281-1.254l1.406-4.159c-2.016,2.1-4.418,3.904-7.207,5.413
			C9.672,72.38,8.101,72.85,6.672,72.85c-1.359,0-2.403-0.418-3.129-1.254c-0.984-1.121-1.477-2.59-1.477-4.404
			c0-2.161,0.662-4.567,1.986-7.219c1.324-2.65,3.099-5.057,5.326-7.218c2.227-2.161,4.57-3.752,7.031-4.771
			c1.898-0.774,4.336-1.162,7.313-1.162c0.75,0,1.512,0.041,2.285,0.122L26.852,45.75z M22.492,50.43
			c-1.266-0.224-2.333-0.336-3.199-0.336c-2.109,0-3.95,0.505-5.52,1.514c-1.57,1.01-3.029,2.824-4.377,5.444
			c-1.348,2.62-2.021,5.235-2.021,7.846c0,1.387,0.269,2.386,0.809,2.997c0.539,0.612,1.242,0.918,2.109,0.918
			c1.617,0,3.352-0.76,5.203-2.279c1.851-1.519,3.211-3.705,4.078-6.561L22.492,50.43z"/>
	</g>
</g>
</svg>
