<?xml version="1.0" encoding="utf-8"?>
<!-- Generator: Adobe Illustrator 16.0.0, SVG Export Plug-In . SVG Version: 6.00 Build 0)  -->
<!DOCTYPE svg PUBLIC "-//W3C//DTD SVG 1.1//EN" "http://www.w3.org/Graphics/SVG/1.1/DTD/svg11.dtd">
<svg version="1.1" id="图层_1" xmlns="http://www.w3.org/2000/svg" xmlns:xlink="http://www.w3.org/1999/xlink" x="0px" y="0px"
	 width="100px" height="100px" viewBox="0 0 100 100" enable-background="new 0 0 100 100" xml:space="preserve">
<g>
	<g>
		<path fill="#FFFFFF" d="M38.068,50c0,9.685,4.706,18.245,11.933,23.593C57.229,68.245,61.934,59.685,61.934,50
			c0-9.686-4.705-18.246-11.933-23.596C42.774,31.754,38.068,40.314,38.068,50z"/>
	</g>
	<g>
		<path fill="#FFFFFF" d="M32.562,82.315C14.742,82.315,0.245,67.817,0.245,50c0-17.818,14.497-32.314,32.316-32.314
			c17.816,0,32.314,14.496,32.314,32.314C64.876,67.817,50.378,82.315,32.562,82.315z M32.562,23.568
			C17.986,23.568,6.13,35.426,6.13,50c0,14.573,11.856,26.431,26.432,26.431c14.573,0,26.43-11.857,26.43-26.431
			C58.991,35.426,47.135,23.568,32.562,23.568z"/>
	</g>
	<g>
		<path fill="#FFFFFF" d="M67.44,82.315c-17.816,0-32.313-14.498-32.313-32.315c0-17.818,14.497-32.314,32.313-32.314
			c17.82,0,32.314,14.496,32.314,32.314C99.755,67.817,85.261,82.315,67.44,82.315z M67.44,23.568
			c-14.573,0-26.43,11.857-26.43,26.432c0,14.573,11.856,26.431,26.43,26.431c14.576,0,26.434-11.857,26.434-26.431
			C93.874,35.426,82.017,23.568,67.44,23.568z"/>
	</g>
</g>
</svg>
