<?xml version="1.0" encoding="utf-8"?>
<!-- Generator: Adobe Illustrator 16.0.0, SVG Export Plug-In . SVG Version: 6.00 Build 0)  -->
<!DOCTYPE svg PUBLIC "-//W3C//DTD SVG 1.1//EN" "http://www.w3.org/Graphics/SVG/1.1/DTD/svg11.dtd">
<svg version="1.1" id="图层_1" xmlns="http://www.w3.org/2000/svg" xmlns:xlink="http://www.w3.org/1999/xlink" x="0px" y="0px"
	 width="100px" height="100px" viewBox="0 0 100 100" enable-background="new 0 0 100 100" xml:space="preserve">
<g>
	<g>
		<path fill="#FFFFFF" stroke="#FFFFFF" stroke-width="3" stroke-miterlimit="10" d="M11.358,68.87V38.117h-0.095l-6.037,3.327
			l-1.236-4.041l8.08-4.325h4.658V68.87H11.358z"/>
		<path fill="#FFFFFF" stroke="#FFFFFF" stroke-width="3" stroke-miterlimit="10" d="M60.6,68.87H38.831v-3.375l3.755-3.945
			c7.558-7.748,11.74-12.691,11.74-18.062c0-3.47-1.664-6.512-6.179-6.512c-2.757,0-5.229,1.474-6.892,2.805l-1.664-3.945
			c2.187-1.806,5.656-3.327,9.649-3.327c7.367,0,10.6,4.991,10.6,10.409c0,6.56-4.468,12.025-10.695,18.3l-2.947,2.994v0.095H60.6
			V68.87z"/>
		<path fill="#FFFFFF" stroke="#FFFFFF" stroke-width="3" stroke-miterlimit="10" d="M89.831,49.572
			c4.041,0.761,7.51,4.041,7.51,9.079c0,5.846-4.468,10.742-12.596,10.742c-3.708,0-7.035-1.093-8.746-2.234l1.426-4.23
			c1.283,0.855,4.135,2.044,7.082,2.044c5.086,0,7.177-3.327,7.177-6.512c0-4.611-3.897-6.75-8.128-6.75h-2.424v-3.945h2.329
			c3.09,0,7.13-1.854,7.13-5.799c0-2.804-1.806-5.038-5.609-5.038c-2.519,0-4.991,1.188-6.369,2.139l-1.378-3.945
			c1.806-1.331,5.276-2.614,8.983-2.614c6.702,0,9.982,4.04,9.982,8.603c0,3.66-2.282,6.845-6.37,8.366V49.572z"/>
	</g>
	<g>
		<rect x="0.812" y="79.853" fill="#FFFFFF" width="98.376" height="10"/>
	</g>
	<g>
		<rect x="0.812" y="10.147" fill="#FFFFFF" width="98.376" height="10"/>
	</g>
</g>
</svg>
